<svg width="23" height="22" viewBox="0 0 23 22" fill="none" xmlns="http://www.w3.org/2000/svg">
<path d="M22.4672 12.0023L21.686 11.7511C21.6676 11.7453 21.6599 11.739 21.6514 11.7171C21.6092 11.6047 21.562 11.4922 21.5112 11.3811C21.5031 11.3633 21.5031 11.3548 21.513 11.3356L21.8859 10.6077C22.0377 10.3128 21.9816 9.95619 21.7448 9.71877L20.898 8.87756C20.6604 8.64372 20.301 8.58794 20.0045 8.73877L19.2736 9.10917C19.2525 9.11988 19.2435 9.11899 19.2242 9.11007C19.1136 9.06008 19.0004 9.01323 18.8877 8.97128C18.8652 8.9628 18.8589 8.95477 18.8535 8.9387L18.6002 8.16086C18.4973 7.84446 18.2026 7.63203 17.8675 7.63203H16.6716C16.3311 7.63203 16.0435 7.83955 15.9393 8.16041L15.6851 8.93692C15.6792 8.95477 15.6729 8.96324 15.6536 8.97083C15.5408 9.01233 15.4267 9.05875 15.3126 9.11051C15.2951 9.11855 15.2861 9.11944 15.2677 9.11007L14.5346 8.73833C14.2376 8.58749 13.8787 8.64327 13.6397 8.87845L12.7929 9.71966C12.5575 9.95574 12.5013 10.3128 12.6531 10.6073L13.0269 11.3347C13.0363 11.353 13.0363 11.3624 13.0269 11.3825C12.9766 11.4922 12.9294 11.6047 12.8863 11.7198C12.8805 11.7359 12.8742 11.7439 12.8549 11.7506L12.0709 12.0028C11.92 12.0518 11.7929 12.1438 11.7003 12.262C11.6904 12.2527 11.6805 12.2433 11.6707 12.233L10.977 11.5141V11.0446C11.2075 10.8965 11.4249 10.7247 11.6257 10.5296C12.3297 9.84685 12.7596 8.95834 12.8553 8.0011C13.5076 7.83732 13.9811 7.25583 13.9811 6.55743C13.9811 6.18792 13.8445 5.8501 13.6195 5.58992V4.0695C13.6195 1.82567 11.7816 0 9.52286 0H7.17828C6.28699 0 5.5471 0.654225 5.41996 1.50436C4.54215 1.61057 3.85976 2.35584 3.85976 3.25595V5.58948C3.63469 5.8501 3.49812 6.18837 3.49812 6.55787C3.49812 7.25628 3.97162 7.83776 4.62391 8.00154C4.7196 8.95834 5.14952 9.8473 5.85348 10.5301C6.05429 10.7251 6.27172 10.8969 6.50218 11.0451V11.5141L5.80811 12.2335C5.66615 12.3812 5.51385 12.47 5.31439 12.5218L2.3638 13.2934C1.69084 13.4692 1.20791 13.9793 1.07269 14.6585L0.0340473 19.8932C-0.0692775 20.4158 0.0650447 20.9495 0.403321 21.3578C0.741148 21.7657 1.2425 22 1.77844 22H15.7021C16.2381 22 16.7394 21.7662 17.0772 21.3578C17.4151 20.9495 17.5498 20.4158 17.4465 19.8927L17.2727 19.0167H17.8684C18.2026 19.0167 18.4973 18.8043 18.6011 18.4879L18.854 17.7118C18.8612 17.6904 18.8693 17.6842 18.8881 17.6775C19.0013 17.6355 19.1145 17.5887 19.2264 17.5382C19.2448 17.5298 19.2543 17.5298 19.2713 17.5387L20.0045 17.9104C20.3014 18.0613 20.6604 18.0055 20.8994 17.7703L21.7462 16.9291C21.9816 16.693 22.0377 16.336 21.8859 16.0415L21.513 15.3154C21.5022 15.2944 21.5031 15.2855 21.5121 15.2663C21.5638 15.1543 21.6105 15.0409 21.6514 14.932C21.6599 14.9097 21.6689 14.9035 21.6851 14.8981L22.4677 14.6451C22.7911 14.5411 23 14.2555 23 13.9172V12.7293C23 12.3968 22.7857 12.1045 22.4672 12.0023ZM5.63695 2.205H5.76049C5.9586 2.205 6.11943 2.04524 6.11943 1.84843V1.76498C6.11943 1.18528 6.59472 0.713579 7.17873 0.713579H9.5233C11.3863 0.713579 12.9016 2.21928 12.9016 4.0695V5.12893C12.7623 5.08832 12.615 5.06735 12.4622 5.06913V4.89687C12.4622 4.48408 12.3068 4.11323 12.013 3.82494C11.7169 3.53398 11.3427 3.38225 10.9294 3.38805C9.30722 3.40188 7.95052 3.25685 6.78205 2.94357C6.76049 2.93777 6.73848 2.9342 6.71602 2.93241C6.34764 2.90385 5.83731 3.03282 5.49588 3.8062C5.32428 4.19445 5.22724 4.6666 5.15177 5.07716C4.95897 5.05709 4.76409 5.07468 4.57809 5.12893V3.2564C4.57854 2.6767 5.05339 2.205 5.63695 2.205ZM5.32338 7.68112C5.31844 7.49191 5.16525 7.33928 4.97477 7.33348C4.54979 7.32143 4.2169 6.98049 4.2169 6.55787C4.2169 6.13035 4.56686 5.78226 4.99768 5.78226C5.101 5.78226 5.20343 5.80279 5.30181 5.84251C5.40199 5.88357 5.5152 5.87732 5.61044 5.826C5.70568 5.77468 5.77217 5.68319 5.79148 5.57743C5.80361 5.51272 5.81574 5.44533 5.82787 5.37572C5.98511 4.49746 6.17693 3.64197 6.63246 3.64197H6.63336C7.85708 3.96552 9.26544 4.11591 10.9375 4.10073C11.1603 4.09806 11.3477 4.17348 11.5085 4.33145C11.6671 4.4872 11.7443 4.67195 11.7443 4.89643V5.48951C11.7443 5.60554 11.8009 5.71398 11.8962 5.78092C11.9914 5.84786 12.1136 5.86438 12.2232 5.82555C12.3059 5.79654 12.3935 5.78137 12.4824 5.78137C12.9128 5.78137 13.2632 6.12901 13.2632 6.55698C13.2632 6.97959 12.9303 7.3201 12.5053 7.33259C12.3149 7.33795 12.1617 7.49057 12.1567 7.68023C12.1096 9.50367 10.5768 10.9871 8.73983 10.9871C6.9029 10.9871 5.37055 9.50457 5.32338 7.68112ZM8.74028 11.7015C9.26769 11.7015 9.78117 11.602 10.2596 11.4132V11.8229C10.2596 12.6552 9.57811 13.3322 8.74028 13.3322C7.90245 13.3322 7.22096 12.6552 7.22096 11.8229V11.4132C7.70446 11.604 8.22004 11.7018 8.74028 11.7015ZM4.36246 21.2864L3.6302 15.2226C3.62661 15.1945 3.63289 15.182 3.64727 15.1663C3.66479 15.1467 3.67737 15.1413 3.70298 15.1413H13.7776C13.8032 15.1413 13.8158 15.1471 13.8333 15.1663C13.8477 15.182 13.8535 15.1945 13.8504 15.2226L13.1181 21.2864H4.36246ZM16.5224 20.9044C16.3216 21.1472 16.0224 21.2864 15.7021 21.2864H13.8414L14.5638 15.3074C14.5912 15.0798 14.522 14.8606 14.3692 14.6906C14.2142 14.5184 14.0098 14.4273 13.778 14.4273H3.70253C3.47072 14.4273 3.26632 14.5184 3.11133 14.6906C2.95859 14.8606 2.88941 15.0798 2.91681 15.3074L3.63873 21.2864H1.77844C1.45813 21.2864 1.15894 21.1472 0.95813 20.9044C0.756871 20.6617 0.677356 20.343 0.738902 20.0306L1.77799 14.7964C1.85975 14.3858 2.14008 14.0891 2.54753 13.9828L5.49723 13.2112C5.82338 13.1265 6.09562 12.9676 6.32787 12.7257L6.59427 12.4495C6.86741 13.3706 7.7259 14.0449 8.74028 14.0449C9.75466 14.0449 10.6132 13.3706 10.8863 12.4495L11.1522 12.7248C11.3854 12.9671 11.6572 13.126 11.9829 13.2104L14.9335 13.9819C15.3405 14.0882 15.6208 14.3849 15.7026 14.795L15.7448 15.0079L15.7475 15.0222L16.4829 18.7271L16.4843 18.7338L16.7417 20.0297C16.8032 20.343 16.7232 20.6617 16.5224 20.9044ZM15.6141 13.3246C15.6141 12.4173 16.3567 11.6788 17.2695 11.6788C18.1828 11.6788 18.9263 12.4169 18.9263 13.3246C18.9263 14.2314 18.1833 14.9691 17.2695 14.9691C16.9667 14.9691 16.677 14.8897 16.4227 14.7384L16.407 14.658C16.309 14.1663 16.0278 13.7637 15.6244 13.512C15.6176 13.4498 15.6141 13.3872 15.6141 13.3246ZM22.2817 13.9177C22.2817 13.944 22.2709 13.9587 22.2457 13.9668L21.4614 14.2203C21.2354 14.2943 21.0642 14.4572 20.9784 14.6821C20.9425 14.7785 20.9034 14.8727 20.8594 14.9682C20.7592 15.1837 20.7628 15.4203 20.872 15.6367L21.2466 16.3655C21.2538 16.3797 21.261 16.4016 21.2372 16.4253L20.3931 17.2638C20.3679 17.2883 20.3459 17.2816 20.3315 17.274L19.5966 16.9014C19.3818 16.7934 19.1433 16.7894 18.9263 16.8889C18.8321 16.9318 18.7363 16.9712 18.6392 17.0072C18.4133 17.0888 18.2475 17.2593 18.1711 17.4891L17.9178 18.2665C17.9097 18.2906 17.8935 18.3022 17.8684 18.3022H17.1307L16.5912 15.5836C16.809 15.6479 17.0368 15.6813 17.27 15.6813C18.5795 15.6813 19.6451 14.6237 19.6451 13.3233C19.6451 12.0224 18.5795 10.9639 17.27 10.9639C15.991 10.9639 14.9456 11.9746 14.8984 13.2349L12.5094 12.6101L13.0781 12.4272C13.3077 12.3522 13.4793 12.1871 13.5606 11.9653C13.597 11.8689 13.6374 11.772 13.6801 11.6788C13.7812 11.4619 13.7767 11.2249 13.6675 11.0103L13.2929 10.2815C13.2857 10.2672 13.2785 10.2454 13.3023 10.2217L14.1464 9.38318C14.1716 9.35864 14.1936 9.36533 14.208 9.37292L14.9443 9.74599C15.1594 9.85265 15.3975 9.85667 15.6132 9.7576C15.7092 9.71407 15.8067 9.67403 15.9056 9.63755C16.1289 9.55321 16.2933 9.38363 16.3683 9.15737L16.6231 8.37908C16.6312 8.35454 16.646 8.34383 16.6725 8.34383H17.8684C17.894 8.34383 17.9097 8.35499 17.9178 8.37908L18.172 9.15916C18.2466 9.38452 18.4119 9.55455 18.637 9.63844C18.734 9.67459 18.8315 9.71476 18.9254 9.75715C19.1424 9.85711 19.3805 9.8531 19.5984 9.74466L20.332 9.37247C20.3464 9.36533 20.3684 9.35819 20.3922 9.38184L21.2363 10.2204C21.261 10.2454 21.2543 10.2672 21.2466 10.282L20.8747 11.0085C20.7637 11.2222 20.7583 11.4601 20.8594 11.677C20.9031 11.7716 20.9433 11.8677 20.9798 11.9653C21.0642 12.1884 21.2354 12.3526 21.4641 12.4272L22.2471 12.6789C22.2713 12.6864 22.2826 12.7021 22.2826 12.7279V13.9177H22.2817ZM8.74028 17.0639C8.10281 17.0639 7.58394 17.5797 7.58394 18.2139C7.58394 18.8471 8.10281 19.3626 8.74028 19.3626C9.37775 19.3626 9.89662 18.8471 9.89662 18.2139C9.89617 17.5797 9.37775 17.0639 8.74028 17.0639ZM8.74028 18.649C8.49859 18.649 8.30228 18.454 8.30228 18.2139C8.30228 17.9733 8.49859 17.7774 8.74028 17.7774C8.98197 17.7774 9.17829 17.9733 9.17829 18.2139C9.17829 18.4535 8.98152 18.649 8.74028 18.649Z" fill="white"/>
</svg>
