<svg width="22" height="22" viewBox="0 0 22 22" fill="none" xmlns="http://www.w3.org/2000/svg">
<path fill-rule="evenodd" clip-rule="evenodd" d="M14.3584 17.0827L15.7109 18.4352C15.8006 18.5249 15.9222 18.5752 16.0491 18.5752C16.1759 18.5752 16.2975 18.5249 16.3872 18.4352L19.0922 15.7302C19.1793 15.64 19.2276 15.5192 19.2265 15.3938C19.2254 15.2684 19.1751 15.1484 19.0864 15.0597C18.9977 14.9711 18.8778 14.9208 18.7524 14.9197C18.627 14.9186 18.5062 14.9668 18.416 15.0539L16.0491 17.4208L15.0347 16.4064C14.9445 16.3193 14.8237 16.2711 14.6983 16.2722C14.5729 16.2733 14.4529 16.3236 14.3642 16.4123C14.2756 16.5009 14.2253 16.6209 14.2242 16.7463C14.2231 16.8717 14.2713 16.9925 14.3584 17.0827ZM5.73871 8.70452C5.73871 8.42569 5.62775 8.15787 5.43071 7.96034C5.23317 7.76327 4.96557 7.65251 4.68653 7.65234H3.92131C3.64249 7.65234 3.37466 7.7633 3.17714 7.96034C2.98006 8.15788 2.86931 8.42548 2.86914 8.70452V9.46973C2.86914 9.74856 2.9801 10.0164 3.17714 10.2139C3.37466 10.411 3.64249 10.5219 3.92131 10.5219H4.68653C4.96536 10.5219 5.23318 10.411 5.43071 10.2139C5.62775 10.0164 5.73871 9.74856 5.73871 9.46973V8.70452ZM4.78218 8.70452V9.46973C4.78221 9.48229 4.77973 9.49472 4.77488 9.5063C4.77004 9.51788 4.76293 9.52838 4.75397 9.53717C4.74517 9.54613 4.73468 9.55324 4.7231 9.55808C4.71152 9.56293 4.69909 9.56541 4.68653 9.56539H3.92131C3.90876 9.56541 3.89633 9.56293 3.88475 9.55808C3.87317 9.55324 3.86267 9.54613 3.85388 9.53717C3.84492 9.52838 3.83781 9.51788 3.83296 9.5063C3.82812 9.49472 3.82564 9.48229 3.82566 9.46973V8.70452C3.82566 8.67917 3.83571 8.65478 3.85388 8.63708C3.86267 8.62812 3.87317 8.62101 3.88475 8.61617C3.89633 8.61132 3.90876 8.60884 3.92131 8.60887H4.68653C4.71188 8.60887 4.73627 8.61891 4.75397 8.63708C4.76293 8.64588 4.77004 8.65637 4.77488 8.66795C4.77973 8.67953 4.78221 8.69196 4.78218 8.70452ZM5.73871 12.5306C5.73871 12.2518 5.62775 11.984 5.43071 11.7864C5.23317 11.5894 4.96557 11.4786 4.68653 11.4784H3.92131C3.64249 11.4784 3.37466 11.5894 3.17714 11.7864C2.98006 11.984 2.86931 12.2516 2.86914 12.5306V13.2958C2.86914 13.5746 2.9801 13.8425 3.17714 14.04C3.37466 14.237 3.64249 14.348 3.92131 14.348H4.68653C4.96536 14.348 5.23318 14.237 5.43071 14.04C5.62775 13.8425 5.73871 13.5746 5.73871 13.2958V12.5306ZM4.78218 12.5306V13.2958C4.78221 13.3084 4.77973 13.3208 4.77488 13.3324C4.77004 13.344 4.76293 13.3545 4.75397 13.3633C4.74517 13.3722 4.73468 13.3793 4.7231 13.3842C4.71152 13.389 4.69909 13.3915 4.68653 13.3915H3.92131C3.90876 13.3915 3.89633 13.389 3.88475 13.3842C3.87317 13.3793 3.86267 13.3722 3.85388 13.3633C3.84492 13.3545 3.83781 13.344 3.83296 13.3324C3.82812 13.3208 3.82564 13.3084 3.82566 13.2958V12.5306C3.82566 12.5053 3.83571 12.4809 3.85388 12.4632C3.86267 12.4542 3.87317 12.4471 3.88475 12.4423C3.89633 12.4374 3.90876 12.4349 3.92131 12.435H4.68653C4.71188 12.435 4.73627 12.445 4.75397 12.4632C4.76293 12.472 4.77004 12.4825 4.77488 12.494C4.77973 12.5056 4.78221 12.5181 4.78218 12.5306ZM5.73871 16.3567C5.73871 16.0779 5.62775 15.81 5.43071 15.6125C5.23317 15.4154 4.96557 15.3047 4.68653 15.3045H3.92131C3.64249 15.3045 3.37466 15.4155 3.17714 15.6125C2.98006 15.8101 2.86931 16.0777 2.86914 16.3567V17.1219C2.86914 17.4007 2.9801 17.6686 3.17714 17.8661C3.37466 18.0631 3.64249 18.1741 3.92131 18.1741H4.68653C4.96536 18.1741 5.23318 18.0631 5.43071 17.8661C5.62775 17.6686 5.73871 17.4007 5.73871 17.1219V16.3567ZM4.78218 16.3567V17.1219C4.78221 17.1345 4.77973 17.1469 4.77488 17.1585C4.77004 17.1701 4.76293 17.1806 4.75397 17.1893C4.74517 17.1983 4.73468 17.2054 4.7231 17.2103C4.71152 17.2151 4.69909 17.2176 4.68653 17.2176H3.92131C3.90876 17.2176 3.89633 17.2151 3.88475 17.2103C3.87317 17.2054 3.86267 17.1983 3.85388 17.1893C3.84492 17.1806 3.83781 17.1701 3.83296 17.1585C3.82812 17.1469 3.82564 17.1345 3.82566 17.1219V16.3567C3.82566 16.3313 3.83571 16.307 3.85388 16.2893C3.86267 16.2803 3.87317 16.2732 3.88475 16.2683C3.89633 16.2635 3.90876 16.261 3.92131 16.261H4.68653C4.71188 16.261 4.73627 16.2711 4.75397 16.2893C4.76293 16.298 4.77004 16.3085 4.77488 16.3201C4.77973 16.3317 4.78221 16.3441 4.78218 16.3567ZM9.56479 8.70452C9.56479 8.42569 9.45384 8.15787 9.25679 7.96034C9.05925 7.76327 8.79166 7.65251 8.51262 7.65234H7.7474C7.46858 7.65234 7.20075 7.7633 7.00323 7.96034C6.80615 8.15788 6.6954 8.42548 6.69523 8.70452V9.46973C6.69523 9.74856 6.80618 10.0164 7.00323 10.2139C7.20075 10.411 7.46858 10.5219 7.7474 10.5219H8.51262C8.79144 10.5219 9.05927 10.411 9.25679 10.2139C9.45384 10.0164 9.56479 9.74856 9.56479 9.46973V8.70452ZM8.60827 8.70452V9.46973C8.6083 9.48229 8.60581 9.49472 8.60097 9.5063C8.59612 9.51788 8.58901 9.52838 8.58005 9.53717C8.57126 9.54613 8.56076 9.55324 8.54918 9.55808C8.5376 9.56293 8.52517 9.56541 8.51262 9.56539H7.7474C7.73485 9.56541 7.72242 9.56293 7.71084 9.55808C7.69926 9.55324 7.68876 9.54613 7.67997 9.53717C7.67101 9.52838 7.6639 9.51788 7.65905 9.5063C7.65421 9.49472 7.65172 9.48229 7.65175 9.46973V8.70452C7.65175 8.67917 7.66179 8.65478 7.67997 8.63708C7.68876 8.62812 7.69926 8.62101 7.71084 8.61617C7.72242 8.61132 7.73485 8.60884 7.7474 8.60887H8.51262C8.53797 8.60887 8.56236 8.61891 8.58005 8.63708C8.58901 8.64588 8.59612 8.65637 8.60097 8.66795C8.60581 8.67953 8.6083 8.69196 8.60827 8.70452ZM9.56479 12.5306C9.56479 12.2518 9.45384 11.984 9.25679 11.7864C9.05925 11.5894 8.79166 11.4786 8.51262 11.4784H7.7474C7.46858 11.4784 7.20075 11.5894 7.00323 11.7864C6.80615 11.984 6.6954 12.2516 6.69523 12.5306V13.2958C6.69523 13.5746 6.80618 13.8425 7.00323 14.04C7.20075 14.237 7.46858 14.348 7.7474 14.348H8.51262C8.79144 14.348 9.05927 14.237 9.25679 14.04C9.45384 13.8425 9.56479 13.5746 9.56479 13.2958V12.5306ZM8.60827 12.5306V13.2958C8.6083 13.3084 8.60581 13.3208 8.60097 13.3324C8.59612 13.344 8.58901 13.3545 8.58005 13.3633C8.57126 13.3722 8.56076 13.3793 8.54918 13.3842C8.5376 13.389 8.52517 13.3915 8.51262 13.3915H7.7474C7.73485 13.3915 7.72242 13.389 7.71084 13.3842C7.69926 13.3793 7.68876 13.3722 7.67997 13.3633C7.67101 13.3545 7.6639 13.344 7.65905 13.3324C7.65421 13.3208 7.65172 13.3084 7.65175 13.2958V12.5306C7.65175 12.5053 7.66179 12.4809 7.67997 12.4632C7.68876 12.4542 7.69926 12.4471 7.71084 12.4423C7.72242 12.4374 7.73485 12.4349 7.7474 12.435H8.51262C8.53797 12.435 8.56236 12.445 8.58005 12.4632C8.58901 12.472 8.59612 12.4825 8.60097 12.494C8.60581 12.5056 8.6083 12.5181 8.60827 12.5306ZM9.56479 16.3567C9.56479 16.0779 9.45384 15.81 9.25679 15.6125C9.05925 15.4154 8.79166 15.3047 8.51262 15.3045H7.7474C7.46858 15.3045 7.20075 15.4155 7.00323 15.6125C6.80615 15.8101 6.6954 16.0777 6.69523 16.3567V17.1219C6.69523 17.4007 6.80618 17.6686 7.00323 17.8661C7.20075 18.0631 7.46858 18.1741 7.7474 18.1741H8.51262C8.79144 18.1741 9.05927 18.0631 9.25679 17.8661C9.45384 17.6686 9.56479 17.4007 9.56479 17.1219V16.3567ZM8.60827 16.3567V17.1219C8.6083 17.1345 8.60581 17.1469 8.60097 17.1585C8.59612 17.1701 8.58901 17.1806 8.58005 17.1893C8.57126 17.1983 8.56076 17.2054 8.54918 17.2103C8.5376 17.2151 8.52517 17.2176 8.51262 17.2176H7.7474C7.73485 17.2176 7.72242 17.2151 7.71084 17.2103C7.69926 17.2054 7.68876 17.1983 7.67997 17.1893C7.67101 17.1806 7.6639 17.1701 7.65905 17.1585C7.65421 17.1469 7.65172 17.1345 7.65175 17.1219V16.3567C7.65175 16.3313 7.66179 16.307 7.67997 16.2893C7.68876 16.2803 7.69926 16.2732 7.71084 16.2683C7.72242 16.2635 7.73485 16.261 7.7474 16.261H8.51262C8.53797 16.261 8.56236 16.2711 8.58005 16.2893C8.58901 16.298 8.59612 16.3085 8.60097 16.3201C8.60581 16.3317 8.6083 16.3441 8.60827 16.3567ZM13.3909 8.70452C13.3909 8.42569 13.2799 8.15787 13.0829 7.96034C12.8853 7.76327 12.6177 7.65251 12.3387 7.65234H11.5735C11.2947 7.65234 11.0268 7.7633 10.8293 7.96034C10.6322 8.15788 10.5215 8.42548 10.5213 8.70452V9.46973C10.5213 9.74856 10.6323 10.0164 10.8293 10.2139C11.0268 10.411 11.2947 10.5219 11.5735 10.5219H12.3387C12.6175 10.5219 12.8854 10.411 13.0829 10.2139C13.2799 10.0164 13.3909 9.74856 13.3909 9.46973V8.70452ZM12.4344 8.70452V9.46973C12.4344 9.48229 12.4319 9.49472 12.4271 9.5063C12.4222 9.51788 12.4151 9.52838 12.4061 9.53717C12.3973 9.54613 12.3869 9.55324 12.3753 9.55808C12.3637 9.56293 12.3513 9.56541 12.3387 9.56539H11.5735C11.5609 9.56541 11.5485 9.56293 11.5369 9.55808C11.5253 9.55324 11.5148 9.54613 11.5061 9.53717C11.4971 9.52838 11.49 9.51788 11.4851 9.5063C11.4803 9.49472 11.4778 9.48229 11.4778 9.46973V8.70452C11.4778 8.67917 11.4879 8.65478 11.5061 8.63708C11.5148 8.62812 11.5253 8.62101 11.5369 8.61617C11.5485 8.61132 11.5609 8.60884 11.5735 8.60887H12.3387C12.3641 8.60887 12.3884 8.61891 12.4061 8.63708C12.4151 8.64588 12.4222 8.65637 12.4271 8.66795C12.4319 8.67953 12.4344 8.69196 12.4344 8.70452ZM17.217 8.70452C17.217 8.42569 17.106 8.15787 16.909 7.96034C16.7114 7.76327 16.4438 7.65251 16.1648 7.65234H15.3996C15.1207 7.65234 14.8529 7.7633 14.6554 7.96034C14.4583 8.15788 14.3476 8.42548 14.3474 8.70452V9.46973C14.3474 9.74856 14.4584 10.0164 14.6554 10.2139C14.8529 10.411 15.1207 10.5219 15.3996 10.5219H16.1648C16.4436 10.5219 16.7114 10.411 16.909 10.2139C17.106 10.0164 17.217 9.74856 17.217 9.46973V8.70452ZM16.2604 8.70452V9.46973C16.2605 9.48229 16.258 9.49472 16.2531 9.5063C16.2483 9.51788 16.2412 9.52838 16.2322 9.53717C16.2234 9.54613 16.2129 9.55324 16.2014 9.55808C16.1898 9.56293 16.1773 9.56541 16.1648 9.56539H15.3996C15.387 9.56541 15.3746 9.56293 15.363 9.55808C15.3514 9.55324 15.3409 9.54613 15.3321 9.53717C15.3232 9.52838 15.3161 9.51788 15.3112 9.5063C15.3064 9.49472 15.3039 9.48229 15.3039 9.46973V8.70452C15.3039 8.67917 15.314 8.65478 15.3321 8.63708C15.3409 8.62812 15.3514 8.62101 15.363 8.61617C15.3746 8.61132 15.387 8.60884 15.3996 8.60887H16.1648C16.1901 8.60887 16.2145 8.61891 16.2322 8.63708C16.2412 8.64588 16.2483 8.65637 16.2531 8.66795C16.258 8.67953 16.2605 8.69196 16.2604 8.70452Z" fill="white"/>
<path fill-rule="evenodd" clip-rule="evenodd" d="M12.682 20.087H2.3913C1.75709 20.0869 1.14884 19.835 0.700174 19.3868C0.251923 18.9381 9.17561e-05 18.3299 0 17.6957V4.30435C0 3.67013 0.25194 3.0619 0.700397 2.61344C1.14885 2.16498 1.75709 1.91304 2.3913 1.91304H3.82609V1.43478C3.82609 1.05425 3.97725 0.689312 4.24633 0.420238C4.5154 0.151164 4.88034 0 5.26087 0C5.6414 0 6.00634 0.151164 6.27541 0.420238C6.54449 0.689312 6.69565 1.05425 6.69565 1.43478V1.91304H13.3913V1.43478C13.3913 1.05425 13.5425 0.689312 13.8115 0.420238C14.0806 0.151164 14.4456 0 14.8261 0C15.2066 0 15.5716 0.151164 15.8406 0.420238C16.1097 0.689312 16.2609 1.05425 16.2609 1.43478V1.91304H17.6957C18.3299 1.91304 18.9381 2.16498 19.3866 2.61344C19.835 3.0619 20.087 3.67013 20.087 4.30435V12.682C21.2553 13.6477 22 15.1068 22 16.7391C22 19.6427 19.6427 22 16.7391 22C15.9636 22.0005 15.1975 21.8293 14.496 21.4985C13.7945 21.1677 13.175 20.6857 12.682 20.087ZM16.7391 12.4348C19.1147 12.4348 21.0435 14.3636 21.0435 16.7391C21.0435 19.1147 19.1147 21.0435 16.7391 21.0435C14.3636 21.0435 12.4348 19.1147 12.4348 16.7391C12.4348 14.3636 14.3636 12.4348 16.7391 12.4348ZM19.1304 12.0527V6.69565H0.956522V17.6957C0.956522 18.0763 1.10765 18.4413 1.37691 18.71C1.51005 18.8434 1.66818 18.9491 1.84224 19.0213C2.0163 19.0934 2.20289 19.1305 2.3913 19.1304H12.0527C11.6853 18.413 11.4783 17.6 11.4783 16.7391C11.4783 13.8356 13.8356 11.4783 16.7391 11.4783C17.6 11.4783 18.413 11.6853 19.1304 12.0527ZM16.2609 2.86957V3.34783C16.2609 3.72835 16.1097 4.0933 15.8406 4.36237C15.5716 4.63144 15.2066 4.78261 14.8261 4.78261C14.4456 4.78261 14.0806 4.63144 13.8115 4.36237C13.5425 4.0933 13.3913 3.72835 13.3913 3.34783V2.86957H6.69565V3.34783C6.69565 3.72835 6.54449 4.0933 6.27541 4.36237C6.00634 4.63144 5.6414 4.78261 5.26087 4.78261C4.88034 4.78261 4.5154 4.63144 4.24633 4.36237C3.97725 4.0933 3.82609 3.72835 3.82609 3.34783V2.86957H2.3913C2.01078 2.86957 1.64583 3.02073 1.37676 3.2898C1.10769 3.55888 0.956522 3.92382 0.956522 4.30435V5.73913H19.1304V4.30435C19.1304 3.92382 18.9793 3.55888 18.7102 3.2898C18.4411 3.02073 18.0762 2.86957 17.6957 2.86957H16.2609ZM15.3043 1.43478V3.34783C15.3043 3.47467 15.254 3.59632 15.1643 3.68601C15.0746 3.7757 14.9529 3.82609 14.8261 3.82609C14.6992 3.82609 14.5776 3.7757 14.4879 3.68601C14.3982 3.59632 14.3478 3.47467 14.3478 3.34783V1.43478C14.3478 1.30794 14.3982 1.18629 14.4879 1.0966C14.5776 1.00691 14.6992 0.956522 14.8261 0.956522C14.9529 0.956522 15.0746 1.00691 15.1643 1.0966C15.254 1.18629 15.3043 1.30794 15.3043 1.43478ZM5.73913 1.43478V3.34783C5.73913 3.47467 5.68874 3.59632 5.59905 3.68601C5.50936 3.7757 5.38771 3.82609 5.26087 3.82609C5.13403 3.82609 5.01238 3.7757 4.92269 3.68601C4.833 3.59632 4.78261 3.47467 4.78261 3.34783V1.43478C4.78261 1.30794 4.833 1.18629 4.92269 1.0966C5.01238 1.00691 5.13403 0.956522 5.26087 0.956522C5.38771 0.956522 5.50936 1.00691 5.59905 1.0966C5.68874 1.18629 5.73913 1.30794 5.73913 1.43478Z" fill="white"/>
</svg>
