<svg width="68" height="68" viewBox="0 0 68 68" fill="none" xmlns="http://www.w3.org/2000/svg">
<rect width="67.027" height="67.027" rx="4" fill="#54BFC6" fill-opacity="0.4"/>
<path d="M48.8877 33.0828V36.0581L48.9632 36.0688C50.7916 36.3268 52.4722 37.2378 53.6951 38.6341C54.9298 40.0441 55.6102 41.8547 55.6096 43.7289C55.6096 47.995 52.1387 51.4658 47.8726 51.4658C46.115 51.4658 44.4584 50.8913 43.0818 49.8043L43.0579 49.7854H39.0635C40.9941 52.5848 44.2226 54.4235 47.8728 54.4235C53.7698 54.4235 58.5673 49.6259 58.5673 43.729C58.5672 38.1743 54.3104 33.5958 48.8877 33.0828Z" fill="#26A6FE"/>
<path d="M48.888 33.0828V34.104C50.8401 35.0524 52.4624 36.5769 53.5319 38.4556C53.5869 38.5146 53.6421 38.5732 53.6954 38.6341C54.9301 40.0441 55.6105 41.8547 55.6098 43.7289C55.6098 45.761 54.8219 47.6122 53.5361 48.9942C51.9831 51.7281 49.2606 53.7141 46.0537 54.2672C46.6546 54.371 47.2632 54.4232 47.873 54.4234C53.77 54.4234 58.5675 49.6258 58.5675 43.7289C58.5674 38.1743 54.3106 33.5958 48.888 33.0828Z" fill="#0593FC"/>
<path d="M39.126 49.8731C41.0632 52.6228 44.2611 54.4235 47.8728 54.4235C53.7698 54.4235 58.5673 49.6259 58.5673 43.7289C58.5673 38.2044 54.3562 33.6461 48.9756 33.0923" stroke="black" stroke-miterlimit="10" stroke-linecap="round" stroke-linejoin="round"/>
<path d="M40.1361 43.7289C40.1361 39.4627 43.6069 35.9919 47.873 35.9919C48.2474 35.9919 48.6155 36.0192 48.9758 36.0708V23.2129H14.9463V48.5566C14.9463 49.2837 15.5357 49.8731 16.2628 49.8731H43.1769C41.3297 48.4579 40.1361 46.2303 40.1361 43.7289Z" fill="#F9F3F1"/>
<path d="M45.333 23.2129V36.4206C46.1495 36.1362 47.008 35.9913 47.8726 35.9919C48.247 35.9919 48.6151 36.0192 48.9754 36.0708V23.2129H45.333Z" fill="#F3EAE6"/>
<path d="M48.9759 35.9819V23.3007H14.9463V48.5566C14.9463 49.2837 15.5357 49.8731 16.2628 49.8731H19.3786M22.4506 49.8731H43.0278" stroke="black" stroke-miterlimit="10" stroke-linecap="round" stroke-linejoin="round"/>
<path d="M23.2425 31.2829H19.568C19.4982 31.2829 19.4312 31.2552 19.3818 31.2058C19.3324 31.1564 19.3047 31.0895 19.3047 31.0196V27.3451C19.3047 27.2753 19.3324 27.2083 19.3818 27.1589C19.4312 27.1095 19.4982 27.0818 19.568 27.0818H23.2425C23.3124 27.0818 23.3793 27.1095 23.4287 27.1589C23.4781 27.2083 23.5058 27.2753 23.5058 27.3451V31.0196C23.5058 31.0895 23.4781 31.1564 23.4287 31.2058C23.3793 31.2552 23.3124 31.2829 23.2425 31.2829ZM30.2795 31.2829H26.605C26.5351 31.2829 26.4682 31.2552 26.4188 31.2058C26.3694 31.1564 26.3417 31.0895 26.3417 31.0196V27.3451C26.3417 27.2753 26.3694 27.2083 26.4188 27.1589C26.4682 27.1095 26.5351 27.0818 26.605 27.0818H30.2795C30.3494 27.0818 30.4163 27.1095 30.4657 27.1589C30.5151 27.2083 30.5428 27.2753 30.5428 27.3451V31.0196C30.5428 31.0895 30.5151 31.1564 30.4657 31.2058C30.4163 31.2552 30.3494 31.2829 30.2795 31.2829Z" fill="#A6E7F0"/>
<path d="M30.2801 27.0817H28.4951C28.565 27.0817 28.6319 27.1094 28.6813 27.1588C28.7307 27.2082 28.7584 27.2751 28.7584 27.345V31.0195C28.7584 31.0894 28.7307 31.1563 28.6813 31.2057C28.6319 31.2551 28.565 31.2828 28.4951 31.2828H30.2801C30.3499 31.2828 30.4169 31.2551 30.4663 31.2057C30.5156 31.1563 30.5434 31.0894 30.5434 31.0195V27.345C30.5434 27.2751 30.5156 27.2082 30.4663 27.1588C30.4169 27.1094 30.3499 27.0817 30.2801 27.0817Z" fill="#6BD9E7"/>
<path d="M37.3168 31.2829H33.6422C33.5724 31.2829 33.5054 31.2552 33.456 31.2058C33.4066 31.1564 33.3789 31.0895 33.3789 31.0196V27.3451C33.3789 27.2753 33.4066 27.2083 33.456 27.1589C33.5054 27.1095 33.5724 27.0818 33.6422 27.0818H37.3168C37.3866 27.0818 37.4536 27.1095 37.5029 27.1589C37.5523 27.2083 37.5801 27.2753 37.5801 27.3451V31.0196C37.5801 31.0895 37.5523 31.1564 37.5029 31.2058C37.4536 31.2552 37.3866 31.2829 37.3168 31.2829Z" fill="#A6E7F0"/>
<path d="M37.317 27.0817H35.5166C35.5864 27.0817 35.6534 27.1094 35.7028 27.1588C35.7522 27.2082 35.7799 27.2751 35.7799 27.345V31.0195C35.7799 31.0894 35.7522 31.1563 35.7028 31.2057C35.6534 31.2551 35.5864 31.2828 35.5166 31.2828H37.317C37.3868 31.2828 37.4538 31.2551 37.5032 31.2057C37.5526 31.1563 37.5803 31.0894 37.5803 31.0195V27.345C37.5803 27.2751 37.5526 27.2082 37.5032 27.1588C37.4538 27.1094 37.3868 27.0817 37.317 27.0817Z" fill="#6BD9E7"/>
<path d="M44.3539 31.2829H40.6793C40.6095 31.2829 40.5425 31.2552 40.4931 31.2058C40.4438 31.1564 40.416 31.0895 40.416 31.0196V27.3451C40.416 27.2753 40.4438 27.2083 40.4931 27.1589C40.5425 27.1095 40.6095 27.0818 40.6793 27.0818H44.3539C44.4237 27.0818 44.4907 27.1095 44.5401 27.1589C44.5894 27.2083 44.6172 27.2753 44.6172 27.3451V31.0196C44.6172 31.0895 44.5894 31.1564 44.5401 31.2058C44.4907 31.2552 44.4237 31.2829 44.3539 31.2829Z" fill="#FE7D43"/>
<path d="M44.3539 27.0817H42.5381C42.6079 27.0817 42.6749 27.1094 42.7243 27.1588C42.7737 27.2082 42.8014 27.2751 42.8014 27.345V31.0195C42.8014 31.0894 42.7737 31.1563 42.7243 31.2057C42.6749 31.2551 42.6079 31.2828 42.5381 31.2828H44.3539C44.4238 31.2828 44.4908 31.2551 44.5401 31.2057C44.5895 31.1563 44.6173 31.0894 44.6173 31.0195V27.345C44.6173 27.2751 44.5895 27.2082 44.5401 27.1588C44.4908 27.1094 44.4238 27.0817 44.3539 27.0817Z" fill="#FD6930"/>
<path d="M23.2425 38.5299H19.568C19.4982 38.5299 19.4312 38.5022 19.3818 38.4528C19.3324 38.4034 19.3047 38.3364 19.3047 38.2666V34.592C19.3047 34.5222 19.3324 34.4552 19.3818 34.4059C19.4312 34.3565 19.4982 34.3287 19.568 34.3287H23.2425C23.3124 34.3287 23.3793 34.3565 23.4287 34.4059C23.4781 34.4552 23.5058 34.5222 23.5058 34.592V38.2666C23.5058 38.3364 23.4781 38.4034 23.4287 38.4528C23.3793 38.5022 23.3124 38.5299 23.2425 38.5299ZM30.2795 38.5299H26.605C26.5351 38.5299 26.4682 38.5022 26.4188 38.4528C26.3694 38.4034 26.3417 38.3364 26.3417 38.2666V34.592C26.3417 34.5222 26.3694 34.4552 26.4188 34.4059C26.4682 34.3565 26.5351 34.3287 26.605 34.3287H30.2795C30.3494 34.3287 30.4163 34.3565 30.4657 34.4059C30.5151 34.4552 30.5428 34.5222 30.5428 34.592V38.2666C30.5428 38.3364 30.5151 38.4034 30.4657 38.4528C30.4163 38.5022 30.3494 38.5299 30.2795 38.5299Z" fill="#A6E7F0"/>
<path d="M30.28 34.3288H28.495C28.5648 34.3288 28.6318 34.3565 28.6812 34.4059C28.7306 34.4553 28.7583 34.5222 28.7583 34.5921V38.2666C28.7583 38.3365 28.7306 38.4034 28.6812 38.4528C28.6318 38.5022 28.5648 38.5299 28.495 38.5299H30.28C30.3498 38.5299 30.4168 38.5022 30.4661 38.4528C30.5155 38.4034 30.5433 38.3365 30.5433 38.2666V34.5921C30.5433 34.5222 30.5155 34.4553 30.4661 34.4059C30.4168 34.3565 30.3498 34.3288 30.28 34.3288ZM23.243 27.0817H21.458C21.5278 27.0817 21.5948 27.1094 21.6442 27.1588C21.6936 27.2082 21.7213 27.2751 21.7213 27.345V31.0195C21.7213 31.0894 21.6936 31.1563 21.6442 31.2057C21.5948 31.2551 21.5278 31.2828 21.458 31.2828H23.243C23.3128 31.2828 23.3798 31.2551 23.4292 31.2057C23.4785 31.1563 23.5063 31.0894 23.5063 31.0195V27.345C23.5063 27.2751 23.4785 27.2082 23.4292 27.1588C23.3798 27.1094 23.3128 27.0817 23.243 27.0817ZM23.243 34.3288H21.458C21.5278 34.3288 21.5948 34.3565 21.6442 34.4059C21.6936 34.4553 21.7213 34.5222 21.7213 34.5921V38.2666C21.7213 38.3365 21.6936 38.4034 21.6442 38.4528C21.5948 38.5022 21.5278 38.5299 21.458 38.5299H23.243C23.3128 38.5299 23.3798 38.5022 23.4292 38.4528C23.4785 38.4034 23.5063 38.3365 23.5063 38.2666V34.5921C23.5063 34.5222 23.4785 34.4553 23.4292 34.4059C23.3798 34.3565 23.3128 34.3288 23.243 34.3288Z" fill="#6BD9E7"/>
<path d="M37.3168 38.53H33.6422C33.5724 38.53 33.5054 38.5022 33.456 38.4528C33.4066 38.4035 33.3789 38.3365 33.3789 38.2666V34.5921C33.3789 34.5223 33.4066 34.4553 33.456 34.4059C33.5054 34.3565 33.5724 34.3288 33.6422 34.3288H37.3168C37.3866 34.3288 37.4536 34.3565 37.5029 34.4059C37.5523 34.4553 37.5801 34.5223 37.5801 34.5921V38.2666C37.5801 38.3365 37.5523 38.4035 37.5029 38.4528C37.4536 38.5022 37.3866 38.53 37.3168 38.53Z" fill="#A6E7F0"/>
<path d="M37.317 34.3288H35.5166C35.5864 34.3288 35.6534 34.3565 35.7028 34.4059C35.7522 34.4553 35.7799 34.5223 35.7799 34.5921V38.2666C35.7799 38.3365 35.7522 38.4035 35.7028 38.4528C35.6534 38.5022 35.5864 38.53 35.5166 38.53H37.317C37.3868 38.53 37.4538 38.5022 37.5032 38.4528C37.5526 38.4035 37.5803 38.3365 37.5803 38.2666V34.5921C37.5803 34.5223 37.5526 34.4553 37.5032 34.4059C37.4538 34.3565 37.3868 34.3288 37.317 34.3288Z" fill="#6BD9E7"/>
<path d="M40.6793 38.53H42.1481C42.8423 37.766 43.6816 37.1478 44.6172 36.7115V34.5921C44.6172 34.5223 44.5894 34.4553 44.5401 34.4059C44.4907 34.3565 44.4237 34.3288 44.3539 34.3288H40.6793C40.6095 34.3288 40.5425 34.3565 40.4931 34.4059C40.4438 34.4553 40.416 34.5223 40.416 34.5921V38.2666C40.416 38.3365 40.4438 38.4035 40.4931 38.4528C40.5425 38.5022 40.6095 38.53 40.6793 38.53Z" fill="#FE7D43"/>
<path d="M44.3539 34.3288H42.5381C42.6079 34.3288 42.6749 34.3565 42.7243 34.4059C42.7737 34.4553 42.8014 34.5223 42.8014 34.5921V37.8939C43.3459 37.4202 43.9556 37.0197 44.6173 36.7115V34.5921C44.6173 34.5223 44.5895 34.4553 44.5401 34.4059C44.4908 34.3565 44.4238 34.3288 44.3539 34.3288Z" fill="#FD6930"/>
<path d="M44.6172 36.6121V34.5921C44.6172 34.5223 44.5894 34.4553 44.5401 34.4059C44.4907 34.3565 44.4237 34.3288 44.3539 34.3288H40.6793C40.6095 34.3288 40.5425 34.3565 40.4931 34.4059C40.4438 34.4553 40.416 34.5223 40.416 34.5921V38.2667C40.416 38.3365 40.4438 38.4035 40.4931 38.4528C40.5425 38.5022 40.6095 38.53 40.6793 38.53H42.026M44.3539 31.2829H40.6793C40.6095 31.2829 40.5425 31.2552 40.4931 31.2058C40.4438 31.1564 40.416 31.0895 40.416 31.0196V27.3451C40.416 27.2753 40.4438 27.2083 40.4931 27.1589C40.5425 27.1095 40.6095 27.0818 40.6793 27.0818H44.3539C44.4237 27.0818 44.4907 27.1095 44.5401 27.1589C44.5894 27.2083 44.6172 27.2753 44.6172 27.3451V31.0196C44.6172 31.0895 44.5894 31.1564 44.5401 31.2058C44.4907 31.2552 44.4237 31.2829 44.3539 31.2829Z" stroke="black" stroke-miterlimit="10" stroke-linecap="round" stroke-linejoin="round"/>
<path d="M30.2797 45.777H26.6051C26.5353 45.777 26.4683 45.7492 26.4189 45.6998C26.3695 45.6505 26.3418 45.5835 26.3418 45.5137V41.8391C26.3418 41.7693 26.3695 41.7023 26.4189 41.6529C26.4683 41.6035 26.5353 41.5758 26.6051 41.5758H30.2797C30.3495 41.5758 30.4165 41.6035 30.4658 41.6529C30.5152 41.7023 30.543 41.7693 30.543 41.8391V45.5137C30.543 45.5835 30.5152 45.6505 30.4658 45.6998C30.4165 45.7492 30.3495 45.777 30.2797 45.777Z" fill="#A6E7F0"/>
<path d="M30.2801 41.5758H28.4951C28.565 41.5758 28.6319 41.6035 28.6813 41.6529C28.7307 41.7023 28.7584 41.7693 28.7584 41.8391V45.5137C28.7584 45.5835 28.7307 45.6505 28.6813 45.6998C28.6319 45.7492 28.565 45.777 28.4951 45.777H30.2801C30.3499 45.777 30.4169 45.7492 30.4663 45.6998C30.5156 45.6505 30.5434 45.5835 30.5434 45.5137V41.8391C30.5434 41.7693 30.5156 41.7023 30.4663 41.6529C30.4169 41.6035 30.3499 41.5758 30.2801 41.5758Z" fill="#6BD9E7"/>
<path d="M37.3168 45.777H33.6422C33.5724 45.777 33.5054 45.7492 33.456 45.6998C33.4066 45.6505 33.3789 45.5835 33.3789 45.5137V41.8391C33.3789 41.7693 33.4066 41.7023 33.456 41.6529C33.5054 41.6035 33.5724 41.5758 33.6422 41.5758H37.3168C37.3866 41.5758 37.4536 41.6035 37.5029 41.6529C37.5523 41.7023 37.5801 41.7693 37.5801 41.8391V45.5137C37.5801 45.5835 37.5523 45.6505 37.5029 45.6998C37.4536 45.7492 37.3866 45.777 37.3168 45.777Z" fill="#A6E7F0"/>
<path d="M37.317 41.5758H35.5166C35.5864 41.5758 35.6534 41.6035 35.7028 41.6529C35.7522 41.7023 35.7799 41.7693 35.7799 41.8391V45.5137C35.7799 45.5835 35.7522 45.6505 35.7028 45.6998C35.6534 45.7492 35.5864 45.777 35.5166 45.777H37.317C37.3868 45.777 37.4538 45.7492 37.5032 45.6998C37.5526 45.6505 37.5803 45.5835 37.5803 45.5137V41.8391C37.5803 41.7693 37.5526 41.7023 37.5032 41.6529C37.4538 41.6035 37.3868 41.5758 37.317 41.5758Z" fill="#6BD9E7"/>
<path d="M47.8726 51.5536C52.194 51.5536 55.6973 48.0504 55.6973 43.7289C55.6973 39.4074 52.194 35.9042 47.8726 35.9042C43.5511 35.9042 40.0479 39.4074 40.0479 43.7289C40.0479 48.0504 43.5511 51.5536 47.8726 51.5536Z" fill="white"/>
<path d="M47.8726 35.9042C47.4008 35.9042 46.9389 35.946 46.4902 36.0259C50.1523 36.6787 52.9325 39.8791 52.9325 43.7289C52.9325 47.5787 50.1523 50.779 46.4902 51.4319C46.9465 51.513 47.4091 51.5538 47.8726 51.5536C52.1941 51.5536 55.6973 48.0504 55.6973 43.7289C55.6973 39.4074 52.194 35.9042 47.8726 35.9042Z" fill="#F9F3F1"/>
<path d="M40.2022 45.2801C40.9219 48.8585 44.0825 51.5535 47.8728 51.5535C52.1943 51.5535 55.6976 48.0503 55.6976 43.7288C55.6976 39.4073 52.1943 35.9041 47.8728 35.9041C44.0717 35.9041 40.9041 38.6147 40.1963 42.2082" stroke="black" stroke-miterlimit="10" stroke-linecap="round" stroke-linejoin="round"/>
<path d="M51.4965 43.7289H47.873V38.95" stroke="black" stroke-miterlimit="10" stroke-linecap="round" stroke-linejoin="round"/>
<path d="M48.9759 23.3007H14.9463V18.3154C14.9463 17.5883 15.5357 16.9988 16.2628 16.9988H47.6594C48.3864 16.9988 48.9759 17.5883 48.9759 18.3154V23.3007Z" fill="#FE7D43"/>
<path d="M47.66 16.9988H44.0176C44.7447 16.9988 45.3341 17.5883 45.3341 18.3154V23.3006H48.9765V18.3154C48.9765 17.5883 48.3871 16.9988 47.66 16.9988Z" fill="#FD6930"/>
<path d="M22.6261 16.9988H16.2628C15.5357 16.9988 14.9463 17.5883 14.9463 18.3154V23.3006H48.9759V18.3154C48.9759 17.5883 48.3864 16.9988 47.6594 16.9988H25.698" stroke="black" stroke-miterlimit="10" stroke-linecap="round" stroke-linejoin="round"/>
<path d="M23.1846 20.2748H40.7384Z" fill="black"/>
<path d="M23.1846 20.2748H40.7384" stroke="black" stroke-miterlimit="10" stroke-linecap="round" stroke-linejoin="round"/>
<path d="M19.3047 19.0995V15.4235M44.6168 19.0995V15.4235M19.3047 43.4737L21.1977 45.777L23.6135 41.6882M23.2425 31.2829H19.568C19.4982 31.2829 19.4312 31.2552 19.3818 31.2058C19.3324 31.1564 19.3047 31.0894 19.3047 31.0196V27.3451C19.3047 27.2752 19.3324 27.2083 19.3818 27.1589C19.4312 27.1095 19.4982 27.0818 19.568 27.0818H23.2425C23.3124 27.0818 23.3793 27.1095 23.4287 27.1589C23.4781 27.2083 23.5058 27.2752 23.5058 27.3451V31.0196C23.5058 31.0894 23.4781 31.1564 23.4287 31.2058C23.3793 31.2552 23.3124 31.2829 23.2425 31.2829ZM30.2795 31.2829H26.605C26.5351 31.2829 26.4682 31.2552 26.4188 31.2058C26.3694 31.1564 26.3417 31.0894 26.3417 31.0196V27.3451C26.3417 27.2752 26.3694 27.2083 26.4188 27.1589C26.4682 27.1095 26.5351 27.0818 26.605 27.0818H30.2795C30.3494 27.0818 30.4163 27.1095 30.4657 27.1589C30.5151 27.2083 30.5428 27.2752 30.5428 27.3451V31.0196C30.5428 31.0894 30.5151 31.1564 30.4657 31.2058C30.4163 31.2552 30.3494 31.2829 30.2795 31.2829ZM37.3165 31.2829H33.642C33.5721 31.2829 33.5052 31.2552 33.4558 31.2058C33.4064 31.1564 33.3787 31.0894 33.3787 31.0196V27.3451C33.3787 27.2752 33.4064 27.2083 33.4558 27.1589C33.5052 27.1095 33.5721 27.0818 33.642 27.0818H37.3165C37.3863 27.0818 37.4533 27.1095 37.5027 27.1589C37.5521 27.2083 37.5798 27.2752 37.5798 27.3451V31.0196C37.5798 31.0894 37.5521 31.1564 37.5027 31.2058C37.4533 31.2552 37.3863 31.2829 37.3165 31.2829ZM23.2425 38.5299H19.568C19.4982 38.5299 19.4312 38.5022 19.3818 38.4528C19.3324 38.4034 19.3047 38.3365 19.3047 38.2666V34.5921C19.3047 34.5222 19.3324 34.4553 19.3818 34.4059C19.4312 34.3565 19.4982 34.3288 19.568 34.3288H23.2425C23.3124 34.3288 23.3793 34.3565 23.4287 34.4059C23.4781 34.4553 23.5058 34.5222 23.5058 34.5921V38.2666C23.5058 38.3365 23.4781 38.4034 23.4287 38.4528C23.3793 38.5022 23.3124 38.5299 23.2425 38.5299ZM30.2795 38.5299H26.605C26.5351 38.5299 26.4682 38.5022 26.4188 38.4528C26.3694 38.4034 26.3417 38.3365 26.3417 38.2666V34.5921C26.3417 34.5222 26.3694 34.4553 26.4188 34.4059C26.4682 34.3565 26.5351 34.3288 26.605 34.3288H30.2795C30.3494 34.3288 30.4163 34.3565 30.4657 34.4059C30.5151 34.4553 30.5428 34.5222 30.5428 34.5921V38.2666C30.5428 38.3365 30.5151 38.4034 30.4657 38.4528C30.4163 38.5022 30.3494 38.5299 30.2795 38.5299ZM37.3165 38.5299H33.642C33.5721 38.5299 33.5052 38.5022 33.4558 38.4528C33.4064 38.4034 33.3787 38.3365 33.3787 38.2666V34.5921C33.3787 34.5222 33.4064 34.4553 33.4558 34.4059C33.5052 34.3565 33.5721 34.3288 33.642 34.3288H37.3165C37.3863 34.3288 37.4533 34.3565 37.5027 34.4059C37.5521 34.4553 37.5798 34.5222 37.5798 34.5921V38.2666C37.5798 38.3365 37.5521 38.4034 37.5027 38.4528C37.4533 38.5022 37.3863 38.5299 37.3165 38.5299Z" stroke="black" stroke-miterlimit="10" stroke-linecap="round" stroke-linejoin="round"/>
<path d="M23.2425 31.2829H19.568C19.4982 31.2829 19.4312 31.2552 19.3818 31.2058C19.3324 31.1564 19.3047 31.0895 19.3047 31.0196V27.3451C19.3047 27.2753 19.3324 27.2083 19.3818 27.1589C19.4312 27.1095 19.4982 27.0818 19.568 27.0818H23.2425C23.3124 27.0818 23.3793 27.1095 23.4287 27.1589C23.4781 27.2083 23.5058 27.2753 23.5058 27.3451V31.0196C23.5058 31.0895 23.4781 31.1564 23.4287 31.2058C23.3793 31.2552 23.3124 31.2829 23.2425 31.2829ZM30.2795 31.2829H26.605C26.5351 31.2829 26.4682 31.2552 26.4188 31.2058C26.3694 31.1564 26.3417 31.0895 26.3417 31.0196V27.3451C26.3417 27.2753 26.3694 27.2083 26.4188 27.1589C26.4682 27.1095 26.5351 27.0818 26.605 27.0818H30.2795C30.3494 27.0818 30.4163 27.1095 30.4657 27.1589C30.5151 27.2083 30.5428 27.2753 30.5428 27.3451V31.0196C30.5428 31.0895 30.5151 31.1564 30.4657 31.2058C30.4163 31.2552 30.3494 31.2829 30.2795 31.2829ZM37.3165 31.2829H33.642C33.5721 31.2829 33.5052 31.2552 33.4558 31.2058C33.4064 31.1564 33.3787 31.0895 33.3787 31.0196V27.3451C33.3787 27.2753 33.4064 27.2083 33.4558 27.1589C33.5052 27.1095 33.5721 27.0818 33.642 27.0818H37.3165C37.3863 27.0818 37.4533 27.1095 37.5027 27.1589C37.5521 27.2083 37.5798 27.2753 37.5798 27.3451V31.0196C37.5798 31.0895 37.5521 31.1564 37.5027 31.2058C37.4533 31.2552 37.3863 31.2829 37.3165 31.2829ZM23.2425 38.53H19.568C19.4982 38.53 19.4312 38.5022 19.3818 38.4528C19.3324 38.4035 19.3047 38.3365 19.3047 38.2667V34.5921C19.3047 34.5223 19.3324 34.4553 19.3818 34.4059C19.4312 34.3565 19.4982 34.3288 19.568 34.3288H23.2425C23.3124 34.3288 23.3793 34.3565 23.4287 34.4059C23.4781 34.4553 23.5058 34.5223 23.5058 34.5921V38.2667C23.5058 38.3365 23.4781 38.4035 23.4287 38.4528C23.3793 38.5022 23.3124 38.53 23.2425 38.53ZM30.2795 38.53H26.605C26.5351 38.53 26.4682 38.5022 26.4188 38.4528C26.3694 38.4035 26.3417 38.3365 26.3417 38.2667V34.5921C26.3417 34.5223 26.3694 34.4553 26.4188 34.4059C26.4682 34.3565 26.5351 34.3288 26.605 34.3288H30.2795C30.3494 34.3288 30.4163 34.3565 30.4657 34.4059C30.5151 34.4553 30.5428 34.5223 30.5428 34.5921V38.2667C30.5428 38.3365 30.5151 38.4035 30.4657 38.4528C30.4163 38.5022 30.3494 38.53 30.2795 38.53ZM37.3165 38.53H33.642C33.5721 38.53 33.5052 38.5022 33.4558 38.4528C33.4064 38.4035 33.3787 38.3365 33.3787 38.2667V34.5921C33.3787 34.5223 33.4064 34.4553 33.4558 34.4059C33.5052 34.3565 33.5721 34.3288 33.642 34.3288H37.3165C37.3863 34.3288 37.4533 34.3565 37.5027 34.4059C37.5521 34.4553 37.5798 34.5223 37.5798 34.5921V38.2667C37.5798 38.3365 37.5521 38.4035 37.5027 38.4528C37.4533 38.5022 37.3863 38.53 37.3165 38.53ZM30.2795 45.777H26.605C26.5351 45.777 26.4682 45.7492 26.4188 45.6999C26.3694 45.6505 26.3417 45.5835 26.3417 45.5137V41.8391C26.3417 41.7693 26.3694 41.7023 26.4188 41.6529C26.4682 41.6036 26.5351 41.5758 26.605 41.5758H30.2795C30.3494 41.5758 30.4163 41.6036 30.4657 41.6529C30.5151 41.7023 30.5428 41.7693 30.5428 41.8391V45.5137C30.5428 45.5835 30.5151 45.6505 30.4657 45.6999C30.4163 45.7492 30.3494 45.777 30.2795 45.777ZM37.3165 45.777H33.642C33.5721 45.777 33.5052 45.7492 33.4558 45.6999C33.4064 45.6505 33.3787 45.5835 33.3787 45.5137V41.8391C33.3787 41.7693 33.4064 41.7023 33.4558 41.6529C33.5052 41.6036 33.5721 41.5758 33.642 41.5758H37.3165C37.3863 41.5758 37.4533 41.6036 37.5027 41.6529C37.5521 41.7023 37.5798 41.7693 37.5798 41.8391V45.5137C37.5798 45.5835 37.5521 45.6505 37.5027 45.6999C37.4533 45.7492 37.3863 45.777 37.3165 45.777Z" stroke="black" stroke-miterlimit="10" stroke-linecap="round" stroke-linejoin="round"/>
</svg>
