<svg width="22" height="22" viewBox="0 0 22 22" fill="none" xmlns="http://www.w3.org/2000/svg">
<path d="M8.47911 7.33339H1.60411C0.719555 7.33339 0 6.61384 0 5.72911V1.60411C0 0.719555 0.719555 0 1.60411 0H8.47911C9.36384 0 10.0834 0.719555 10.0834 1.60411V5.72911C10.0834 6.61384 9.36384 7.33339 8.47911 7.33339ZM1.60411 1.375C1.54336 1.37505 1.48511 1.3992 1.44215 1.44215C1.3992 1.48511 1.37505 1.54336 1.375 1.60411V5.72911C1.37501 5.78989 1.39915 5.84817 1.44211 5.89116C1.48507 5.93415 1.54333 5.95833 1.60411 5.95839H8.47911C8.53991 5.95837 8.59822 5.9342 8.64121 5.89121C8.6842 5.84822 8.70837 5.78991 8.70839 5.72911V1.60411C8.70833 1.54333 8.68415 1.48507 8.64116 1.44211C8.59817 1.39915 8.53989 1.37501 8.47911 1.375H1.60411ZM8.47911 22H1.60411C0.719555 22 0 21.2804 0 20.3959V10.7709C0 9.88616 0.719555 9.16661 1.60411 9.16661H8.47911C9.36384 9.16661 10.0834 9.88616 10.0834 10.7709V20.3959C10.0834 21.2804 9.36384 22 8.47911 22ZM1.60411 10.5416C1.54333 10.5417 1.48507 10.5658 1.44211 10.6088C1.39915 10.6518 1.37501 10.7101 1.375 10.7709V20.3959C1.37505 20.4566 1.3992 20.5149 1.44215 20.5578C1.48511 20.6008 1.54336 20.625 1.60411 20.625H8.47911C8.53989 20.625 8.59817 20.6009 8.64116 20.5579C8.68415 20.5149 8.70833 20.4567 8.70839 20.3959V10.7709C8.70837 10.7101 8.6842 10.6518 8.64121 10.6088C8.59822 10.5658 8.53991 10.5416 8.47911 10.5416H1.60411ZM20.3959 22H13.5209C12.6362 22 11.9166 21.2804 11.9166 20.3959V16.2709C11.9166 15.3862 12.6362 14.6666 13.5209 14.6666H20.3959C21.2804 14.6666 22 15.3862 22 16.2709V20.3959C22 21.2804 21.2804 22 20.3959 22ZM13.5209 16.0416C13.4601 16.0416 13.4018 16.0658 13.3588 16.1088C13.3158 16.1518 13.2916 16.2101 13.2916 16.2709V20.3959C13.2917 20.4567 13.3158 20.5149 13.3588 20.5579C13.4018 20.6009 13.4601 20.625 13.5209 20.625H20.3959C20.4566 20.625 20.5149 20.6008 20.5578 20.5578C20.6008 20.5149 20.625 20.4566 20.625 20.3959V16.2709C20.625 16.2101 20.6009 16.1518 20.5579 16.1088C20.5149 16.0658 20.4567 16.0417 20.3959 16.0416H13.5209ZM20.3959 12.8334H13.5209C12.6362 12.8334 11.9166 12.1138 11.9166 11.2291V1.60411C11.9166 0.719555 12.6362 0 13.5209 0H20.3959C21.2804 0 22 0.719555 22 1.60411V11.2291C22 12.1138 21.2804 12.8334 20.3959 12.8334ZM13.5209 1.375C13.4601 1.37501 13.4018 1.39915 13.3588 1.44211C13.3158 1.48507 13.2917 1.54333 13.2916 1.60411V11.2291C13.2916 11.2899 13.3158 11.3482 13.3588 11.3912C13.4018 11.4342 13.4601 11.4584 13.5209 11.4584H20.3959C20.4567 11.4583 20.5149 11.4342 20.5579 11.3912C20.6009 11.3482 20.625 11.2899 20.625 11.2291V1.60411C20.625 1.54336 20.6008 1.48511 20.5578 1.44215C20.5149 1.3992 20.4566 1.37505 20.3959 1.375H13.5209Z" fill="white"/>
</svg>
