<svg width="22" height="22" viewBox="0 0 22 22" fill="none" xmlns="http://www.w3.org/2000/svg">
<mask id="mask0_1215_687" style="mask-type:luminance" maskUnits="userSpaceOnUse" x="0" y="0" width="22" height="22">
<path d="M0.5 21.5V0.5H21.5V21.5H0.5Z" fill="white" stroke="white"/>
</mask>
<g mask="url(#mask0_1215_687)">
<path d="M6.6401 2.77648C7.13654 2.11455 7.78027 1.5773 8.52032 1.20728C9.26037 0.837256 10.0764 0.644619 10.9038 0.644626H11.0971C11.9245 0.644619 12.7405 0.837256 13.4806 1.20728C14.2206 1.57731 14.8644 2.11455 15.3608 2.77648L15.361 2.77665C15.6673 3.18523 15.833 3.68215 15.833 4.19286V6.85786C15.833 9.52687 13.6694 11.6904 11.0004 11.6904C8.33148 11.6904 6.16788 9.52687 6.16788 6.85786V4.19286C6.16789 3.68215 6.33355 3.18522 6.63997 2.77665L6.6401 2.77648Z" stroke="white" stroke-miterlimit="10" stroke-linecap="round" stroke-linejoin="round"/>
<path d="M15.833 6.16699H15.8329C15.3909 6.16697 14.9671 5.9914 14.6545 5.67891L13.7619 4.78628H13.7618C12.9045 5.21499 11.959 5.43819 11.0004 5.43819C10.0419 5.43819 9.09643 5.21499 8.23906 4.78628H8.23901L7.34638 5.67891C7.03382 5.99141 6.60994 6.16698 6.16796 6.16699H6.16788" stroke="white" stroke-miterlimit="10" stroke-linecap="round" stroke-linejoin="round"/>
<path d="M0.644535 21.3555L2.09757 16.9963C2.28608 16.4308 2.61781 15.9238 3.06046 15.5245C3.50311 15.1253 4.0416 14.8475 4.62348 14.7182L8.92891 13.7615L11 17.2133L13.0711 13.7615L17.3765 14.7182C17.9584 14.8475 18.4969 15.1253 18.9395 15.5245C19.3822 15.9238 19.7139 16.4308 19.9024 16.9963L21.3555 21.3555" stroke="white" stroke-miterlimit="10" stroke-linecap="round" stroke-linejoin="round"/>
<path d="M13.0713 13.7617V11.3321" stroke="white" stroke-miterlimit="10" stroke-linecap="round" stroke-linejoin="round"/>
<path d="M8.92871 13.7617V11.3321" stroke="white" stroke-miterlimit="10" stroke-linecap="round" stroke-linejoin="round"/>
<path d="M7.5479 21.3555H8.23828V19.2844C8.23828 19.0124 8.18471 18.7431 8.08063 18.4918C7.97654 18.2405 7.82398 18.0122 7.63165 17.8199C7.43934 17.6276 7.21103 17.475 6.95976 17.3709C6.70848 17.2668 6.43917 17.2133 6.16719 17.2133C5.02336 17.2133 4.09609 18.1405 4.09609 19.2844V21.3555H4.78643" stroke="white" stroke-miterlimit="10" stroke-linecap="round" stroke-linejoin="round"/>
<path d="M6.16699 16.5225V14.3747" stroke="white" stroke-miterlimit="10" stroke-linecap="round" stroke-linejoin="round"/>
<path d="M15.8322 18.594C16.5942 18.594 17.2129 19.2127 17.2129 19.9747C17.2129 20.7368 16.5942 21.3555 15.8322 21.3555C15.0701 21.3555 14.4515 20.7368 14.4515 19.9747C14.4515 19.2127 15.0701 18.594 15.8322 18.594ZM15.8322 18.594V14.3751" stroke="white" stroke-miterlimit="10" stroke-linecap="round" stroke-linejoin="round"/>
</g>
</svg>
