<svg width="68" height="68" viewBox="0 0 68 68" fill="none" xmlns="http://www.w3.org/2000/svg">
<rect width="67.027" height="67.027" rx="4" fill="#54BFC6" fill-opacity="0.4"/>
<path d="M23.7124 28.2349H24.2772V28.6271C24.2772 30.7563 25.8538 33.1758 27.8053 34.3646L27.8051 36.3323C27.8052 36.4223 27.7763 36.5099 27.7229 36.5823C27.6694 36.6547 27.5942 36.7081 27.5081 36.7346L25.0258 38.0575L25.3501 38.3824C28.5606 41.5977 33.814 41.5976 37.0244 38.3822L37.3483 38.0578L34.8642 36.7346C34.7782 36.7081 34.703 36.6547 34.6495 36.5823C34.5961 36.5099 34.5673 36.4223 34.5672 36.3323L34.5671 34.3487C36.5196 33.1594 38.0955 30.7422 38.0955 28.612V28.2349H38.6602C39.1951 28.2349 39.6286 27.8014 39.6286 27.2665V25.37C39.6282 25.2313 39.5728 25.0984 39.4745 25.0004C39.3763 24.9025 39.2432 24.8475 39.1045 24.8475H23.2682C23.1295 24.8475 22.9964 24.9025 22.8982 25.0004C22.7999 25.0984 22.7446 25.2313 22.7441 25.37V27.2666C22.7441 27.8014 23.1776 28.2349 23.7124 28.2349Z" fill="#FED9A8"/>
<path d="M31.085 52.2963C31.1034 52.3304 31.1348 52.3492 31.1682 52.3541C31.1741 52.355 31.1801 52.3545 31.1861 52.3545C31.1921 52.3545 31.1982 52.355 31.2041 52.3541C31.2215 52.3517 31.2382 52.3452 31.2526 52.3352C31.2671 52.3251 31.279 52.3118 31.2873 52.2963L37.7728 36.9694L36.2563 36.4335C36.138 36.3917 36.0114 36.3784 35.887 36.3948C35.7625 36.4111 35.6437 36.4566 35.5401 36.5276L31.1862 39.512L26.8323 36.5276C26.7288 36.4566 26.6099 36.4111 26.4855 36.3948C26.361 36.3784 26.2344 36.3917 26.1161 36.4335L24.5996 36.9694L31.085 52.2963Z" fill="#10C4C4"/>
<path d="M32.0222 42.7614H30.3511L28.8105 52.8228H33.5629L32.0222 42.7614Z" fill="#FF9A1F"/>
<path d="M31.1861 39.512L28.9552 41.2911C28.9276 41.3141 28.909 41.3462 28.9027 41.3816C28.8965 41.417 28.9029 41.4535 28.9209 41.4847L30.0594 43.4528C30.0867 43.5 30.137 43.529 30.1915 43.529H32.1807C32.2352 43.529 32.2856 43.5 32.3129 43.4528L33.4514 41.4847C33.4694 41.4535 33.4758 41.417 33.4695 41.3816C33.4633 41.3462 33.4447 41.3141 33.417 41.2911L31.1861 39.512Z" fill="#FFBF14"/>
<path d="M26.9615 42.8833L28.9744 41.2764L31.1869 39.512L26.833 36.5276C26.7295 36.4566 26.6107 36.4111 26.4862 36.3948C26.3617 36.3784 26.2352 36.3917 26.1168 36.4335L23.9004 37.2167L26.9615 42.8833ZM35.4124 42.8833L33.3994 41.2764L31.1869 39.512L35.5408 36.5276C35.6444 36.4566 35.7632 36.4111 35.8877 36.3948C36.0121 36.3784 36.1387 36.3917 36.2571 36.4335L38.4735 37.2167L35.4124 42.8833Z" fill="#0FB0C0"/>
<path d="M50.5508 51.4986L50.1993 45.0402C50.0541 42.7573 48.5621 40.7818 46.4083 40.0206L37.1145 36.7366L31.2646 50.5613C31.2583 50.5733 31.2491 50.5835 31.238 50.5913C31.2269 50.599 31.2141 50.604 31.2007 50.6058C31.1961 50.6065 31.1915 50.6062 31.1869 50.6062C31.1823 50.6062 31.1777 50.6065 31.1731 50.6058C31.1597 50.6039 31.1469 50.599 31.1357 50.5912C31.1246 50.5835 31.1155 50.5733 31.1091 50.5613L25.2593 36.7366L15.9653 40.0206C13.8115 40.7818 12.3196 42.7573 12.1744 45.0402L11.8229 51.4986C11.7773 52.216 12.3459 52.823 13.0636 52.823H49.31C50.0277 52.8229 50.5964 52.216 50.5508 51.4986Z" fill="#E1EFFB"/>
<path d="M50.5508 51.4986L50.1993 45.0402C50.0541 42.7573 48.5621 40.7818 46.4083 40.0206L37.1145 36.7366L36.5902 37.9756L42.3777 40.0206C44.5315 40.7818 46.0235 42.7573 46.1687 45.0402L46.5063 51.2439H13.0636C12.5096 51.2439 12.0458 50.8817 11.8834 50.3868L11.8229 51.4986C11.7773 52.216 12.3459 52.823 13.0636 52.823H49.31C50.0277 52.8229 50.5964 52.216 50.5508 51.4986Z" fill="#CCDFED"/>
<path d="M24.2773 28.6274C24.2773 31.261 26.6893 34.3395 29.2392 34.9825C30.896 35.4002 31.3808 35.403 33.039 34.9907L33.1148 34.9719C35.6736 34.3356 38.0948 31.2529 38.0948 28.6124V21.2359H24.2773V28.6274Z" fill="#FED9A8"/>
<path d="M25.9697 32.7581C26.6439 33.566 27.4676 34.2393 28.3416 34.6545H33.9972C34.8787 34.2428 35.7102 33.5691 36.3906 32.7581H25.9697Z" fill="#FED9A8"/>
<path d="M39.9741 48.7088C41.3211 48.7088 42.413 47.6169 42.413 46.2699C42.413 44.9229 41.3211 43.831 39.9741 43.831C38.6271 43.831 37.5352 44.9229 37.5352 46.2699C37.5352 47.6169 38.6271 48.7088 39.9741 48.7088Z" fill="#7A88E8"/>
<path d="M39.9751 47.3944C40.5962 47.3944 41.0997 46.891 41.0997 46.2699C41.0997 45.6488 40.5962 45.1454 39.9751 45.1454C39.3541 45.1454 38.8506 45.6488 38.8506 46.2699C38.8506 46.891 39.3541 47.3944 39.9751 47.3944Z" fill="#61AFF6"/>
<path d="M34.1329 21.2359V28.6123C34.1329 30.5521 32.8262 33.5767 31.1182 35.2976C31.661 35.3018 32.2 35.1997 33.0402 34.9907L33.116 34.9719C35.6748 34.3356 38.096 31.2529 38.096 28.6124V21.2359H34.1329Z" fill="#F4C892"/>
<path d="M31.1726 15.3774H28.7789C25.5043 15.3774 22.8496 18.0321 22.8496 21.3067L23.0714 24.8459C23.1001 25.3042 23.6351 25.5564 23.9938 25.2696C24.1579 25.1388 24.2904 24.9726 24.3814 24.7835C24.4724 24.5944 24.5196 24.3872 24.5193 24.1773V21.8333C31.8539 25.2106 35.1628 24.6218 36.6448 23.5601C37.1383 23.2065 37.8258 23.5718 37.8258 24.1788C37.8258 24.6212 38.0313 25.0153 38.3519 25.2714C38.7108 25.558 39.2457 25.3059 39.2743 24.8475L39.4956 21.3068C39.4956 18.0321 36.8409 15.3775 33.5663 15.3775L31.1726 15.3774Z" fill="#FFB125"/>
<path d="M33.5665 15.3774H29.6035C32.8782 15.3774 35.5328 18.032 35.5328 21.3067L35.3544 24.1613C35.8919 24.0103 36.3142 23.797 36.6451 23.56C37.1387 23.2064 37.826 23.5717 37.826 24.1787C37.826 24.621 38.0316 25.0152 38.3522 25.2713C38.7111 25.5579 39.246 25.3057 39.2746 24.8474L39.4958 21.3067C39.4958 18.032 36.8412 15.3774 33.5665 15.3774Z" fill="#FF901D"/>
<path d="M31.1798 51.2066C31.1456 51.2066 31.1127 51.2041 31.0792 51.1988C30.8663 51.1672 30.6847 51.0388 30.5808 50.8465C30.5718 50.8298 30.5636 50.8127 30.5563 50.7953L24.9266 37.491L23.0781 38.1441V39.8847C24.2323 40.1197 25.1008 41.0989 25.1923 42.2705L25.6569 48.2323C25.6674 48.3696 25.6495 48.5076 25.6043 48.6376C25.5592 48.7677 25.4876 48.887 25.3943 48.9882C25.3007 49.0891 25.1872 49.1697 25.0611 49.2249C24.9349 49.28 24.7988 49.3086 24.6611 49.3088H23.866C23.5349 49.3088 23.2656 49.0394 23.2656 48.7083C23.2656 48.3773 23.5349 48.1079 23.866 48.1079H24.4428L23.9951 42.3638C23.9369 41.6175 23.305 41.0329 22.5564 41.0329C21.8078 41.0329 21.1758 41.6176 21.1176 42.3639L20.67 48.108H21.2467C21.5778 48.108 21.8471 48.3774 21.8471 48.7084C21.8471 49.0394 21.5778 49.3088 21.2467 49.3088H20.4516C20.3139 49.3087 20.1778 49.2801 20.0516 49.225C19.9255 49.1698 19.8121 49.0892 19.7185 48.9883C19.6251 48.8871 19.5536 48.7678 19.5084 48.6377C19.4632 48.5077 19.4454 48.3697 19.4559 48.2324L19.9204 42.2706C20.0073 41.1563 20.7931 40.2141 21.8773 39.9225V38.5686L16.1656 40.5868C14.4549 41.1913 13.1848 42.6758 12.8509 44.4611C12.8252 44.5987 12.7523 44.723 12.6446 44.8126C12.537 44.9021 12.4015 44.9512 12.2615 44.9513C12.2244 44.9513 12.187 44.9478 12.1503 44.9408C11.9927 44.9113 11.856 44.8223 11.7654 44.69C11.6748 44.5577 11.6411 44.398 11.6706 44.2403C12.0829 42.0354 13.652 40.2016 15.7656 39.4546L21.8866 37.2917C22.0117 35.2362 23.5082 33.5501 25.533 33.18C24.416 31.8556 23.7429 30.2739 23.6838 28.8344C22.8337 28.8185 22.1445 28.1183 22.1445 27.2665V25.37C22.1453 25.0825 22.2565 24.8063 22.4551 24.5984L22.2512 21.3443C22.2503 21.3318 22.2499 21.3193 22.2499 21.3068C22.2499 17.7063 25.1792 14.777 28.7798 14.777H33.5672C37.1678 14.777 40.097 17.7063 40.097 21.3068C40.097 21.3193 40.0966 21.3317 40.0957 21.3442L39.894 24.5719C40.1097 24.7846 40.2289 25.0671 40.2298 25.3682V27.2665C40.2298 28.1186 39.5404 28.8188 38.69 28.8344C38.6269 30.2761 37.9501 31.8568 36.8307 33.178C38.8294 33.5391 40.3639 35.2639 40.4877 37.2916L42.7891 38.1048C43.1012 38.2151 43.2654 38.5588 43.1551 38.8709C43.1137 38.988 43.037 39.0893 42.9357 39.161C42.8344 39.2327 42.7133 39.2713 42.5892 39.2715C42.521 39.2715 42.4533 39.2598 42.389 39.2371L40.4968 38.5685V43.2766C41.2024 43.3977 41.8423 43.7648 42.303 44.3127C42.7638 44.8606 43.0156 45.554 43.0139 46.2699C43.0139 47.9455 41.6506 49.3089 39.9749 49.3089C38.2993 49.3089 36.936 47.9456 36.936 46.2699C36.936 44.8654 37.9277 43.6219 39.2959 43.3083V38.1442L37.4474 37.491L31.8179 50.7954C31.8102 50.8132 31.8018 50.8307 31.7926 50.8479C31.7811 50.8689 31.7684 50.8893 31.7548 50.909L31.7505 50.9158C31.7403 50.9305 31.7289 50.9441 31.7176 50.9577C31.7176 50.9577 31.7038 50.9752 31.7009 50.9786C31.6942 50.9861 31.687 50.993 31.68 50.9999L31.662 51.0177C31.6565 51.0236 31.6507 51.0293 31.6447 51.0347C31.64 51.0389 31.635 51.0427 31.6301 51.0464L31.6134 51.0598C31.6035 51.0681 31.5933 51.076 31.5829 51.0836C31.5795 51.0859 31.5655 51.0942 31.5655 51.0942C31.5494 51.1052 31.5328 51.1154 31.5158 51.1248L31.5074 51.1287C31.4868 51.1394 31.4657 51.1492 31.4442 51.1581C31.4387 51.1603 31.433 51.1621 31.4273 51.1638L31.4097 51.1697C31.3961 51.1746 31.3824 51.1794 31.3683 51.1832C31.3423 51.1902 31.3159 51.1957 31.2889 51.1997C31.2577 51.2045 31.2263 51.2068 31.1948 51.2066H31.1798ZM31.187 49.2042L32.0789 47.0964L31.6245 44.1294H30.7494L30.295 47.0964L31.187 49.2042ZM39.9748 44.4317C38.9613 44.4317 38.1367 45.2563 38.1367 46.2699C38.1367 47.2834 38.9613 48.108 39.9748 48.108C40.9884 48.108 41.8129 47.2834 41.8129 46.2699C41.8129 45.2563 40.9884 44.4317 39.9748 44.4317ZM32.971 44.9882L34.0102 42.5325L33.6884 42.2757L32.8334 43.7535C32.8206 43.7752 32.8066 43.7962 32.7916 43.8164L32.971 44.9882ZM29.403 44.9882L29.5824 43.8164C29.5673 43.7961 29.5534 43.7751 29.5405 43.7534L28.6856 42.2755L28.3638 42.5323L29.403 44.9882ZM31.9233 42.9285L32.739 41.5183L31.187 40.28L29.6349 41.5183L30.4507 42.9285H31.9233ZM27.8777 41.3837L28.5697 40.8316L28.5818 40.8215L30.1782 39.5485L26.4937 37.0228C26.4681 37.0053 26.4388 36.9941 26.4081 36.99C26.3773 36.986 26.3461 36.9893 26.3169 36.9997L26.061 37.0901L27.8777 41.3837ZM34.4962 41.3837L36.313 37.0901L36.057 36.9996C36.036 36.9922 36.0139 36.9884 35.9917 36.9884C35.9516 36.9884 35.9131 37.0003 35.8804 37.0227L32.1958 39.5484L34.4962 41.3837ZM31.187 38.7841L34.0801 36.801C34.006 36.6559 33.9674 36.4953 33.9674 36.3323L33.9673 35.3231L33.9191 35.3417C33.8549 35.367 33.7903 35.3911 33.7253 35.4141C33.6483 35.4413 33.5707 35.4666 33.4925 35.4901C33.4041 35.5167 33.3303 35.5372 33.2605 35.5546L33.1848 35.5734C33.0754 35.6007 32.9705 35.6262 32.8695 35.65L32.7003 35.6891C32.6592 35.6985 32.551 35.7222 32.551 35.7222C32.5141 35.7302 32.407 35.7525 32.407 35.7525C32.3739 35.7593 32.2724 35.7791 32.2724 35.7791C32.2379 35.7857 32.1454 35.8026 32.1454 35.8026C32.1151 35.808 32.0217 35.8235 32.0217 35.8235C31.9923 35.8283 31.9627 35.8331 31.9337 35.8374C31.9337 35.8374 31.8394 35.8508 31.8157 35.8538C31.8157 35.8538 31.7229 35.8652 31.7 35.8679C31.7 35.8679 31.6094 35.8772 31.5861 35.8792L31.5512 35.8821C31.5229 35.8844 31.4985 35.8865 31.4745 35.8881L31.438 35.8902C31.4133 35.8918 31.3883 35.8933 31.3637 35.8945L31.3277 35.8957C31.3027 35.8967 31.2783 35.8977 31.254 35.8981L31.1511 35.8994C31.1511 35.8994 31.0539 35.8983 31.0352 35.8978L30.9247 35.8938L30.8135 35.8871C30.8135 35.8871 30.7201 35.8796 30.7011 35.8778C30.7011 35.8778 30.6072 35.8683 30.5869 35.866L30.4703 35.8515C30.4703 35.8515 30.3752 35.8381 30.3516 35.8345C30.3516 35.8345 30.2551 35.8191 30.2296 35.8148L30.1044 35.7927L29.9747 35.7678L29.8011 35.7318C29.7659 35.7242 29.6661 35.7021 29.6661 35.7021C29.6308 35.6942 29.5327 35.6715 29.5327 35.6715C29.4923 35.6622 29.3377 35.6251 29.3377 35.6251L29.2551 35.6049C29.2023 35.5919 29.1483 35.5784 29.0932 35.5645C29.0156 35.5447 28.9384 35.523 28.8617 35.4995C28.7323 35.4601 28.6044 35.4157 28.4783 35.3665C28.4783 35.3665 28.4201 35.3441 28.4063 35.3387L28.4062 36.3322C28.4062 36.4955 28.3672 36.6571 28.2936 36.8007L31.187 38.7841ZM26.3372 34.3068C24.8269 34.3068 23.4952 35.3711 23.1601 36.8416L25.9168 35.8674C26.066 35.8147 26.223 35.7878 26.3812 35.788C26.6658 35.788 26.9394 35.8725 27.1727 36.0324L27.2054 36.0549L27.2056 34.6948C27.0254 34.573 26.8504 34.4435 26.6811 34.3068H26.3372ZM35.9928 35.788C36.1519 35.788 36.308 35.8147 36.4571 35.8675L39.214 36.8416C38.8788 35.3711 37.5471 34.3068 36.0367 34.3068H35.6742C35.5107 34.4379 35.3419 34.5622 35.1682 34.6794L35.1684 36.0551L35.2015 36.0324C35.4344 35.8726 35.7103 35.7873 35.9928 35.788ZM28.1308 33.8574C28.1932 33.8955 28.256 33.9319 28.3191 33.9669L28.3377 33.9775C28.4664 34.0484 28.5982 34.1135 28.7327 34.1728L28.7922 34.198C28.8593 34.2265 28.9272 34.2533 28.9957 34.2784C29.0413 34.295 29.0868 34.3106 29.1325 34.3256C29.1325 34.3256 29.1795 34.3412 29.1923 34.3451C29.2637 34.3671 29.3274 34.3852 29.3869 34.4002C29.7678 34.4962 30.0397 34.5585 30.2687 34.6024C30.6104 34.6677 30.8825 34.6968 31.1513 34.6968C31.641 34.6968 32.1419 34.5953 32.8951 34.408L32.9706 34.3892C33.0559 34.3676 33.1404 34.3431 33.224 34.3158C33.2918 34.2939 33.3591 34.2704 33.4258 34.2452C33.4736 34.2271 33.5213 34.2078 33.5689 34.1878L33.6193 34.1668C33.6824 34.1395 33.7452 34.1105 33.8078 34.08L33.8585 34.0544C33.9077 34.0298 33.9564 34.0045 34.0048 33.9783L34.0515 33.9526C34.1088 33.9209 34.1654 33.8882 34.2215 33.8545L34.2417 33.8425C36.0963 32.7135 37.495 30.4649 37.495 28.6124V25.1807C37.43 25.0691 37.3761 24.9514 37.334 24.8292L37.329 24.8134C37.3181 24.7807 37.3079 24.7477 37.2986 24.7144L37.2883 24.6743C37.2713 24.6084 37.2579 24.5416 37.2481 24.4742C37.2481 24.4742 37.2429 24.4382 37.2414 24.4263C37.2382 24.3992 37.2355 24.3719 37.2334 24.3447C37.2334 24.3447 37.2304 24.3122 37.2299 24.3031C37.2272 24.2617 37.2258 24.2203 37.2257 24.1788C37.2257 24.0963 37.1717 24.0562 37.1394 24.0396C37.1185 24.0284 37.0953 24.0224 37.0717 24.022C37.0523 24.022 37.0331 24.0267 37.0158 24.0355C37.0085 24.0391 37.0015 24.0434 36.9949 24.0482C36.6229 24.3148 36.1899 24.5282 35.708 24.6824L35.6673 24.6962C35.6509 24.7013 35.6342 24.7059 35.6174 24.7105L35.5543 24.7287C35.5078 24.7424 35.4614 24.7562 35.4138 24.7686L35.3765 24.7775C34.8208 24.9185 34.1964 24.9901 33.5205 24.9901C33.2673 24.9901 33.0024 24.98 32.7331 24.9602C30.6706 24.8081 28.1093 24.0682 25.1203 22.7611V24.1774C25.1203 24.2179 25.1189 24.2582 25.1164 24.2982L25.1137 24.3311C25.1115 24.3605 25.109 24.3898 25.1055 24.4189L25.1007 24.4534C25.0966 24.4824 25.0923 24.5113 25.087 24.5401L25.0812 24.5698C25.075 24.6007 25.0683 24.6314 25.0607 24.6619L25.0551 24.6836C25.0462 24.7179 25.0363 24.7519 25.0256 24.7855L25.0225 24.7955C24.9845 24.9132 24.9356 25.027 24.8765 25.1355L24.8784 28.6276C24.8784 30.4751 26.2729 32.7213 28.1222 33.8526L28.1223 33.8709L28.1308 33.8574ZM23.3452 27.2665C23.3451 27.358 23.3791 27.4462 23.4405 27.5139C23.502 27.5816 23.5865 27.624 23.6775 27.6328L23.6777 25.9904C23.5655 25.9932 23.4535 25.9798 23.3452 25.9504V27.2665ZM38.6964 27.6327C38.7874 27.624 38.8719 27.5816 38.9334 27.5139C38.9948 27.4462 39.0288 27.358 39.0288 27.2665V25.9443C38.9213 25.9764 38.8097 25.9927 38.6975 25.9929L38.6963 25.9928L38.6964 27.6327ZM37.0727 22.8217C37.0999 22.8217 37.1271 22.8226 37.1543 22.8243L37.1811 22.8267C37.2005 22.8283 37.2199 22.83 37.2394 22.8325L37.2731 22.8375C37.3022 22.8417 37.331 22.8471 37.3596 22.8535C37.3761 22.8571 37.3926 22.8611 37.409 22.8653C37.4206 22.8684 37.4324 22.8715 37.444 22.8749C37.4607 22.8797 37.4774 22.885 37.4939 22.8906L37.527 22.9018C37.545 22.9083 37.5628 22.9154 37.5806 22.9227L37.6086 22.9341C37.6355 22.9457 37.6621 22.9582 37.6885 22.9717C38.1439 23.2057 38.4269 23.6683 38.4269 24.179C38.4269 24.2051 38.4285 24.231 38.4311 24.2568L38.433 24.2738C38.4361 24.2979 38.4392 24.3175 38.4431 24.3369L38.4469 24.3561C38.4524 24.3808 38.4591 24.4051 38.4669 24.4289L38.4698 24.4365C38.4803 24.4667 38.4926 24.4962 38.5064 24.525C38.518 24.548 38.5303 24.5707 38.5431 24.5931C38.5808 24.6549 38.6262 24.7108 38.6783 24.7598L38.8959 21.288C38.8863 18.3605 36.4957 15.9779 33.5669 15.9779H28.7795C25.8508 15.9779 23.4602 18.3605 23.4506 21.2891L23.6681 24.7586C23.7296 24.7 23.7817 24.6322 23.8223 24.5575C23.831 24.5415 23.8368 24.5308 23.8421 24.5197C23.846 24.5115 23.8566 24.4867 23.8566 24.4867C23.8617 24.4743 23.8668 24.4617 23.8713 24.4489C23.8751 24.4388 23.8786 24.429 23.8818 24.4192C23.8887 24.3973 23.895 24.3752 23.9001 24.3525L23.9019 24.3428C23.9072 24.3156 23.9105 24.2958 23.913 24.2758L23.9154 24.254C23.9178 24.2287 23.9195 24.2032 23.9195 24.1775V21.8333C23.9193 21.7325 23.9445 21.6333 23.9929 21.5449C24.0413 21.4565 24.1112 21.3817 24.1962 21.3276C24.2928 21.2656 24.4052 21.2327 24.5199 21.2328C24.6072 21.2328 24.6918 21.2513 24.7711 21.2878C29.2637 23.3566 32.0284 23.7908 33.5564 23.7908C34.1185 23.7908 34.6305 23.7329 35.078 23.6186C35.5468 23.4989 35.9566 23.315 36.2958 23.0719C36.3232 23.0523 36.3514 23.0339 36.3799 23.0165L36.4062 23.0016C36.4263 22.9899 36.4465 22.9786 36.467 22.968C36.4747 22.9641 36.4999 22.9522 36.4999 22.9522C36.5188 22.9432 36.5377 22.9345 36.5568 22.9264C36.5679 22.9217 36.579 22.9174 36.5901 22.913C36.6406 22.8934 36.6923 22.8769 36.7448 22.8635C36.7607 22.8595 36.7706 22.8569 36.7807 22.8546C36.8016 22.8499 36.8228 22.846 36.8439 22.8423L36.8763 22.8366C36.9016 22.8328 36.9271 22.83 36.9525 22.8277L36.9728 22.8256C37.0054 22.8231 37.0381 22.8219 37.0709 22.8218L37.0727 22.8217Z" fill="black"/>
<path d="M13.0633 53.4233C12.8115 53.4229 12.5624 53.3711 12.3314 53.271C12.1003 53.1709 11.8921 53.0247 11.7196 52.8413C11.5472 52.6571 11.4143 52.4395 11.3289 52.2021C11.2436 51.9646 11.2077 51.7122 11.2233 51.4604L11.3674 48.8124C11.3848 48.4939 11.6472 48.2445 11.9648 48.2445C11.9763 48.2445 11.988 48.2448 11.9997 48.2455C12.3301 48.2635 12.5844 48.5471 12.5665 48.8776L12.4221 51.5312C12.4105 51.7148 12.4719 51.8882 12.5951 52.0196C12.6549 52.0839 12.7273 52.1351 12.8079 52.17C12.8885 52.2049 12.9754 52.2228 13.0632 52.2224H17.2545V45.9877C17.2545 45.6566 17.5238 45.3872 17.8549 45.3872C18.186 45.3872 18.4553 45.6566 18.4553 45.9877V52.2224H43.8409V45.9877C43.8409 45.6566 44.1102 45.3872 44.4413 45.3872C44.7724 45.3872 45.0417 45.6566 45.0417 45.9877V52.2224H49.3094C49.3972 52.2228 49.4842 52.2049 49.5647 52.17C49.6453 52.1351 49.7178 52.0839 49.7776 52.0196C49.8382 51.9555 49.885 51.8794 49.9148 51.7963C49.9447 51.7132 49.957 51.6248 49.951 51.5367L49.5991 45.0728C49.4829 43.2449 48.3877 41.6113 46.7408 40.8098C46.6698 40.7755 46.6063 40.7274 46.554 40.6684C46.5017 40.6094 46.4616 40.5406 46.4361 40.4659C46.4101 40.3915 46.3992 40.3126 46.4039 40.2338C46.4086 40.1551 46.429 40.0781 46.4637 40.0072C46.5126 39.9056 46.5893 39.82 46.685 39.7602C46.7806 39.7004 46.8912 39.6689 47.004 39.6694C47.0954 39.6694 47.1836 39.6899 47.2663 39.7301C49.3008 40.7203 50.6541 42.7404 50.7978 45.0021L51.1497 51.4659C51.1817 51.9696 51.0007 52.471 50.6531 52.8414C50.4805 53.0248 50.2723 53.171 50.0413 53.2711C49.8102 53.3711 49.5612 53.423 49.3094 53.4234L13.0633 53.4233Z" fill="black"/>
</svg>
