<svg width="24" height="24" viewBox="0 0 24 24" fill="none" xmlns="http://www.w3.org/2000/svg">
<path d="M21 18.9999H3C2.73478 18.9999 2.48043 19.1053 2.29289 19.2928C2.10536 19.4804 2 19.7347 2 19.9999C2 20.2652 2.10536 20.5195 2.29289 20.707C2.48043 20.8946 2.73478 20.9999 3 20.9999H21C21.2652 20.9999 21.5196 20.8946 21.7071 20.707C21.8946 20.5195 22 20.2652 22 19.9999C22 19.7347 21.8946 19.4804 21.7071 19.2928C21.5196 19.1053 21.2652 18.9999 21 18.9999Z" fill="#2D9CDB"/>
<path d="M12.0002 2.00006C11.735 2.00006 11.4806 2.10542 11.2931 2.29295C11.1055 2.48049 11.0002 2.73484 11.0002 3.00006V13.5901L7.71019 10.2901C7.52188 10.1018 7.26649 9.99597 7.00019 9.99597C6.73388 9.99597 6.47849 10.1018 6.29019 10.2901C6.10188 10.4784 5.99609 10.7338 5.99609 11.0001C5.99609 11.2664 6.10188 11.5218 6.29019 11.7101L11.2902 16.7101C11.3831 16.8038 11.4937 16.8782 11.6156 16.929C11.7375 16.9797 11.8682 17.0059 12.0002 17.0059C12.1322 17.0059 12.2629 16.9797 12.3848 16.929C12.5066 16.8782 12.6172 16.8038 12.7102 16.7101L17.7102 11.7101C17.8034 11.6168 17.8774 11.5061 17.9278 11.3843C17.9783 11.2625 18.0043 11.1319 18.0043 11.0001C18.0043 10.8682 17.9783 10.7376 17.9278 10.6158C17.8774 10.494 17.8034 10.3833 17.7102 10.2901C17.6169 10.1968 17.5063 10.1229 17.3844 10.0724C17.2626 10.0219 17.132 9.99597 17.0002 9.99597C16.8683 9.99597 16.7378 10.0219 16.6159 10.0724C16.4941 10.1229 16.3834 10.1968 16.2902 10.2901L13.0002 13.5901V3.00006C13.0002 2.73484 12.8948 2.48049 12.7073 2.29295C12.5198 2.10542 12.2654 2.00006 12.0002 2.00006Z" fill="#2D9CDB"/>
</svg>
