<svg width="17" height="17" viewBox="0 0 17 17" fill="none" xmlns="http://www.w3.org/2000/svg">
<path d="M14.8751 13.458H2.12508C1.93722 13.458 1.75705 13.5326 1.62421 13.6655C1.49138 13.7983 1.41675 13.9785 1.41675 14.1663C1.41675 14.3542 1.49138 14.5344 1.62421 14.6672C1.75705 14.8 1.93722 14.8747 2.12508 14.8747H14.8751C15.0629 14.8747 15.2431 14.8 15.3759 14.6672C15.5088 14.5344 15.5834 14.3542 15.5834 14.1663C15.5834 13.9785 15.5088 13.7983 15.3759 13.6655C15.2431 13.5326 15.0629 13.458 14.8751 13.458Z" fill="#2D9CDB"/>
<path d="M8.49997 1.41699C8.31211 1.41699 8.13194 1.49162 7.9991 1.62446C7.86626 1.7573 7.79163 1.93746 7.79163 2.12533V9.62658L5.46122 7.28908C5.32784 7.15569 5.14693 7.08076 4.9583 7.08076C4.76967 7.08076 4.58877 7.15569 4.45539 7.28908C4.322 7.42246 4.24707 7.60336 4.24707 7.79199C4.24707 7.98062 4.322 8.16153 4.45539 8.29491L7.99705 11.8366C8.0629 11.903 8.14124 11.9557 8.22756 11.9916C8.31388 12.0276 8.40646 12.0461 8.49997 12.0461C8.59348 12.0461 8.68606 12.0276 8.77238 11.9916C8.85869 11.9557 8.93704 11.903 9.00288 11.8366L12.5445 8.29491C12.6106 8.22887 12.663 8.15046 12.6987 8.06417C12.7345 7.97788 12.7529 7.88539 12.7529 7.79199C12.7529 7.69859 12.7345 7.60611 12.6987 7.51982C12.663 7.43353 12.6106 7.35512 12.5445 7.28908C12.4785 7.22303 12.4001 7.17064 12.3138 7.1349C12.2275 7.09916 12.135 7.08076 12.0416 7.08076C11.9482 7.08076 11.8557 7.09916 11.7695 7.1349C11.6832 7.17064 11.6048 7.22303 11.5387 7.28908L9.2083 9.62658V2.12533C9.2083 1.93746 9.13367 1.7573 9.00083 1.62446C8.868 1.49162 8.68783 1.41699 8.49997 1.41699V1.41699Z" fill="#2D9CDB"/>
</svg>
