<svg width="15" height="15" viewBox="0 0 15 15" fill="none" xmlns="http://www.w3.org/2000/svg">
<path fill-rule="evenodd" clip-rule="evenodd" d="M7.5 1.36364C6.69416 1.36364 5.89621 1.52236 5.15172 1.83074C4.40722 2.13912 3.73075 2.59112 3.16094 3.16094C2.59112 3.73075 2.13912 4.40722 1.83074 5.15172C1.52236 5.89621 1.36364 6.69416 1.36364 7.5C1.36364 8.30584 1.52236 9.10379 1.83074 9.84829C2.13912 10.5928 2.59112 11.2693 3.16094 11.8391C3.73075 12.4089 4.40722 12.8609 5.15172 13.1693C5.89621 13.4776 6.69416 13.6364 7.5 13.6364C9.12747 13.6364 10.6883 12.9899 11.8391 11.8391C12.9899 10.6883 13.6364 9.12747 13.6364 7.5C13.6364 5.87254 12.9899 4.31173 11.8391 3.16094C10.6883 2.01014 9.12747 1.36364 7.5 1.36364ZM0 7.5C0 3.35796 3.35796 0 7.5 0C11.642 0 15 3.35796 15 7.5C15 11.642 11.642 15 7.5 15C3.35796 15 0 11.642 0 7.5ZM7.5 6.13636C7.68083 6.13636 7.85425 6.2082 7.98212 6.33606C8.10999 6.46393 8.18182 6.63735 8.18182 6.81818V10.9091C8.18182 11.0899 8.10999 11.2633 7.98212 11.3912C7.85425 11.5191 7.68083 11.5909 7.5 11.5909C7.31917 11.5909 7.14575 11.5191 7.01788 11.3912C6.89002 11.2633 6.81818 11.0899 6.81818 10.9091V6.81818C6.81818 6.63735 6.89002 6.46393 7.01788 6.33606C7.14575 6.2082 7.31917 6.13636 7.5 6.13636ZM7.5 4.77273C7.68083 4.77273 7.85425 4.70089 7.98212 4.57303C8.10999 4.44516 8.18182 4.27174 8.18182 4.09091C8.18182 3.91008 8.10999 3.73666 7.98212 3.60879C7.85425 3.48093 7.68083 3.40909 7.5 3.40909C7.31917 3.40909 7.14575 3.48093 7.01788 3.60879C6.89002 3.73666 6.81818 3.91008 6.81818 4.09091C6.81818 4.27174 6.89002 4.44516 7.01788 4.57303C7.14575 4.70089 7.31917 4.77273 7.5 4.77273Z" fill="#8BC727"/>
</svg>
