<svg width="22" height="22" viewBox="0 0 22 22" fill="none" xmlns="http://www.w3.org/2000/svg">
<mask id="path-1-inside-1_977_630" fill="white">
<path d="M7.98654 0C9.38533 0 10.514 -1.52477e-08 11.4011 0.119721C12.3221 0.242512 13.0977 0.508558 13.7137 1.12353C14.2499 1.66074 14.5221 2.32074 14.6643 3.09637C14.8025 3.85051 14.8291 4.77246 14.8352 5.87963C14.8363 6.08317 14.7565 6.2788 14.6133 6.42349C14.4702 6.56818 14.2754 6.65008 14.0718 6.65116C13.8683 6.65225 13.6727 6.57243 13.528 6.42928C13.3833 6.28612 13.3014 6.09135 13.3003 5.88781C13.2942 4.7694 13.2655 3.97637 13.155 3.37367C13.0476 2.79451 12.8767 2.45786 12.628 2.20921C12.3446 1.92577 11.9465 1.74158 11.1955 1.64028C10.4229 1.53693 9.39864 1.53488 7.93026 1.53488H6.90701C5.43761 1.53488 4.41333 1.53693 3.64078 1.64028C2.88971 1.74158 2.49268 1.92679 2.20822 2.20921C1.92375 2.49163 1.74161 2.88967 1.64031 3.64177C1.53594 4.4133 1.53491 5.4386 1.53491 6.90698V15.093C1.53491 16.5614 1.53594 17.5867 1.64031 18.3593C1.74161 19.1103 1.9258 19.5073 2.20924 19.7908C2.49268 20.0742 2.88971 20.2584 3.64078 20.3597C4.41333 20.4631 5.43761 20.4651 6.90701 20.4651H7.93026C9.39864 20.4651 10.4229 20.4631 11.1965 20.3597C11.9465 20.2584 12.3446 20.0732 12.628 19.7908C12.8767 19.5421 13.0476 19.2055 13.155 18.6263C13.2655 18.0236 13.2942 17.2306 13.3003 16.1122C13.3008 16.0114 13.3212 15.9117 13.3603 15.8188C13.3994 15.7259 13.4563 15.6416 13.528 15.5707C13.5996 15.4998 13.6845 15.4438 13.7778 15.4057C13.8712 15.3676 13.9711 15.3483 14.0718 15.3488C14.1726 15.3494 14.2723 15.3698 14.3652 15.4088C14.4581 15.4479 14.5424 15.5049 14.6133 15.5765C14.6842 15.6482 14.7403 15.7331 14.7783 15.8264C14.8164 15.9197 14.8357 16.0196 14.8352 16.1204C14.8291 17.2275 14.8025 18.1495 14.6643 18.9036C14.5211 19.6793 14.2499 20.3393 13.7127 20.8765C13.0977 21.4925 12.3211 21.7565 11.4001 21.8813C10.514 22 9.38533 22 7.98654 22H6.85073C5.45091 22 4.32329 22 3.43612 21.8803C2.51519 21.7575 1.73957 21.4914 1.12357 20.8765C0.507565 20.2605 0.243566 19.4848 0.118728 18.5639C3.05176e-05 17.6767 3.14713e-05 16.5481 3.14713e-05 15.1493V6.8507C3.14713e-05 5.45191 3.05176e-05 4.32326 0.118728 3.43609C0.242542 2.51516 0.507565 1.73953 1.12357 1.12353C1.73957 0.507535 2.51519 0.243535 3.43612 0.119721C4.32329 -1.52477e-08 5.45194 0 6.85073 0H7.98654Z"/>
</mask>
<path d="M7.98654 0C9.38533 0 10.514 -1.52477e-08 11.4011 0.119721C12.3221 0.242512 13.0977 0.508558 13.7137 1.12353C14.2499 1.66074 14.5221 2.32074 14.6643 3.09637C14.8025 3.85051 14.8291 4.77246 14.8352 5.87963C14.8363 6.08317 14.7565 6.2788 14.6133 6.42349C14.4702 6.56818 14.2754 6.65008 14.0718 6.65116C13.8683 6.65225 13.6727 6.57243 13.528 6.42928C13.3833 6.28612 13.3014 6.09135 13.3003 5.88781C13.2942 4.7694 13.2655 3.97637 13.155 3.37367C13.0476 2.79451 12.8767 2.45786 12.628 2.20921C12.3446 1.92577 11.9465 1.74158 11.1955 1.64028C10.4229 1.53693 9.39864 1.53488 7.93026 1.53488H6.90701C5.43761 1.53488 4.41333 1.53693 3.64078 1.64028C2.88971 1.74158 2.49268 1.92679 2.20822 2.20921C1.92375 2.49163 1.74161 2.88967 1.64031 3.64177C1.53594 4.4133 1.53491 5.4386 1.53491 6.90698V15.093C1.53491 16.5614 1.53594 17.5867 1.64031 18.3593C1.74161 19.1103 1.9258 19.5073 2.20924 19.7908C2.49268 20.0742 2.88971 20.2584 3.64078 20.3597C4.41333 20.4631 5.43761 20.4651 6.90701 20.4651H7.93026C9.39864 20.4651 10.4229 20.4631 11.1965 20.3597C11.9465 20.2584 12.3446 20.0732 12.628 19.7908C12.8767 19.5421 13.0476 19.2055 13.155 18.6263C13.2655 18.0236 13.2942 17.2306 13.3003 16.1122C13.3008 16.0114 13.3212 15.9117 13.3603 15.8188C13.3994 15.7259 13.4563 15.6416 13.528 15.5707C13.5996 15.4998 13.6845 15.4438 13.7778 15.4057C13.8712 15.3676 13.9711 15.3483 14.0718 15.3488C14.1726 15.3494 14.2723 15.3698 14.3652 15.4088C14.4581 15.4479 14.5424 15.5049 14.6133 15.5765C14.6842 15.6482 14.7403 15.7331 14.7783 15.8264C14.8164 15.9197 14.8357 16.0196 14.8352 16.1204C14.8291 17.2275 14.8025 18.1495 14.6643 18.9036C14.5211 19.6793 14.2499 20.3393 13.7127 20.8765C13.0977 21.4925 12.3211 21.7565 11.4001 21.8813C10.514 22 9.38533 22 7.98654 22H6.85073C5.45091 22 4.32329 22 3.43612 21.8803C2.51519 21.7575 1.73957 21.4914 1.12357 20.8765C0.507565 20.2605 0.243566 19.4848 0.118728 18.5639C3.05176e-05 17.6767 3.14713e-05 16.5481 3.14713e-05 15.1493V6.8507C3.14713e-05 5.45191 3.05176e-05 4.32326 0.118728 3.43609C0.242542 2.51516 0.507565 1.73953 1.12357 1.12353C1.73957 0.507535 2.51519 0.243535 3.43612 0.119721C4.32329 -1.52477e-08 5.45194 0 6.85073 0H7.98654Z" fill="white"/>
<path d="M11.4011 0.119721L8.58166 21.2659L8.56488 21.2637L8.54812 21.2614L11.4011 0.119721ZM13.7137 1.12353L28.7861 -13.9739L28.7996 -13.9605L28.813 -13.947L13.7137 1.12353ZM14.6643 3.09637L35.6478 -0.751515L35.6485 -0.747409L14.6643 3.09637ZM14.8352 5.87963L36.1682 5.76133L36.1682 5.76585L14.8352 5.87963ZM13.3003 5.88781L34.6333 5.77071L34.6333 5.77404L13.3003 5.88781ZM13.155 3.37367L34.1305 -0.517532L34.1345 -0.495717L34.1385 -0.473895L13.155 3.37367ZM11.1955 1.64028L14.0241 -19.5047L14.0356 -19.5032L14.047 -19.5016L11.1955 1.64028ZM3.64078 1.64028L0.789212 -19.5016L0.800661 -19.5032L0.812111 -19.5047L3.64078 1.64028ZM1.64031 3.64177L22.7827 6.48952L22.7811 6.50166L1.64031 3.64177ZM1.64031 18.3593L22.7816 15.5031L22.7822 15.5077L1.64031 18.3593ZM3.64078 20.3597L0.812111 41.5047L0.800661 41.5032L0.789212 41.5016L3.64078 20.3597ZM11.1965 20.3597L14.0519 41.5011L14.0367 41.5032L14.0215 41.5052L11.1965 20.3597ZM12.628 19.7908L27.713 34.8757L27.6993 34.8894L27.6857 34.903L12.628 19.7908ZM13.155 18.6263L34.1385 22.4739L34.1345 22.4957L34.1305 22.5175L13.155 18.6263ZM13.3003 16.1122L34.6333 16.226L34.6333 16.2293L13.3003 16.1122ZM14.8352 16.1204L36.1682 16.2341L36.1682 16.2387L14.8352 16.1204ZM14.6643 18.9036L35.6485 22.7474L35.6457 22.7629L35.6428 22.7783L14.6643 18.9036ZM13.7127 20.8765L-1.3848 5.80407L-1.37853 5.79779L-1.37226 5.79152L13.7127 20.8765ZM11.4001 21.8813L14.2658 43.0213L14.2491 43.0236L14.2324 43.0258L11.4001 21.8813ZM3.43612 21.8803L6.25562 0.734083L6.27239 0.736319L6.28916 0.738582L3.43612 21.8803ZM1.12357 20.8765L-13.9488 35.9739L-13.9551 35.9677L-13.9614 35.9614L1.12357 20.8765ZM0.118728 18.5639L-21.0213 21.4296L-21.0237 21.4113L-21.0262 21.393L0.118728 18.5639ZM0.118728 3.43609L-21.0262 0.607015L-21.0244 0.59352L0.118728 3.43609ZM3.43612 0.119721L6.28916 21.2614L6.2787 21.2628L3.43612 0.119721ZM7.98654 0V-21.3333C8.82702 -21.3333 11.6199 -21.3775 14.2542 -21.022L11.4011 0.119721L8.54812 21.2614C8.90789 21.31 9.16307 21.3294 9.27035 21.3365C9.37961 21.3438 9.40952 21.3432 9.32374 21.3409C9.23867 21.3387 9.09634 21.3362 8.8593 21.3348C8.61752 21.3334 8.34991 21.3333 7.98654 21.3333V0ZM11.4011 0.119721L14.2206 -21.0265C17.5373 -20.5843 23.5535 -19.1978 28.7861 -13.9739L13.7137 1.12353L-1.35869 16.221C2.64188 20.2149 7.10687 21.0693 8.58166 21.2659L11.4011 0.119721ZM13.7137 1.12353L28.813 -13.947C33.3357 -9.41575 35.0044 -4.25965 35.6478 -0.751515L14.6643 3.09637L-6.31913 6.94426C-5.96029 8.90113 -4.83588 12.7372 -1.38561 16.1941L13.7137 1.12353ZM14.6643 3.09637L35.6485 -0.747409C36.1711 2.10556 36.1629 4.81022 36.1682 5.76133L14.8352 5.87963L-6.49781 5.99793C-6.499 5.78323 -6.50089 5.64303 -6.50297 5.54705C-6.50505 5.45134 -6.50649 5.44136 -6.50384 5.49107C-6.50123 5.54018 -6.49231 5.69243 -6.46839 5.92034C-6.44454 6.1476 -6.40082 6.49832 -6.31989 6.94015L14.6643 3.09637ZM14.8352 5.87963L36.1682 5.76585C36.1995 11.6273 33.901 17.261 29.7785 21.4278L14.6133 6.42349L-0.551872 -8.58079C-4.38809 -4.70343 -6.52693 0.539059 -6.49784 5.9934L14.8352 5.87963ZM14.6133 6.42349L29.7785 21.4278C25.656 25.5945 20.047 27.9529 14.1856 27.9842L14.0718 6.65116L13.9581 -14.6819C8.50373 -14.6528 3.28435 -12.4582 -0.551872 -8.58079L14.6133 6.42349ZM14.0718 6.65116L14.1856 27.9842C8.3242 28.0155 2.69044 25.717 -1.4763 21.5945L13.528 6.42928L28.5323 -8.7359C24.6549 -12.5721 19.4124 -14.711 13.9581 -14.6819L14.0718 6.65116ZM13.528 6.42928L-1.4763 21.5945C-5.64305 17.4719 -8.00146 11.863 -8.03272 6.00159L13.3003 5.88781L34.6333 5.77404C34.6043 0.319721 32.4096 -4.89967 28.5323 -8.7359L13.528 6.42928ZM13.3003 5.88781L-8.0327 6.00492C-8.03385 5.79628 -8.03578 5.66113 -8.03767 5.57476C-8.03958 5.4873 -8.04062 5.49081 -8.03708 5.55791C-8.03362 5.62377 -8.02308 5.80375 -7.99593 6.06536C-7.9688 6.32681 -7.91949 6.72495 -7.82849 7.22124L13.155 3.37367L34.1385 -0.473895C34.6363 2.24112 34.6282 4.83803 34.6333 5.77071L13.3003 5.88781ZM13.155 3.37367L-7.82045 7.26488C-7.64956 8.18603 -7.27372 9.78268 -6.40055 11.6609C-5.4557 13.6933 -4.13225 15.6188 -2.45691 17.2942L12.628 2.20921L27.713 -12.8757C31.966 -8.62275 33.5249 -3.78189 34.1305 -0.517532L13.155 3.37367ZM12.628 2.20921L-2.45691 17.2942C-0.519071 19.232 1.708 20.6546 3.97055 21.5854C5.98364 22.4136 7.62179 22.6848 8.34391 22.7822L11.1955 1.64028L14.047 -19.5016C17.1527 -19.0827 22.8038 -17.7849 27.713 -12.8757L12.628 2.20921ZM11.1955 1.64028L8.36681 22.7852C8.76633 22.8387 9.05677 22.8605 9.18857 22.869C9.32123 22.8776 9.36933 22.8775 9.28962 22.8755C9.21116 22.8735 9.07113 22.8712 8.82877 22.8698C8.58447 22.8684 8.30417 22.8682 7.93026 22.8682V1.53488V-19.7985C8.79565 -19.7985 11.5075 -19.8414 14.0241 -19.5047L11.1955 1.64028ZM7.93026 1.53488V22.8682H6.90701V1.53488V-19.7985H7.93026V1.53488ZM6.90701 1.53488V22.8682C6.53284 22.8682 6.25233 22.8684 6.00786 22.8698C5.76532 22.8712 5.62518 22.8735 5.54663 22.8755C5.46684 22.8775 5.51493 22.8776 5.6476 22.869C5.77943 22.8605 6.0699 22.8387 6.46944 22.7852L3.64078 1.64028L0.812111 -19.5047C3.32881 -19.8414 6.04088 -19.7985 6.90701 -19.7985V1.53488ZM3.64078 1.64028L6.49234 22.7822C7.22938 22.6828 8.86872 22.4091 10.8794 21.5803C13.136 20.6502 15.3327 19.2407 17.2386 17.3485L2.20822 2.20921L-12.8222 -12.9301C-7.9577 -17.7596 -2.37894 -19.0743 0.789212 -19.5016L3.64078 1.64028ZM2.20822 2.20921L17.2386 17.3485C19.2253 15.3761 20.6639 13.1131 21.5962 10.8376C22.4226 8.82055 22.6891 7.18466 22.7827 6.48952L1.64031 3.64177L-19.5021 0.794015C-19.0952 -2.22686 -17.8234 -7.96481 -12.8222 -12.9301L2.20822 2.20921ZM1.64031 3.64177L22.7811 6.50166C22.8368 6.08993 22.8594 5.78986 22.8683 5.653C22.8773 5.51514 22.8772 5.46324 22.8752 5.54204C22.8733 5.61953 22.8711 5.75905 22.8697 6.00289C22.8684 6.24914 22.8682 6.52976 22.8682 6.90698H1.53491H-19.7984C-19.7984 6.07253 -19.8441 3.32206 -19.5005 0.781876L1.64031 3.64177ZM1.53491 6.90698H22.8682V15.093H1.53491H-19.7984V6.90698H1.53491ZM1.53491 15.093H22.8682C22.8682 15.4702 22.8684 15.7509 22.8697 15.9971C22.8711 16.241 22.8733 16.3806 22.8753 16.4582C22.8772 16.5371 22.8773 16.4856 22.8684 16.3483C22.8595 16.2119 22.837 15.9131 22.7816 15.5031L1.64031 18.3593L-19.501 21.2154C-19.8439 18.6768 -19.7984 15.9295 -19.7984 15.093H1.53491ZM1.64031 18.3593L22.7822 15.5077C22.6846 14.7843 22.4129 13.1428 21.5823 11.1261C20.6482 8.85807 19.224 6.63567 17.2942 4.70585L2.20924 19.7908L-12.8757 34.8757C-17.7783 29.9732 -19.0808 24.3305 -19.5016 21.2108L1.64031 18.3593ZM2.20924 19.7908L17.2942 4.70585C15.3644 2.77602 13.142 1.35188 10.874 0.417775C8.85726 -0.412832 7.21574 -0.684604 6.49234 -0.782175L3.64078 20.3597L0.789212 41.5016C-2.33048 41.0808 -7.97315 39.7783 -12.8757 34.8757L2.20924 19.7908ZM3.64078 20.3597L6.46944 -0.78525C6.0699 -0.838698 5.77943 -0.860518 5.64761 -0.869046C5.51493 -0.877628 5.46684 -0.877472 5.54664 -0.875474C5.62518 -0.873507 5.76532 -0.871193 6.00786 -0.869801C6.25233 -0.868397 6.53285 -0.868217 6.90701 -0.868217V20.4651V41.7985C6.04086 41.7985 3.32881 41.8414 0.812111 41.5047L3.64078 20.3597ZM6.90701 20.4651V-0.868217H7.93026V20.4651V41.7985H6.90701V20.4651ZM7.93026 20.4651V-0.868217C8.30416 -0.868217 8.58447 -0.868397 8.82878 -0.8698C9.07115 -0.871192 9.21127 -0.873505 9.28986 -0.875474C9.36969 -0.877473 9.32197 -0.877637 9.18986 -0.869095C9.05855 -0.860606 8.76935 -0.838892 8.37151 -0.785742L11.1965 20.3597L14.0215 41.5052C11.5064 41.8412 8.79769 41.7985 7.93026 41.7985V20.4651ZM11.1965 20.3597L8.34111 -0.781659C7.60457 -0.682181 5.96659 -0.408511 3.95736 0.419679C1.70435 1.34835 -0.506174 2.7621 -2.42961 4.67859L12.628 19.7908L27.6857 34.903C22.8045 39.7665 17.1953 41.0765 14.0519 41.5011L11.1965 20.3597ZM12.628 19.7908L-2.45691 4.70585C-4.13225 6.38118 -5.4557 8.30671 -6.40055 10.3391C-7.27373 12.2173 -7.64956 13.814 -7.82045 14.7351L13.155 18.6263L34.1305 22.5175C33.5249 25.7819 31.966 30.6227 27.713 34.8757L12.628 19.7908ZM13.155 18.6263L-7.82849 14.7788C-7.91949 15.275 -7.9688 15.6732 -7.99593 15.9346C-8.02308 16.1962 -8.03362 16.3762 -8.03708 16.4421C-8.04062 16.5092 -8.03958 16.5127 -8.03767 16.4252C-8.03578 16.3389 -8.03385 16.2037 -8.0327 15.9951L13.3003 16.1122L34.6333 16.2293C34.6282 17.162 34.6363 19.7589 34.1385 22.4739L13.155 18.6263ZM13.3003 16.1122L-8.03272 15.9984C-8.01724 13.0961 -7.43026 10.2253 -6.30532 7.5499L13.3603 15.8188L33.0259 24.0877C34.0727 21.5981 34.6189 18.9267 34.6333 16.226L13.3003 16.1122ZM13.3603 15.8188L-6.30532 7.5499C-5.1804 4.87457 -3.53954 2.44689 -1.4763 0.405539L13.528 15.5707L28.5323 30.7359C30.4522 28.8363 31.9791 26.5772 33.0259 24.0877L13.3603 15.8188ZM13.528 15.5707L-1.4763 0.405539C0.586886 -1.63575 3.03191 -3.25066 5.71916 -4.347L13.7778 15.4057L21.8365 35.1584C24.3371 34.1382 26.6124 32.6354 28.5323 30.7359L13.528 15.5707ZM13.7778 15.4057L5.71916 -4.347C8.40651 -5.44338 11.2834 -5.99967 14.1856 -5.98419L14.0718 15.3488L13.9581 36.6819C16.6587 36.6963 19.3358 36.1786 21.8365 35.1584L13.7778 15.4057ZM14.0718 15.3488L14.1856 -5.98419C17.0878 -5.96871 19.9586 -5.38178 22.6341 -4.25679L14.3652 15.4088L6.09631 35.0744C8.58601 36.1213 11.2574 36.6675 13.9581 36.6819L14.0718 15.3488ZM14.3652 15.4088L22.6341 -4.25679C25.3096 -3.13183 27.7372 -1.49093 29.7785 0.572231L14.6133 15.5765L-0.551873 30.5808C1.34763 32.5007 3.60668 34.0276 6.09631 35.0744L14.3652 15.4088ZM14.6133 15.5765L29.7785 0.572231C31.8198 2.63541 33.4347 5.08044 34.531 7.76769L14.7783 15.8264L-4.97435 23.8851C-3.95415 26.3857 -2.4514 28.6609 -0.551873 30.5808L14.6133 15.5765ZM14.7783 15.8264L34.531 7.76769C35.6274 10.4549 36.1837 13.3318 36.1682 16.2341L14.8352 16.1204L-6.49784 16.0066C-6.51224 18.7074 -5.99453 21.3845 -4.97435 23.8851L14.7783 15.8264ZM14.8352 16.1204L36.1682 16.2387C36.1629 17.1898 36.1711 19.8944 35.6485 22.7474L14.6643 18.9036L-6.31989 15.0598C-6.40082 15.5017 -6.44454 15.8524 -6.46839 16.0797C-6.49231 16.3076 -6.50123 16.4598 -6.50384 16.5089C-6.50649 16.5586 -6.50505 16.5487 -6.50297 16.453C-6.50089 16.357 -6.499 16.2168 -6.49781 16.0021L14.8352 16.1204ZM14.6643 18.9036L35.6428 22.7783C35.0024 26.2458 33.3431 31.4159 28.7976 35.9614L13.7127 20.8765L-1.37226 5.79152C-4.84333 9.26259 -5.96029 13.1127 -6.31421 15.029L14.6643 18.9036ZM13.7127 20.8765L28.8102 35.9489C23.5502 41.2176 17.4948 42.5836 14.2658 43.0213L11.4001 21.8813L8.53448 0.741312C7.14729 0.929353 2.64521 1.76736 -1.3848 5.80407L13.7127 20.8765ZM11.4001 21.8813L14.2324 43.0258C11.6114 43.3769 8.82991 43.3333 7.98654 43.3333V22V0.666666C8.3498 0.666666 8.61796 0.666599 8.86036 0.665178C9.09807 0.663785 9.24166 0.661373 9.32829 0.65911C9.41566 0.656826 9.38792 0.656073 9.28121 0.663133C9.17653 0.670059 8.92434 0.689064 8.56784 0.736817L11.4001 21.8813ZM7.98654 22V43.3333H6.85073V22V0.666666H7.98654V22ZM6.85073 22V43.3333C6.00894 43.3333 3.21734 43.3775 0.583093 43.022L3.43612 21.8803L6.28916 0.738582C5.92979 0.690086 5.67477 0.670655 5.56723 0.66348C5.45779 0.656179 5.42767 0.656851 5.51328 0.659107C5.5982 0.661346 5.74043 0.663767 5.97753 0.665168C6.21936 0.666598 6.48709 0.666666 6.85073 0.666666V22ZM3.43612 21.8803L0.616632 43.0265C-2.7 42.5843 -8.71625 41.1978 -13.9488 35.9739L1.12357 20.8765L16.196 5.77899C12.1954 1.78505 7.73038 0.930718 6.25562 0.734083L3.43612 21.8803ZM1.12357 20.8765L-13.9614 35.9614C-19.2126 30.7102 -20.5818 24.6717 -21.0213 21.4296L0.118728 18.5639L21.2587 15.6983C21.0689 14.298 20.2278 9.81076 16.2085 5.79152L1.12357 20.8765ZM0.118728 18.5639L-21.0262 21.393C-21.3767 18.7732 -21.3333 15.9944 -21.3333 15.1493H3.14713e-05H21.3334C21.3334 15.5126 21.3334 15.7807 21.3349 16.0231C21.3362 16.2609 21.3387 16.4045 21.3409 16.4913C21.3432 16.5788 21.344 16.5514 21.337 16.4452C21.3301 16.341 21.3111 16.0899 21.2636 15.7348L0.118728 18.5639ZM3.14713e-05 15.1493H-21.3333V6.8507H3.14713e-05H21.3334V15.1493H3.14713e-05ZM3.14713e-05 6.8507H-21.3333C-21.3333 6.0056 -21.3767 3.22683 -21.0262 0.607015L0.118728 3.43609L21.2636 6.26517C21.3111 5.91012 21.3301 5.65902 21.337 5.5548C21.344 5.4486 21.3432 5.42121 21.3409 5.50869C21.3387 5.59546 21.3362 5.73914 21.3349 5.97686C21.3334 6.21928 21.3334 6.48744 21.3334 6.8507H3.14713e-05ZM0.118728 3.43609L-21.0244 0.59352C-20.5834 -2.68654 -19.2049 -8.71794 -13.9614 -13.9614L1.12357 1.12353L16.2085 16.2085C20.22 12.197 21.0685 7.71687 21.2618 6.27867L0.118728 3.43609ZM1.12357 1.12353L-13.9614 -13.9614C-8.70837 -19.2144 -2.6662 -20.5851 0.593551 -21.0234L3.43612 0.119721L6.2787 21.2628C7.69658 21.0722 12.1875 20.2295 16.2085 16.2085L1.12357 1.12353ZM3.43612 0.119721L0.583093 -21.022C3.21741 -21.3775 6.01025 -21.3333 6.85073 -21.3333V0V21.3333C6.48736 21.3333 6.21976 21.3334 5.97797 21.3348C5.74093 21.3362 5.5986 21.3387 5.51353 21.3409C5.42775 21.3432 5.45767 21.3438 5.56692 21.3365C5.6742 21.3294 5.92938 21.31 6.28916 21.2614L3.43612 0.119721ZM6.85073 0V-21.3333H7.98654V0V21.3333H6.85073V0Z" fill="white" mask="url(#path-1-inside-1_977_630)"/>
<mask id="path-3-inside-2_977_630" fill="white">
<path d="M7.93027 10.2326C7.72673 10.2326 7.53153 10.3135 7.38761 10.4574C7.24369 10.6013 7.16283 10.7965 7.16283 11.0001C7.16283 11.2036 7.24369 11.3988 7.38761 11.5427C7.53153 11.6866 7.72673 11.7675 7.93027 11.7675H19.1585L17.1519 13.4866C16.9972 13.619 16.9014 13.8075 16.8857 14.0105C16.87 14.2135 16.9355 14.4145 17.0679 14.5692C17.2004 14.7239 17.3888 14.8196 17.5919 14.8353C17.7949 14.8511 17.9959 14.7855 18.1506 14.6531L21.7319 11.5833C21.8162 11.5113 21.8838 11.4218 21.9302 11.3211C21.9766 11.2204 22.0006 11.1109 22.0006 11.0001C22.0006 10.8892 21.9766 10.7797 21.9302 10.679C21.8838 10.5783 21.8162 10.4888 21.7319 10.4168L18.1506 7.34703C18.074 7.28146 17.9852 7.23161 17.8893 7.20034C17.7935 7.16907 17.6924 7.15698 17.5919 7.16477C17.4913 7.17256 17.3933 7.20008 17.3034 7.24575C17.2135 7.29142 17.1335 7.35435 17.0679 7.43094C17.0024 7.50753 16.9525 7.59629 16.9213 7.69215C16.89 7.78801 16.8779 7.88909 16.8857 7.98962C16.8935 8.09015 16.921 8.18816 16.9667 8.27805C17.0123 8.36795 17.0753 8.44797 17.1519 8.51354L19.1574 10.2326H7.93027Z"/>
</mask>
<path d="M7.93027 10.2326C7.72673 10.2326 7.53153 10.3135 7.38761 10.4574C7.24369 10.6013 7.16283 10.7965 7.16283 11.0001C7.16283 11.2036 7.24369 11.3988 7.38761 11.5427C7.53153 11.6866 7.72673 11.7675 7.93027 11.7675H19.1585L17.1519 13.4866C16.9972 13.619 16.9014 13.8075 16.8857 14.0105C16.87 14.2135 16.9355 14.4145 17.0679 14.5692C17.2004 14.7239 17.3888 14.8196 17.5919 14.8353C17.7949 14.8511 17.9959 14.7855 18.1506 14.6531L21.7319 11.5833C21.8162 11.5113 21.8838 11.4218 21.9302 11.3211C21.9766 11.2204 22.0006 11.1109 22.0006 11.0001C22.0006 10.8892 21.9766 10.7797 21.9302 10.679C21.8838 10.5783 21.8162 10.4888 21.7319 10.4168L18.1506 7.34703C18.074 7.28146 17.9852 7.23161 17.8893 7.20034C17.7935 7.16907 17.6924 7.15698 17.5919 7.16477C17.4913 7.17256 17.3933 7.20008 17.3034 7.24575C17.2135 7.29142 17.1335 7.35435 17.0679 7.43094C17.0024 7.50753 16.9525 7.59629 16.9213 7.69215C16.89 7.78801 16.8779 7.88909 16.8857 7.98962C16.8935 8.09015 16.921 8.18816 16.9667 8.27805C17.0123 8.36795 17.0753 8.44797 17.1519 8.51354L19.1574 10.2326H7.93027Z" fill="white"/>
<path d="M19.1585 11.7675V-9.56584H76.8503L33.0379 27.9685L19.1585 11.7675ZM17.1519 13.4866L31.0313 29.6875L31.026 29.6921L17.1519 13.4866ZM18.1506 14.6531L32.0341 30.8506L32.0247 30.8586L18.1506 14.6531ZM21.7319 11.5833L7.8484 -4.61416L7.85765 -4.6221L7.86692 -4.63002L21.7319 11.5833ZM21.7319 10.4168L7.86692 26.6301L7.85765 26.6222L7.8484 26.6143L21.7319 10.4168ZM18.1506 7.34703L32.0247 -8.85847L32.0341 -8.85044L18.1506 7.34703ZM17.1519 8.51354L31.026 -7.69196L31.0354 -7.68393L17.1519 8.51354ZM19.1574 10.2326L33.041 -5.96486L76.8269 31.5659H19.1574V10.2326ZM7.93027 10.2326V31.5659C13.3847 31.5659 18.6157 29.3992 22.4726 25.5423L7.38761 10.4574L-7.69734 -4.62755C-3.55266 -8.77222 2.06874 -11.1007 7.93027 -11.1007V10.2326ZM7.38761 10.4574L22.4726 25.5423C26.3294 21.6855 28.4962 16.4545 28.4962 11.0001H7.16283H-14.1705C-14.1705 5.13853 -11.842 -0.48288 -7.69734 -4.62755L7.38761 10.4574ZM7.16283 11.0001H28.4962C28.4962 5.5456 26.3294 0.314599 22.4726 -3.54223L7.38761 11.5427L-7.69734 26.6277C-11.842 22.483 -14.1705 16.8616 -14.1705 11.0001H7.16283ZM7.38761 11.5427L22.4726 -3.54223C18.6157 -7.39905 13.3847 -9.56584 7.93027 -9.56584V11.7675V33.1008C2.06874 33.1008 -3.55266 30.7723 -7.69734 26.6277L7.38761 11.5427ZM7.93027 11.7675V-9.56584H19.1585V11.7675V33.1008H7.93027V11.7675ZM19.1585 11.7675L33.0379 27.9685L31.0313 29.6875L17.1519 13.4866L3.27239 -2.7144L5.27899 -4.43347L19.1585 11.7675ZM17.1519 13.4866L31.026 29.6921C35.1693 26.1448 37.7338 21.097 38.1552 15.659L16.8857 14.0105L-4.38386 12.362C-3.93092 6.51797 -1.17501 1.09319 3.27767 -2.71893L17.1519 13.4866ZM16.8857 14.0105L38.1552 15.659C38.5767 10.221 36.8207 4.83827 33.2734 0.694991L17.0679 14.5692L0.862448 28.4434C-2.94966 23.9907 -4.8368 18.2061 -4.38386 12.362L16.8857 14.0105ZM17.0679 14.5692L33.2734 0.694991C29.7262 -3.44826 24.6784 -6.01273 19.2404 -6.43421L17.5919 14.8353L15.9434 36.1049C10.0993 35.6519 4.67452 32.896 0.862448 28.4434L17.0679 14.5692ZM17.5919 14.8353L19.2404 -6.43421C13.8023 -6.85568 8.4196 -5.09961 4.27637 -1.55242L18.1506 14.6531L32.0247 30.8586C27.5721 34.6706 21.7875 36.5578 15.9434 36.1049L17.5919 14.8353ZM18.1506 14.6531L4.267 -1.5444L7.8484 -4.61416L21.7319 11.5833L35.6155 27.7808L32.0341 30.8506L18.1506 14.6531ZM21.7319 11.5833L7.86692 -4.63002C5.60921 -2.69931 3.79657 -0.302409 2.55371 2.39578L21.9302 11.3211L41.3067 20.2465C39.9711 23.1461 38.0232 25.7218 35.597 27.7966L21.7319 11.5833ZM21.9302 11.3211L2.55371 2.39578C1.31085 5.09397 0.667276 8.02938 0.667276 11.0001H22.0006H43.3339C43.3339 14.1924 42.6423 17.3469 41.3067 20.2465L21.9302 11.3211ZM22.0006 11.0001H0.667276C0.667276 13.9707 1.31085 16.9061 2.55371 19.6043L21.9302 10.679L41.3067 1.75362C42.6423 4.65318 43.3339 7.80767 43.3339 11.0001H22.0006ZM21.9302 10.679L2.55371 19.6043C3.79657 22.3025 5.60921 24.6994 7.86692 26.6301L21.7319 10.4168L35.597 -5.79653C38.0232 -3.72173 39.9711 -1.14594 41.3067 1.75362L21.9302 10.679ZM21.7319 10.4168L7.8484 26.6143L4.267 23.5445L18.1506 7.34703L32.0341 -8.85044L35.6155 -5.78067L21.7319 10.4168ZM18.1506 7.34703L4.27637 23.5525C6.32787 25.3089 8.70526 26.6441 11.2728 27.4817L17.8893 7.20034L24.5058 -13.081C27.2651 -12.1808 29.82 -10.746 32.0247 -8.85847L18.1506 7.34703ZM17.8893 7.20034L11.2728 27.4817C13.8403 28.3193 16.5477 28.643 19.2404 28.4343L17.5919 7.16477L15.9434 -14.1048C18.8371 -14.3291 21.7466 -13.9812 24.5058 -13.081L17.8893 7.20034ZM17.5919 7.16477L19.2404 28.4343C21.9331 28.2256 24.5582 27.4886 26.9659 26.2654L17.3034 7.24575L7.64093 -11.7739C10.2284 -13.0884 13.0496 -13.8805 15.9434 -14.1048L17.5919 7.16477ZM17.3034 7.24575L26.9659 26.2654C29.3738 25.0422 31.517 23.3567 33.2734 21.3051L17.0679 7.43094L0.862448 -6.44324C2.75 -8.64796 5.05333 -10.4593 7.64093 -11.7739L17.3034 7.24575ZM17.0679 7.43094L33.2734 21.3051C35.0299 19.2536 36.365 16.8762 37.2026 14.3087L16.9213 7.69215L-3.3601 1.07566C-2.45993 -1.68359 -1.02511 -4.23851 0.862448 -6.44324L17.0679 7.43094ZM16.9213 7.69215L37.2026 14.3087C38.0402 11.7411 38.3639 9.03369 38.1552 6.34113L16.8857 7.98962L-4.38386 9.63811C-4.60813 6.74449 -4.26028 3.83496 -3.3601 1.07566L16.9213 7.69215ZM16.8857 7.98962L38.1552 6.34113C37.9465 3.64856 37.2096 1.0234 35.9863 -1.38446L16.9667 8.27805L-2.05299 17.9406C-3.36758 15.3529 -4.15959 12.5317 -4.38386 9.63811L16.8857 7.98962ZM16.9667 8.27805L35.9863 -1.38446C34.7631 -3.79227 33.0776 -5.93555 31.026 -7.69196L17.1519 8.51354L3.27767 24.719C1.07295 22.8315 -0.738413 20.5282 -2.05299 17.9406L16.9667 8.27805ZM17.1519 8.51354L31.0354 -7.68393L33.041 -5.96486L19.1574 10.2326L5.27389 26.4301L3.2683 24.711L17.1519 8.51354ZM19.1574 10.2326V31.5659H7.93027V10.2326V-11.1007H19.1574V10.2326Z" fill="white" mask="url(#path-3-inside-2_977_630)"/>
</svg>
