<svg width="68" height="68" viewBox="0 0 68 68" fill="none" xmlns="http://www.w3.org/2000/svg">
<rect width="67.027" height="67.027" rx="4" fill="#54BFC6" fill-opacity="0.4"/>
<path d="M33.4463 19.0114C42.4769 19.0114 49.7978 26.3323 49.7979 35.3629C49.7979 44.3936 42.477 51.7145 33.4463 51.7145C24.4156 51.7145 17.0947 44.3936 17.0947 35.3629C17.0947 26.3323 24.4156 19.0114 33.4463 19.0114ZM33.4463 20.6481C25.3195 20.6481 18.7315 27.2363 18.7314 35.3629C18.7314 43.4897 25.3195 50.0778 33.4463 50.0778C41.5731 50.0778 48.1611 43.4896 48.1611 35.3629C48.1611 27.2362 41.5731 20.6481 33.4463 20.6481Z" fill="#B9BBBD" stroke="black"/>
<path d="M16.2156 13.2386C17.9321 11.5221 20.7152 11.5221 22.4318 13.2386C24.1483 14.9552 24.1483 17.7383 22.4318 19.4548C20.7152 21.1714 17.9321 21.1714 16.2156 19.4548C14.499 17.7383 14.499 14.9552 16.2156 13.2386Z" fill="#F5A582" stroke="black"/>
<path d="M19.3252 21.7419C23.6691 21.7419 27.2041 25.2769 27.2041 29.6208V31.1266L27.2002 31.2106C27.1582 31.6232 26.8093 31.945 26.3857 31.945H12.2646C11.8127 31.945 11.4463 31.5786 11.4463 31.1266V29.6208C11.4463 25.2768 14.9813 21.7419 19.3252 21.7419Z" fill="#FF5C5C" stroke="black"/>
<path d="M44.4548 13.2416C46.1714 11.5251 48.9545 11.5251 50.671 13.2416C52.3876 14.9582 52.3876 17.7413 50.671 19.4578C48.9545 21.1744 46.1714 21.1744 44.4548 19.4578C42.7383 17.7413 42.7383 14.9582 44.4548 13.2416Z" fill="#C3551E" stroke="black"/>
<path d="M47.5674 21.742C51.9113 21.742 55.4463 25.277 55.4463 29.6209V31.1267C55.4462 31.5787 55.0798 31.9451 54.6279 31.9451H40.5068C40.0549 31.9451 39.6885 31.5787 39.6885 31.1267V29.6209C39.6885 25.2769 43.2235 21.742 47.5674 21.742Z" fill="#FFCB00" stroke="black"/>
<path d="M30.3328 37.2434C32.0493 35.5269 34.8324 35.5269 36.549 37.2434C38.2655 38.96 38.2655 41.743 36.549 43.4596C34.8324 45.1761 32.0493 45.1761 30.3328 43.4596C28.6162 41.743 28.6162 38.96 30.3328 37.2434Z" fill="#FFDCD7" stroke="black"/>
<path d="M33.4463 45.7478C37.7902 45.7478 41.3252 49.2828 41.3252 53.6267V55.1326C41.3252 55.5845 40.9587 55.9509 40.5068 55.9509H26.3857C25.9338 55.9509 25.5674 55.5845 25.5674 55.1326V53.6267C25.5674 49.2827 29.1024 45.7478 33.4463 45.7478Z" fill="#00E4EF" stroke="black"/>
</svg>
