<svg width="22" height="22" viewBox="0 0 22 22" fill="none" xmlns="http://www.w3.org/2000/svg">
<mask id="path-1-inside-1_1215_680" fill="white">
<path d="M20.1097 12.895C21.1661 12.0058 21.3014 10.4288 20.4122 9.37246C19.523 8.31611 17.946 8.18083 16.8897 9.07C16.6109 9.30464 16.3868 9.5974 16.2331 9.92776C16.0793 10.2581 15.9996 10.6181 15.9996 10.9825C15.9996 11.3469 16.0793 11.7068 16.2331 12.0372C16.3868 12.3676 16.6109 12.6603 16.8897 12.895C16.3205 13.1898 15.8433 13.6353 15.51 14.1828C15.1767 14.7304 15.0002 15.3589 14.9997 15.9999V17.4499C14.5297 16.5314 13.7583 15.8024 12.8147 15.385C14.1339 14.3825 14.3908 12.5005 13.3883 11.1813C12.3857 9.86205 10.5037 9.60515 9.18449 10.6077C7.86526 11.6102 7.60836 13.4922 8.61089 14.8114C8.77522 15.0279 8.96832 15.2207 9.18449 15.385C8.24104 15.8026 7.46965 16.5316 6.99944 17.4499V15.9999C6.99897 15.3589 6.82247 14.7304 6.48918 14.1828C6.15589 13.6353 5.67863 13.1898 5.10946 12.895C6.16581 12.0058 6.30109 10.4288 5.41192 9.37246C4.52275 8.31611 2.94577 8.18083 1.88942 9.07C1.61064 9.30464 1.38653 9.5974 1.23278 9.92776C1.07904 10.2581 0.999376 10.6181 0.999376 10.9825C0.999376 11.3469 1.07904 11.7068 1.23278 12.0372C1.38653 12.3676 1.61064 12.6603 1.88942 12.895C1.32039 13.1899 0.843279 13.6355 0.510103 14.183C0.176927 14.7305 0.000478631 15.359 0 15.9999L0 17.9999C0 18.2761 0.223859 18.5 0.500123 18.5H6.50017C6.54005 18.5051 6.58021 18.5051 6.62008 18.5C6.54349 18.8279 6.50328 19.1632 6.50017 19.5V21.4999C6.50017 21.7761 6.72403 22 7.0003 22H15.0003C15.2765 22 15.5004 21.7761 15.5004 21.4999V19.5C15.497 19.1633 15.4568 18.8279 15.3805 18.5C15.4204 18.5051 15.4605 18.5051 15.5004 18.5H21.5004C21.7767 18.5 22.0006 18.2761 22.0006 17.9999V15.9999C21.9998 15.3589 21.8231 14.7304 21.4897 14.1829C21.1562 13.6353 20.6789 13.1899 20.1097 12.895ZM1.99992 10.9999C1.99992 10.602 2.15797 10.2205 2.43929 9.93914C2.72061 9.65782 3.10216 9.49977 3.50001 9.49977C3.89785 9.49977 4.27941 9.65782 4.56073 9.93914C4.84205 10.2205 5.00009 10.602 5.00009 10.9999C5.00009 11.3977 4.84205 11.7793 4.56073 12.0606C4.27941 12.3419 3.89785 12.4999 3.50001 12.4999C3.10216 12.4999 2.72061 12.3419 2.43929 12.0606C2.15797 11.7793 1.99992 11.3977 1.99992 10.9999ZM6.00005 17.4997H0.999961V15.9997C0.999961 15.6714 1.06463 15.3463 1.19027 15.0429C1.3159 14.7396 1.50006 14.464 1.73221 14.2319C1.96436 13.9997 2.23996 13.8156 2.54328 13.6899C2.8466 13.5643 3.1717 13.4996 3.50001 13.4996C3.82832 13.4996 4.15341 13.5643 4.45673 13.6899C4.76005 13.8156 5.03565 13.9997 5.26781 14.2319C5.49996 14.464 5.68411 14.7396 5.80975 15.0429C5.93539 15.3463 6.00005 15.6714 6.00005 15.9997V17.4997ZM8.99994 12.9998C8.99994 12.4694 9.21064 11.9607 9.5857 11.5856C9.96076 11.2106 10.4694 10.9999 10.9999 10.9999C11.5303 10.9999 12.039 11.2106 12.414 11.5856C12.7891 11.9607 12.9998 12.4694 12.9998 12.9998C12.9998 13.5302 12.7891 14.0389 12.414 14.4139C12.039 14.789 11.5303 14.9997 10.9999 14.9997C10.4694 14.9997 9.96076 14.789 9.5857 14.4139C9.21064 14.0389 8.99994 13.5302 8.99994 12.9998ZM14.4999 20.9998H7.49985V19.4997C7.49985 17.5667 9.06686 15.9997 10.9999 15.9997C12.9328 15.9997 14.4999 17.5667 14.4999 19.4997V20.9998ZM16.9999 10.9999C16.9999 10.8029 17.0387 10.6078 17.1141 10.4258C17.1895 10.2438 17.3 10.0784 17.4393 9.93914C17.5786 9.79984 17.7439 9.68935 17.9259 9.61396C18.1079 9.53857 18.303 9.49977 18.5 9.49977C18.697 9.49977 18.8921 9.53857 19.0741 9.61396C19.2561 9.68935 19.4214 9.79984 19.5607 9.93914C19.7 10.0784 19.8105 10.2438 19.8859 10.4258C19.9613 10.6078 20.0001 10.8029 20.0001 10.9999C20.0001 11.3977 19.842 11.7793 19.5607 12.0606C19.2794 12.3419 18.8978 12.4999 18.5 12.4999C18.1021 12.4999 17.7206 12.3419 17.4393 12.0606C17.158 11.7793 16.9999 11.3977 16.9999 10.9999ZM20.9998 17.4997H15.9999V15.9997C15.9999 15.3366 16.2633 14.7007 16.7322 14.2319C17.201 13.763 17.8369 13.4996 18.5 13.4996C19.163 13.4996 19.7989 13.763 20.2678 14.2319C20.7366 14.7007 21 15.3366 21 15.9997L20.9998 17.4997ZM10.9999 0C10.3405 0.00126441 9.69988 0.219719 9.17712 0.621585C8.65436 1.02345 8.27854 1.58635 8.10779 2.22323C7.93703 2.86012 7.98085 3.53552 8.23246 4.145C8.48407 4.75448 8.92947 5.2641 9.49977 5.59505V6.50017C9.49977 6.69717 9.53857 6.89223 9.61396 7.07423C9.68935 7.25623 9.79984 7.4216 9.93914 7.56089C10.0784 7.70019 10.2438 7.81069 10.4258 7.88607C10.6078 7.96146 10.8029 8.00026 10.9999 8.00026C11.1969 8.00026 11.3919 7.96146 11.5739 7.88607C11.7559 7.81069 11.9213 7.70019 12.0606 7.56089C12.1999 7.4216 12.3104 7.25623 12.3858 7.07423C12.4611 6.89223 12.4999 6.69717 12.4999 6.50017V5.59505C13.9331 4.7637 14.421 2.92783 13.5896 1.49467C13.3263 1.04084 12.9486 0.663982 12.4942 0.401713C12.0398 0.139444 11.5245 0.000932662 10.9999 0ZM11.5 6.49989C11.5 6.63253 11.4473 6.75974 11.3535 6.85353C11.2597 6.94732 11.1325 7.00001 10.9999 7.00001C10.8672 7.00001 10.74 6.94732 10.6462 6.85353C10.5524 6.75974 10.4997 6.63253 10.4997 6.49989V5.95477C10.8303 6.01486 11.1691 6.01486 11.4997 5.95477L11.5 6.49989ZM11.5 4.93003V4.20491L12.355 3.35504C12.4435 3.25977 12.4917 3.13387 12.4893 3.00383C12.4869 2.8738 12.4342 2.74975 12.3422 2.65778C12.2502 2.56582 12.1262 2.5131 11.9962 2.51072C11.8661 2.50833 11.7402 2.55647 11.6449 2.64501L10.9999 3.29494L10.3548 2.64501C10.2595 2.55647 10.1336 2.50833 10.0036 2.51072C9.87352 2.5131 9.74948 2.56582 9.65751 2.65778C9.56554 2.74975 9.51283 2.8738 9.51044 3.00383C9.50806 3.13387 9.5562 3.25977 9.64474 3.35504L10.4997 4.20491V4.93003C9.99191 4.79219 9.55885 4.4598 9.2944 4.00487C9.02996 3.54995 8.95543 3.00914 9.08697 2.49964C9.21852 1.99015 9.54553 1.55301 9.99715 1.28296C10.4488 1.01291 10.9886 0.931694 11.4997 1.05692C11.9289 1.16785 12.3092 1.41823 12.5806 1.76874C12.8521 2.11926 12.9994 2.55002 12.9995 2.99336C12.9995 3.43671 12.8522 3.8675 12.5808 4.21805C12.3094 4.5686 11.9292 4.81904 11.5 4.93003ZM18.5 7.99997C18.7763 7.99997 19.0001 7.77611 19.0001 7.49985V6.49989C19.0001 6.22363 18.7763 5.99977 18.5 5.99977H13.4999C13.3673 5.99977 13.2401 6.05246 13.1463 6.14625C13.0525 6.24004 12.9998 6.36725 12.9998 6.49989C12.9998 6.63253 13.0525 6.75974 13.1463 6.85353C13.2401 6.94732 13.3673 7.00001 13.4999 7.00001H17.9999V7.50014C17.9999 7.77611 18.2237 7.99997 18.5 7.99997ZM2.99988 6.49989V7.49985C2.99988 7.63249 3.05257 7.7597 3.14637 7.85349C3.24016 7.94728 3.36737 7.99997 3.50001 7.99997C3.63265 7.99997 3.75986 7.94728 3.85365 7.85349C3.94744 7.7597 4.00013 7.63249 4.00013 7.49985V6.99973H8.5001C8.63274 6.99973 8.75995 6.94704 8.85374 6.85325C8.94753 6.75945 9.00022 6.63225 9.00022 6.4996C9.00022 6.36696 8.94753 6.23976 8.85374 6.14596C8.75995 6.05217 8.63274 5.99948 8.5001 5.99948H3.50001C3.36739 5.99971 3.24027 6.05251 3.14652 6.14632C3.05276 6.24012 3.00003 6.36727 2.99988 6.49989Z"/>
</mask>
<path d="M20.1097 12.895C21.1661 12.0058 21.3014 10.4288 20.4122 9.37246C19.523 8.31611 17.946 8.18083 16.8897 9.07C16.6109 9.30464 16.3868 9.5974 16.2331 9.92776C16.0793 10.2581 15.9996 10.6181 15.9996 10.9825C15.9996 11.3469 16.0793 11.7068 16.2331 12.0372C16.3868 12.3676 16.6109 12.6603 16.8897 12.895C16.3205 13.1898 15.8433 13.6353 15.51 14.1828C15.1767 14.7304 15.0002 15.3589 14.9997 15.9999V17.4499C14.5297 16.5314 13.7583 15.8024 12.8147 15.385C14.1339 14.3825 14.3908 12.5005 13.3883 11.1813C12.3857 9.86205 10.5037 9.60515 9.18449 10.6077C7.86526 11.6102 7.60836 13.4922 8.61089 14.8114C8.77522 15.0279 8.96832 15.2207 9.18449 15.385C8.24104 15.8026 7.46965 16.5316 6.99944 17.4499V15.9999C6.99897 15.3589 6.82247 14.7304 6.48918 14.1828C6.15589 13.6353 5.67863 13.1898 5.10946 12.895C6.16581 12.0058 6.30109 10.4288 5.41192 9.37246C4.52275 8.31611 2.94577 8.18083 1.88942 9.07C1.61064 9.30464 1.38653 9.5974 1.23278 9.92776C1.07904 10.2581 0.999376 10.6181 0.999376 10.9825C0.999376 11.3469 1.07904 11.7068 1.23278 12.0372C1.38653 12.3676 1.61064 12.6603 1.88942 12.895C1.32039 13.1899 0.843279 13.6355 0.510103 14.183C0.176927 14.7305 0.000478631 15.359 0 15.9999L0 17.9999C0 18.2761 0.223859 18.5 0.500123 18.5H6.50017C6.54005 18.5051 6.58021 18.5051 6.62008 18.5C6.54349 18.8279 6.50328 19.1632 6.50017 19.5V21.4999C6.50017 21.7761 6.72403 22 7.0003 22H15.0003C15.2765 22 15.5004 21.7761 15.5004 21.4999V19.5C15.497 19.1633 15.4568 18.8279 15.3805 18.5C15.4204 18.5051 15.4605 18.5051 15.5004 18.5H21.5004C21.7767 18.5 22.0006 18.2761 22.0006 17.9999V15.9999C21.9998 15.3589 21.8231 14.7304 21.4897 14.1829C21.1562 13.6353 20.6789 13.1899 20.1097 12.895ZM1.99992 10.9999C1.99992 10.602 2.15797 10.2205 2.43929 9.93914C2.72061 9.65782 3.10216 9.49977 3.50001 9.49977C3.89785 9.49977 4.27941 9.65782 4.56073 9.93914C4.84205 10.2205 5.00009 10.602 5.00009 10.9999C5.00009 11.3977 4.84205 11.7793 4.56073 12.0606C4.27941 12.3419 3.89785 12.4999 3.50001 12.4999C3.10216 12.4999 2.72061 12.3419 2.43929 12.0606C2.15797 11.7793 1.99992 11.3977 1.99992 10.9999ZM6.00005 17.4997H0.999961V15.9997C0.999961 15.6714 1.06463 15.3463 1.19027 15.0429C1.3159 14.7396 1.50006 14.464 1.73221 14.2319C1.96436 13.9997 2.23996 13.8156 2.54328 13.6899C2.8466 13.5643 3.1717 13.4996 3.50001 13.4996C3.82832 13.4996 4.15341 13.5643 4.45673 13.6899C4.76005 13.8156 5.03565 13.9997 5.26781 14.2319C5.49996 14.464 5.68411 14.7396 5.80975 15.0429C5.93539 15.3463 6.00005 15.6714 6.00005 15.9997V17.4997ZM8.99994 12.9998C8.99994 12.4694 9.21064 11.9607 9.5857 11.5856C9.96076 11.2106 10.4694 10.9999 10.9999 10.9999C11.5303 10.9999 12.039 11.2106 12.414 11.5856C12.7891 11.9607 12.9998 12.4694 12.9998 12.9998C12.9998 13.5302 12.7891 14.0389 12.414 14.4139C12.039 14.789 11.5303 14.9997 10.9999 14.9997C10.4694 14.9997 9.96076 14.789 9.5857 14.4139C9.21064 14.0389 8.99994 13.5302 8.99994 12.9998ZM14.4999 20.9998H7.49985V19.4997C7.49985 17.5667 9.06686 15.9997 10.9999 15.9997C12.9328 15.9997 14.4999 17.5667 14.4999 19.4997V20.9998ZM16.9999 10.9999C16.9999 10.8029 17.0387 10.6078 17.1141 10.4258C17.1895 10.2438 17.3 10.0784 17.4393 9.93914C17.5786 9.79984 17.7439 9.68935 17.9259 9.61396C18.1079 9.53857 18.303 9.49977 18.5 9.49977C18.697 9.49977 18.8921 9.53857 19.0741 9.61396C19.2561 9.68935 19.4214 9.79984 19.5607 9.93914C19.7 10.0784 19.8105 10.2438 19.8859 10.4258C19.9613 10.6078 20.0001 10.8029 20.0001 10.9999C20.0001 11.3977 19.842 11.7793 19.5607 12.0606C19.2794 12.3419 18.8978 12.4999 18.5 12.4999C18.1021 12.4999 17.7206 12.3419 17.4393 12.0606C17.158 11.7793 16.9999 11.3977 16.9999 10.9999ZM20.9998 17.4997H15.9999V15.9997C15.9999 15.3366 16.2633 14.7007 16.7322 14.2319C17.201 13.763 17.8369 13.4996 18.5 13.4996C19.163 13.4996 19.7989 13.763 20.2678 14.2319C20.7366 14.7007 21 15.3366 21 15.9997L20.9998 17.4997ZM10.9999 0C10.3405 0.00126441 9.69988 0.219719 9.17712 0.621585C8.65436 1.02345 8.27854 1.58635 8.10779 2.22323C7.93703 2.86012 7.98085 3.53552 8.23246 4.145C8.48407 4.75448 8.92947 5.2641 9.49977 5.59505V6.50017C9.49977 6.69717 9.53857 6.89223 9.61396 7.07423C9.68935 7.25623 9.79984 7.4216 9.93914 7.56089C10.0784 7.70019 10.2438 7.81069 10.4258 7.88607C10.6078 7.96146 10.8029 8.00026 10.9999 8.00026C11.1969 8.00026 11.3919 7.96146 11.5739 7.88607C11.7559 7.81069 11.9213 7.70019 12.0606 7.56089C12.1999 7.4216 12.3104 7.25623 12.3858 7.07423C12.4611 6.89223 12.4999 6.69717 12.4999 6.50017V5.59505C13.9331 4.7637 14.421 2.92783 13.5896 1.49467C13.3263 1.04084 12.9486 0.663982 12.4942 0.401713C12.0398 0.139444 11.5245 0.000932662 10.9999 0ZM11.5 6.49989C11.5 6.63253 11.4473 6.75974 11.3535 6.85353C11.2597 6.94732 11.1325 7.00001 10.9999 7.00001C10.8672 7.00001 10.74 6.94732 10.6462 6.85353C10.5524 6.75974 10.4997 6.63253 10.4997 6.49989V5.95477C10.8303 6.01486 11.1691 6.01486 11.4997 5.95477L11.5 6.49989ZM11.5 4.93003V4.20491L12.355 3.35504C12.4435 3.25977 12.4917 3.13387 12.4893 3.00383C12.4869 2.8738 12.4342 2.74975 12.3422 2.65778C12.2502 2.56582 12.1262 2.5131 11.9962 2.51072C11.8661 2.50833 11.7402 2.55647 11.6449 2.64501L10.9999 3.29494L10.3548 2.64501C10.2595 2.55647 10.1336 2.50833 10.0036 2.51072C9.87352 2.5131 9.74948 2.56582 9.65751 2.65778C9.56554 2.74975 9.51283 2.8738 9.51044 3.00383C9.50806 3.13387 9.5562 3.25977 9.64474 3.35504L10.4997 4.20491V4.93003C9.99191 4.79219 9.55885 4.4598 9.2944 4.00487C9.02996 3.54995 8.95543 3.00914 9.08697 2.49964C9.21852 1.99015 9.54553 1.55301 9.99715 1.28296C10.4488 1.01291 10.9886 0.931694 11.4997 1.05692C11.9289 1.16785 12.3092 1.41823 12.5806 1.76874C12.8521 2.11926 12.9994 2.55002 12.9995 2.99336C12.9995 3.43671 12.8522 3.8675 12.5808 4.21805C12.3094 4.5686 11.9292 4.81904 11.5 4.93003ZM18.5 7.99997C18.7763 7.99997 19.0001 7.77611 19.0001 7.49985V6.49989C19.0001 6.22363 18.7763 5.99977 18.5 5.99977H13.4999C13.3673 5.99977 13.2401 6.05246 13.1463 6.14625C13.0525 6.24004 12.9998 6.36725 12.9998 6.49989C12.9998 6.63253 13.0525 6.75974 13.1463 6.85353C13.2401 6.94732 13.3673 7.00001 13.4999 7.00001H17.9999V7.50014C17.9999 7.77611 18.2237 7.99997 18.5 7.99997ZM2.99988 6.49989V7.49985C2.99988 7.63249 3.05257 7.7597 3.14637 7.85349C3.24016 7.94728 3.36737 7.99997 3.50001 7.99997C3.63265 7.99997 3.75986 7.94728 3.85365 7.85349C3.94744 7.7597 4.00013 7.63249 4.00013 7.49985V6.99973H8.5001C8.63274 6.99973 8.75995 6.94704 8.85374 6.85325C8.94753 6.75945 9.00022 6.63225 9.00022 6.4996C9.00022 6.36696 8.94753 6.23976 8.85374 6.14596C8.75995 6.05217 8.63274 5.99948 8.5001 5.99948H3.50001C3.36739 5.99971 3.24027 6.05251 3.14652 6.14632C3.05276 6.24012 3.00003 6.36727 2.99988 6.49989Z" fill="#464255" stroke="white" stroke-width="13.2567" mask="url(#path-1-inside-1_1215_680)"/>
</svg>
