<svg width="68" height="68" viewBox="0 0 68 68" fill="none" xmlns="http://www.w3.org/2000/svg">
<rect width="67.027" height="67.027" rx="4" fill="#54BFC6" fill-opacity="0.4"/>
<path d="M53.9526 45.4747V53.9851H31.877V45.4747C31.877 42.585 33.8773 40.0817 36.694 39.4425L40.577 38.5629L42.8498 40.6577L45.2515 38.5629L46.9127 38.9395L49.1347 39.4424C51.9524 40.0817 53.9526 42.585 53.9526 45.4747Z" fill="#7DABCF"/>
<path d="M36.3874 31.2933C35.2647 31.2933 34.3545 30.3831 34.3545 29.2605C34.3545 28.1378 35.2647 27.2276 36.3874 27.2276M49.3886 27.2275C50.5113 27.2275 51.4214 28.1377 51.4214 29.2604C51.4214 30.383 50.5113 31.2932 49.3886 31.2932" fill="#FB9D6E"/>
<path d="M50.6793 22.2603V28.3504C50.6793 29.0786 50.1416 29.6812 49.4419 29.7836V30.3097C49.4419 31.0219 49.328 31.7083 49.1171 32.3501H36.6584C36.4424 31.6916 36.3328 31.0028 36.3335 30.3097V29.756C35.6097 29.5851 35.0693 28.9352 35.0693 28.159V24.0933C35.0693 19.5736 38.7665 15.7777 43.2862 15.7902H43.2978C43.9093 15.7911 44.447 16.1044 44.7613 16.578C47.9 16.5789 50.6793 19.1223 50.6793 22.2603Z" fill="#606060"/>
<path d="M45.2521 38.549L42.8135 40.6578L40.5068 38.549V35.9212H45.2521V38.549Z" fill="#FB9D6E"/>
<path d="M40.3195 24.5336H40.8011C41.6158 24.5336 42.4112 24.2852 43.0813 23.8217C43.7513 23.3581 44.2641 22.7013 44.5513 21.9389L46.242 21.9509C47.3935 21.9509 48.3269 22.8843 48.3269 24.0357V24.9583C48.3269 25.6122 48.5237 26.2509 48.8917 26.7914C49.2597 27.332 49.4564 27.9707 49.4565 28.6246V30.324C49.4565 33.9439 46.5219 36.8784 42.902 36.8784C39.2822 36.8784 36.3477 33.9439 36.3477 30.324V28.5052C36.3477 26.3118 38.1259 24.5336 40.3195 24.5336Z" fill="#FAC1AC"/>
<path d="M40.5069 38.6275L42.844 40.4575L45.1812 38.6275V43.2393C45.1812 43.3845 44.9973 43.4471 44.9085 43.3323L43.0392 40.7291C43.0169 40.6982 42.9876 40.673 42.9537 40.6556C42.9198 40.6382 42.8822 40.6292 42.8441 40.6292C42.806 40.6292 42.7684 40.6382 42.7345 40.6556C42.7005 40.673 42.6712 40.6982 42.649 40.7291L40.7794 43.3323C40.6908 43.4472 40.5068 43.3845 40.5068 43.2393L40.5069 38.6275Z" fill="#E5E1E0"/>
<path d="M16.0549 40.6542V40.5952C15.701 39.6138 15.52 38.5785 15.5198 37.5353V30.6156C15.5198 30.6091 15.5201 30.6027 15.5201 30.5962C15.5277 28.4637 16.7714 26.5276 18.7091 25.6344H18.7099C20.4477 24.834 21.6261 23.1941 21.8564 21.3255C21.8837 21.1042 21.8985 20.8799 21.8985 20.6531V21.4147L21.9226 22.005C21.9784 23.3744 22.8599 24.579 24.1545 25.0286C24.1812 25.0379 24.2047 25.0457 24.2247 25.0518C26.5699 25.778 28.2734 27.8502 28.277 30.4323L28.2771 30.4404V37.8154C28.2771 38.4484 28.2249 39.079 28.121 39.7015C28.0686 40.0149 28.0035 40.3261 27.9259 40.6342C28.3854 40.7775 29.1475 41.0809 29.8966 41.7341C30.8058 42.5268 31.2264 43.4256 31.4081 43.8959C31.7834 43.5353 32.4097 42.8294 32.7422 41.7655C32.8921 41.2851 32.9681 40.7846 32.9676 40.2813C32.9676 38.7062 32.2346 37.302 31.0913 36.3911C30.5682 35.9749 30.2604 35.3458 30.2604 34.6776V25.6373C30.2604 21.0171 26.4799 17.1686 21.8597 17.2052C19.5842 17.2232 17.5263 18.152 16.0325 19.6458C14.5239 21.1537 13.5912 23.2371 13.5912 25.5387V34.6359C13.5912 35.3114 13.2767 35.9473 12.7438 36.3635C11.5788 37.2722 10.8301 38.6898 10.8301 40.2814C10.8301 41.6806 11.4095 42.9432 12.3395 43.8449C12.9988 42.2945 14.3502 41.0896 16.0549 40.6542Z" fill="#606060"/>
<path d="M17.4799 36.2084C18.1235 36.8526 18.8975 37.3517 19.75 37.6719V39.6803L16.2932 40.4637C16.2443 40.4744 16.1953 40.4878 16.1464 40.5002V40.4414C15.7938 39.4622 15.6113 38.4269 15.6113 37.3809V32.3502H15.6443C15.7974 33.8511 16.4696 35.1989 17.4799 36.2084Z" fill="#424242"/>
<path d="M31.8769 45.8379V53.9716H12.1157V45.8379C12.1157 45.1666 12.2368 44.5186 12.4602 43.9168H24.9589C28.3614 43.9168 30.6305 42.3918 30.6305 42.3918V42.3393C31.4375 43.3266 31.8779 44.5628 31.8769 45.8379Z" fill="#FFECB6"/>
<path d="M28.3682 32.3502V37.6612C28.3682 38.2942 28.3182 38.9245 28.2174 39.5476C28.1666 39.8601 28.1037 40.1717 28.0287 40.4797V40.6408C27.8348 40.5698 27.6367 40.5106 27.4356 40.4637L24.0773 39.6776L24.0635 39.6893V37.7787C26.3668 37.0239 28.0856 34.9105 28.3364 32.3502H28.3682V32.3502Z" fill="#424242"/>
<path d="M30.6308 42.3482V42.3918C30.6308 42.3918 30.1706 42.7008 29.3542 43.0418C28.3572 43.4556 26.8296 43.9169 24.9592 43.9169H12.4604C12.7672 43.0872 13.2688 42.3435 13.9231 41.7483C14.5768 41.1525 15.3638 40.722 16.2181 40.493L16.4219 40.4388L19.8974 39.6509V37.7342L24.0814 37.7351V39.651L27.5578 40.4388C28.8032 40.721 29.8697 41.4109 30.6308 42.3482Z" fill="#FAC1AC"/>
<path d="M31.8772 45.8379V53.9716H14.1528V45.8379C14.1528 45.1666 14.2739 44.5186 14.4973 43.9168H24.9593C28.3618 43.9168 30.6309 42.3918 30.6309 42.3918V42.3393C31.4378 43.3266 31.8781 44.5628 31.8772 45.8379Z" fill="#FFDF70"/>
<path d="M30.6309 42.3482V42.3918C30.6309 42.3918 30.1706 42.7008 29.3543 43.0417C27.7118 41.4971 23.902 41.2538 23.902 41.2538L23.4757 41.2409C22.9337 41.2243 22.5028 40.7803 22.5028 40.238C22.5028 39.737 22.1333 39.3129 21.6371 39.2441L20.6606 38.8523C20.4369 38.7625 20.2449 38.6083 20.109 38.4092C19.9731 38.2101 19.8995 37.9751 19.8975 37.734L24.0815 37.735V39.6509L27.5578 40.4387C28.8033 40.7209 29.8697 41.4108 30.6309 42.3482Z" fill="#FB9D6E"/>
<path d="M15.6444 32.3502C15.7968 33.8513 16.4697 35.1984 17.4797 36.2086C18.6279 37.3567 20.2118 38.0691 21.9625 38.0767H21.9899C25.2925 38.0767 28.0088 35.5666 28.3353 32.3502C28.3572 32.1336 28.3682 31.916 28.3682 31.6983V30.2782C28.3646 27.696 26.661 25.6237 24.3159 24.8977C24.2959 24.8914 24.2724 24.8836 24.2457 24.8743C22.951 24.4248 22.0696 23.2201 22.0138 21.8508L21.9897 21.2605V21.1713H21.9476C21.7173 23.0398 20.5389 24.6797 18.8011 25.4801H18.8003C16.8625 26.3734 15.6189 28.3095 15.6113 30.442V31.6983C15.6115 31.9184 15.6227 32.1359 15.6444 32.3502Z" fill="#FAC1AC"/>
<path d="M34.0387 46.4624L32.2685 47.9931L30.5942 46.4624V44.5549H34.0387V46.4624Z" fill="#FB9D6E"/>
<path d="M40.3512 51.3682V53.9765H24.3369V51.3682C24.3369 49.6857 25.2725 48.1829 26.6996 47.4156C27.0562 47.2241 27.4371 47.0818 27.8319 46.9927L28.6278 46.8129V46.8119L30.6485 46.3544C30.6485 46.3544 31.1275 47.2357 32.3827 47.2357C33.6379 47.2357 34.0393 46.3544 34.0393 46.3544L36.1838 46.8404L36.856 46.9927C37.2886 47.0906 37.6946 47.249 38.0659 47.4591C39.4494 48.2381 40.3512 49.7159 40.3512 51.3682Z" fill="#F46F4B"/>
<path d="M38.0656 47.4591V53.9417H26.6992V47.4154C27.0558 47.2239 27.4367 47.0816 27.8316 46.9925L28.6274 46.8127V50.1706H36.1836V46.8403L36.8558 46.9925C37.2797 47.0881 37.6873 47.2453 38.0656 47.4591Z" fill="#FFECB6"/>
<path d="M28.6668 45.6131H28.5431C26.9104 45.6131 25.5869 44.2897 25.5869 42.657V37.7883C25.5869 34.0411 28.5841 30.9352 32.3312 30.9074C36.108 30.8794 39.1784 33.9326 39.1784 37.7029V42.657C39.1784 44.2897 37.8549 45.6131 36.2222 45.6131" fill="#606060"/>
<path d="M35.8808 36.6191C36.0302 37.8618 36.8745 38.6967 37.4228 39.1163C37.5781 39.2353 37.6999 39.3926 37.7763 39.5727C37.8527 39.7529 37.881 39.9498 37.8586 40.1441C37.5253 43.0371 35.1831 45.2786 32.3433 45.2786C29.6968 45.2786 27.4825 43.3319 26.9234 40.7254C26.7822 40.067 27.2447 39.4302 27.9144 39.3591C29.6528 39.1743 32.9702 38.5294 34.7191 36.2779C34.8864 36.0626 35.1746 35.9818 35.4304 36.076L35.4723 36.0915C35.6983 36.1746 35.8522 36.38 35.8808 36.6191Z" fill="#FAC1AC"/>
<path d="M49.1628 39.0735L45.6262 38.2717V36.8011C46.4243 36.4509 47.15 35.9548 47.766 35.3382C48.7495 34.3547 49.4035 33.1296 49.6742 31.7968C50.8387 31.6471 51.7417 30.6503 51.7417 29.4457C51.7422 28.8198 51.4944 28.2192 51.0527 27.7758V22.3391C51.0527 18.9602 48.3037 16.2114 44.9249 16.2114V16.2295C44.5212 15.7387 43.9099 15.4247 43.2264 15.4234H43.1923C40.9309 15.4234 38.7862 16.3205 37.1513 17.951C35.4757 19.622 34.5529 21.8312 34.5529 24.1717V27.8047C34.1286 28.2457 33.8915 28.8338 33.8914 29.4458C33.8914 29.8702 34.004 30.2685 34.2 30.6133C33.5764 30.4489 32.9337 30.3675 32.2888 30.3711C31.0693 30.3802 29.9203 30.6987 28.9132 31.2509V30.3695C28.9132 27.6484 27.171 25.2712 24.578 24.454L24.3104 25.3031C26.5309 26.0029 28.0229 28.0389 28.0229 30.3695V31.8272C26.5032 32.9769 25.4423 34.7144 25.1722 36.6985C24.2006 37.3414 23.0731 37.6808 21.8985 37.6808C20.3103 37.6808 18.8167 37.0622 17.6928 35.9392C16.5695 34.8151 15.9509 33.3214 15.9509 31.7332V30.5972C15.9509 28.6508 17.0829 26.865 18.8393 26.0322L18.8891 26.0094C20.9876 25.0428 22.3436 22.9245 22.3436 20.6128V19.8512H21.4533V20.6128C21.4533 22.5591 20.3231 24.344 18.5686 25.1765L18.5158 25.2008C16.4169 26.1683 15.0606 28.2865 15.0606 30.5972V37.5321C15.0606 38.479 15.202 39.4135 15.4797 40.3168C14.098 40.8338 12.9569 41.8445 12.2767 43.1536C11.6194 42.3491 11.2506 41.3336 11.2506 40.2846C11.2506 38.8779 11.8874 37.5746 12.998 36.7085C13.6464 36.2017 14.0183 35.4427 14.0183 34.6264V25.5087C14.0183 23.3967 14.8408 21.4112 16.3342 19.9177C17.8118 18.441 19.7752 17.6188 21.8629 17.6026C23.9545 17.5861 25.934 18.4021 27.444 19.9004C28.9853 21.4294 29.834 23.4566 29.834 25.6084V29.4729H30.7242V25.6084C30.7242 23.2175 29.782 20.9659 28.0711 19.2684C26.3912 17.6018 24.1856 16.6957 21.8559 16.7125C19.5332 16.7306 17.3487 17.6453 15.7047 19.2882C14.0431 20.9499 13.1281 23.159 13.1281 25.5088V34.6265C13.1281 35.1671 12.8809 35.6702 12.4502 36.0068C11.1221 37.0424 10.3604 38.6017 10.3604 40.2847C10.3604 41.6949 10.9164 43.0556 11.8947 44.0632C11.6991 44.6614 11.5998 45.2868 11.6004 45.9162V54.4233H22.5208V53.5331H12.4904V45.9162C12.4894 45.2961 12.6026 44.6812 12.8243 44.1021C13.1226 43.3179 13.6103 42.6198 14.2439 42.07C14.8776 41.5202 15.6375 41.1358 16.4559 40.9511L20.2789 40.0846V38.378C21.3618 38.64 22.4921 38.6351 23.5727 38.3637V40.0846L25.1026 40.4315V42.5657C25.1026 44.4413 26.6285 45.967 28.5039 45.967H28.6277V45.0768H28.5039C27.1194 45.0768 25.9929 43.9504 25.9929 42.5657V37.697C25.9929 34.174 28.8201 31.287 32.2953 31.2612C34.0051 31.248 35.6071 31.9032 36.8173 33.1043C38.0276 34.3057 38.6941 35.9065 38.6941 37.6116V42.5657C38.6941 43.9504 37.5676 45.0768 36.1831 45.0768V45.967C38.0585 45.967 39.5844 44.4413 39.5844 42.5657V39.293L40.0617 39.1846V43.2391C40.0616 43.3175 40.0771 43.3952 40.1071 43.4677C40.137 43.5402 40.181 43.6061 40.2365 43.6615C40.2919 43.717 40.3578 43.761 40.4303 43.791C40.5027 43.821 40.5804 43.8365 40.6589 43.8364C40.7502 43.8364 40.8403 43.8155 40.9223 43.7752C41.0043 43.7349 41.076 43.6764 41.1318 43.6041L42.844 41.2204L44.547 43.5918L44.5563 43.6043C44.6325 43.7029 44.7376 43.7752 44.8569 43.8111C44.9763 43.847 45.1039 43.8447 45.2219 43.8044C45.3398 43.7642 45.4422 43.688 45.5148 43.5867C45.5873 43.4853 45.6263 43.3638 45.6263 43.2392V39.1843L48.9661 39.9416C51.5986 40.538 53.4372 42.84 53.4372 45.5397V53.5331H49.6539V46.0947H48.7637V53.5331H41.6102V54.4233H54.3274V45.5397C54.3274 44.0416 53.8126 42.5719 52.8778 41.4016C51.9428 40.2312 50.6235 39.4044 49.1628 39.0735ZM17.0631 36.5687C17.0879 36.5934 17.1139 36.6165 17.1391 36.6409V37.5078C17.1391 38.2889 17.2366 39.0639 17.4265 39.8184L16.3335 40.0661C16.0796 39.2454 15.9506 38.3911 15.9507 37.5321V35.1086C16.2546 35.6428 16.6287 36.1339 17.0631 36.5687ZM19.3887 39.3738L18.2947 39.6217C18.1186 38.9309 18.0294 38.2208 18.0293 37.5078V37.3715C18.4534 37.6638 18.9095 37.9068 19.3887 38.0958V39.3738ZM24.463 39.3738V38.0744C24.6813 37.9855 24.8948 37.8853 25.1027 37.7742V39.5189L24.463 39.3738ZM49.798 30.8633C49.8084 30.706 49.8156 30.5481 49.8156 30.389V30.2035C50.2597 30.0379 50.6261 29.7125 50.8429 29.291C50.8483 29.3422 50.8514 29.3938 50.8514 29.4458C50.8514 30.1138 50.4067 30.6794 49.798 30.8633ZM50.1624 22.3393V28.4286C50.1624 28.7309 50.0276 29.0018 49.8156 29.1862V28.6896C49.8165 27.9458 49.5928 27.2191 49.1737 26.6046C49.0159 26.3732 48.8937 26.1194 48.8114 25.8517C48.7288 25.5831 48.6869 25.3038 48.6869 25.0228V24.1005C48.6869 22.7055 47.5519 21.5705 46.1602 21.5705L45.1358 21.563C45.3286 21.013 45.4267 20.4343 45.4259 19.8515V17.6259C45.4259 17.4524 45.4052 17.2838 45.367 17.1218C48.0486 17.3471 50.1624 19.6003 50.1624 22.3393ZM35.4429 24.1718C35.4429 22.0695 36.2728 20.0841 37.7798 18.5814C39.2467 17.1185 41.168 16.3137 43.1935 16.3137H43.2253C43.9478 16.3151 44.5356 16.9037 44.5356 17.6259V19.8515C44.5356 20.5376 44.3787 21.1936 44.0697 21.801C43.33 23.2518 41.8603 24.1531 40.2341 24.1531C39.0533 24.1531 37.9439 24.6127 37.1107 25.4469C36.2764 26.2813 35.8168 27.3903 35.8168 28.5695V29.1074C35.6984 28.9956 35.6041 28.8608 35.5398 28.7111C35.4755 28.5615 35.4425 28.4003 35.4429 28.2374V24.1718ZM34.8002 29.2243C35.0231 29.6414 35.3818 29.9699 35.8169 30.1552V30.389C35.8169 30.5475 35.8227 30.7056 35.8333 30.8629C35.2255 30.6783 34.7816 30.1132 34.7816 29.4458C34.7815 29.3709 34.7892 29.2973 34.8002 29.2243ZM36.9236 32.0034C36.7796 31.4774 36.7068 30.9344 36.7071 30.3891V28.5695C36.7071 27.628 37.0739 26.7426 37.7403 26.0762C38.4057 25.4101 39.2913 25.0433 40.2341 25.0433C42.1032 25.0433 43.8004 24.0565 44.7288 22.4502L46.1568 22.4607C47.0609 22.4607 47.7966 23.1963 47.7966 24.1005V25.0228C47.7966 25.3926 47.8517 25.7596 47.9607 26.114C48.0693 26.4667 48.2302 26.8011 48.4381 27.1061C48.7563 27.5728 48.9262 28.1248 48.9254 28.6896V30.3891C48.9254 32.0211 48.29 33.5552 47.1366 34.7087C45.9819 35.8624 44.4478 36.4978 42.8167 36.4978C42.074 36.4978 41.3497 36.3663 40.663 36.1069C40.1468 35.9127 39.6595 35.6488 39.2147 35.3226C38.8617 34.2594 38.2633 33.2854 37.4443 32.4726C37.2784 32.308 37.1046 32.1514 36.9236 32.0034ZM39.5844 38.3803V37.6117C39.5844 37.2555 39.5583 36.9033 39.5082 36.557C39.6886 36.654 39.8732 36.743 40.0615 36.8235V38.2717L39.5844 38.3803ZM40.9519 42.329V39.5415L42.2334 40.5448L40.9519 42.329ZM42.8439 39.8922L40.9517 38.4105V37.1365C41.5591 37.3041 42.1865 37.3886 42.8167 37.3879C43.4657 37.3879 44.1116 37.2981 44.736 37.1209V38.4106L42.8439 39.8922ZM44.736 42.329L43.4546 40.5448L44.736 39.5414V42.329Z" fill="#1C243E"/>
<path d="M34.1726 41.0096C34.2859 41.0096 34.3945 40.9646 34.4746 40.8845C34.5547 40.8044 34.5998 40.6958 34.5998 40.5825V40.289C34.6006 40.2324 34.5902 40.1762 34.5691 40.1236C34.548 40.0711 34.5166 40.0233 34.4769 39.9829C34.4371 39.9426 34.3898 39.9106 34.3375 39.8887C34.2853 39.8669 34.2292 39.8556 34.1726 39.8556C34.116 39.8556 34.0599 39.8669 34.0077 39.8887C33.9555 39.9106 33.9081 39.9426 33.8684 39.9829C33.8286 40.0233 33.7973 40.0711 33.7762 40.1236C33.7551 40.1762 33.7446 40.2324 33.7454 40.289V40.5825C33.7454 40.6958 33.7904 40.8044 33.8705 40.8845C33.9506 40.9646 34.0593 41.0096 34.1726 41.0096ZM30.6391 41.0096C30.7524 41.0096 30.861 40.9646 30.9412 40.8845C31.0213 40.8044 31.0663 40.6958 31.0663 40.5825V40.289C31.0663 40.1757 31.0213 40.067 30.9412 39.9869C30.8611 39.9068 30.7524 39.8618 30.6391 39.8618C30.5258 39.8618 30.4171 39.9068 30.337 39.9869C30.2569 40.067 30.2119 40.1757 30.2119 40.289V40.5825C30.2119 40.6386 30.2229 40.6941 30.2444 40.746C30.2659 40.7978 30.2973 40.8449 30.337 40.8846C30.3767 40.9242 30.4238 40.9557 30.4756 40.9771C30.5274 40.9986 30.583 41.0096 30.6391 41.0096ZM34.3917 42.6303L33.5886 42.2462C33.3676 42.7083 32.8943 43.0069 32.3828 43.0069C31.8709 43.0069 31.3977 42.7084 31.1772 42.2466L30.3738 42.63C30.7412 43.3998 31.5298 43.8972 32.3828 43.8972C33.2352 43.8972 34.0236 43.3999 34.3917 42.6303ZM28.5423 37.6416L26.9541 36.0535L27.5836 35.4241L29.1717 37.0122L28.5423 37.6416ZM28.5409 34.4662L30.1291 36.0544L29.4995 36.6838L27.9114 35.0957L28.5409 34.4662Z" fill="#1C243E"/>
<path d="M40.7957 51.3705C40.7957 49.0513 39.2161 47.0735 36.9542 46.5609L34.484 46.001V45.3101C36.5104 44.4983 38.0279 42.5663 38.3011 40.1952C38.3643 39.6467 38.1315 39.0979 37.6935 38.7628C37.2385 38.4145 36.4552 37.666 36.323 36.5661C36.2738 36.1558 36.0067 35.8138 35.6264 35.6738L35.5844 35.6583C35.1437 35.496 34.6548 35.6352 34.3678 36.0047C32.7317 38.1112 29.593 38.7331 27.8675 38.9164C27.6471 38.94 27.434 39.0096 27.2422 39.1208C27.0504 39.232 26.884 39.3822 26.7539 39.5617C26.6242 39.7409 26.5335 39.9455 26.4877 40.162C26.442 40.3785 26.4422 40.6022 26.4884 40.8187C26.7818 42.1866 27.5183 43.4295 28.5623 44.3184C29.0519 44.735 29.606 45.0692 30.203 45.3078V46.001L27.7327 46.5609C25.4709 47.0736 23.8913 49.0514 23.8913 51.3705V54.4234H40.7958V51.3705H40.7957ZM27.3588 40.6319C27.3382 40.5376 27.3378 40.4399 27.3579 40.3454C27.3779 40.2509 27.4178 40.1617 27.475 40.0839C27.5314 40.005 27.604 39.939 27.6879 39.8903C27.7719 39.8417 27.8652 39.8115 27.9617 39.8017C29.8277 39.6033 33.2326 38.9174 35.0709 36.5508C35.0876 36.5293 35.1091 36.5119 35.1336 36.5C35.1581 36.4881 35.1851 36.482 35.2123 36.482C35.2338 36.482 35.2555 36.4858 35.2768 36.4936L35.3187 36.5091C35.3839 36.5331 35.4301 36.5956 35.4392 36.6722C35.6103 38.0965 36.5862 39.0364 37.1526 39.4698C37.2466 39.5422 37.3203 39.6376 37.3665 39.7469C37.4128 39.8561 37.4301 39.9754 37.4168 40.0932C37.1054 42.7956 34.9243 44.8335 32.3437 44.8335C29.9392 44.8334 27.8895 43.1058 27.3588 40.6319ZM32.3436 45.7236C32.7715 45.7236 33.1895 45.6747 33.5938 45.5846V46.1641C33.2466 46.4651 32.8091 46.6297 32.3436 46.6297C31.8841 46.6311 31.4398 46.4656 31.0932 46.164V45.5845C31.5036 45.6767 31.9229 45.7234 32.3436 45.7236ZM30.5161 46.8428C31.0242 47.2811 31.6638 47.5201 32.3436 47.52C33.0233 47.52 33.6629 47.2809 34.1708 46.8428L35.7379 47.198V49.7625H29.0727V47.1701L30.5161 46.8428ZM27.9296 47.4291L28.1826 47.3717V50.6526H36.6282V47.3997L36.7575 47.429C37.0555 47.4965 37.345 47.5972 37.6206 47.7291V53.5331H27.1439V47.693C27.3963 47.5788 27.6595 47.4904 27.9296 47.4291ZM24.7816 51.3705C24.7816 50.1199 25.3422 48.9906 26.2537 48.2446V53.5332H24.7816V51.3705ZM39.9055 53.5332H38.5109V48.3106C39.3762 49.0564 39.9055 50.156 39.9055 51.3705V53.5332ZM21.926 34.7135C21.7582 34.713 21.5939 34.6653 21.452 34.5758C21.31 34.4862 21.1962 34.3586 21.1234 34.2073L20.32 34.5908C20.6136 35.2061 21.2441 35.6037 21.926 35.6037C22.6074 35.6037 23.2376 35.2063 23.5318 34.5911L22.7287 34.2072C22.5815 34.5147 22.2665 34.7135 21.926 34.7135ZM14.3037 43.4984H24.3364V44.3887H14.3037V43.4984ZM25.1168 30.3237C25.2473 30.3239 25.3725 30.3758 25.4647 30.4681C25.557 30.5604 25.6089 30.6855 25.6091 30.816H26.4993C26.4993 30.0537 25.8791 29.4335 25.1168 29.4335C24.3545 29.4335 23.7343 30.0537 23.7343 30.816H24.6245C24.6247 30.6855 24.6766 30.5604 24.7689 30.4681C24.8612 30.3758 24.9863 30.3239 25.1168 30.3237ZM17.3525 30.816H18.2428C18.2429 30.6855 18.2949 30.5604 18.3871 30.4681C18.4794 30.3758 18.6046 30.3239 18.7351 30.3237C19.0066 30.3237 19.2274 30.5446 19.2274 30.816H20.1176C20.1176 30.0537 19.4974 29.4335 18.7351 29.4335C17.9728 29.4335 17.3525 30.0537 17.3525 30.816ZM42.8447 34.3125C43.539 34.3125 44.1813 33.9075 44.4811 33.2807L43.678 32.8967C43.5252 33.216 43.1982 33.4223 42.8448 33.4223C42.6707 33.4219 42.5002 33.3723 42.3529 33.2794C42.2056 33.1865 42.0874 33.054 42.0119 32.897L41.2085 33.2804C41.5074 33.9073 42.1498 34.3125 42.8447 34.3125ZM46.0357 29.1786C46.3072 29.1786 46.5279 29.3993 46.5279 29.6708H47.4182C47.4182 28.9085 46.798 28.2883 46.0357 28.2883C45.2734 28.2883 44.6531 28.9085 44.6531 29.6708H45.5434C45.5435 29.5403 45.5954 29.4152 45.6877 29.3229C45.78 29.2306 45.9051 29.1787 46.0357 29.1786ZM39.6539 29.1786C39.7844 29.1787 39.9095 29.2306 40.0018 29.3229C40.0941 29.4152 40.146 29.5403 40.1461 29.6708H41.0363C41.0363 28.9085 40.4161 28.2883 39.6539 28.2883C38.8915 28.2883 38.2713 28.9085 38.2713 29.6708H39.1615C39.1617 29.5403 39.2136 29.4152 39.3059 29.3229C39.3982 29.2306 39.5234 29.1787 39.6539 29.1786ZM42.3988 43.3918H43.289V52.5275H42.3988V43.3918Z" fill="#1C243E"/>
</svg>
