<svg width="16" height="16" viewBox="0 0 16 16" fill="none" xmlns="http://www.w3.org/2000/svg">
<path d="M1.56681 11.5659C1.44504 11.5658 1.32602 11.5297 1.22478 11.462C1.12354 11.3944 1.04463 11.2982 0.998037 11.1857C0.951442 11.0732 0.939248 10.9494 0.962997 10.83C0.986746 10.7106 1.04537 10.6009 1.13146 10.5147L10.7541 0.892089C10.8109 0.833277 10.8789 0.786366 10.954 0.754094C11.0291 0.721822 11.1099 0.704835 11.1917 0.704125C11.2734 0.703414 11.3545 0.718994 11.4302 0.749956C11.5059 0.780917 11.5746 0.82664 11.6324 0.884457C11.6903 0.942273 11.736 1.01103 11.7669 1.0867C11.7979 1.16238 11.8135 1.24346 11.8128 1.32522C11.8121 1.40698 11.7951 1.48779 11.7628 1.56291C11.7305 1.63804 11.6836 1.70599 11.6248 1.76279L2.00216 11.3854C1.88209 11.5055 1.72445 11.5659 1.56681 11.5659Z" fill="#8E8A9A"/>
<path d="M0.616263 16.0003C0.52438 16.0004 0.433646 15.9799 0.350711 15.9404C0.267776 15.9008 0.194744 15.8432 0.136968 15.7717C0.0791921 15.7003 0.0381372 15.6168 0.0168129 15.5275C-0.00451145 15.4381 -0.00556456 15.3451 0.0137309 15.2552L0.965097 10.8208C0.981844 10.7415 1.01407 10.6663 1.05993 10.5995C1.1058 10.5327 1.16439 10.4756 1.23236 10.4315C1.30033 10.3874 1.37633 10.3571 1.45602 10.3424C1.53571 10.3278 1.61751 10.329 1.69673 10.346C1.77596 10.363 1.85105 10.3954 1.9177 10.4415C1.98436 10.4876 2.04126 10.5463 2.08516 10.6144C2.12905 10.6825 2.15907 10.7586 2.1735 10.8384C2.18793 10.9181 2.18648 10.9999 2.16924 11.0791L1.21787 15.5136C1.18837 15.6513 1.11256 15.7747 1.00309 15.8633C0.893612 15.9518 0.757084 16.0002 0.616263 16.0003ZM5.05012 15.049C4.92835 15.0489 4.80933 15.0128 4.70809 14.9451C4.60685 14.8775 4.52794 14.7813 4.48135 14.6688C4.43475 14.5563 4.42256 14.4325 4.44631 14.3131C4.47006 14.1937 4.52868 14.084 4.61477 13.9978L14.2374 4.37549C14.2942 4.31668 14.3622 4.26976 14.4373 4.23749C14.5124 4.20522 14.5932 4.18823 14.675 4.18752C14.7568 4.18681 14.8378 4.20239 14.9135 4.23335C14.9892 4.26432 15.0579 4.31004 15.1158 4.36786C15.1736 4.42567 15.2193 4.49442 15.2503 4.5701C15.2812 4.64578 15.2968 4.72686 15.2961 4.80862C15.2954 4.89038 15.2784 4.97118 15.2461 5.04631C15.2139 5.12144 15.1669 5.18938 15.1081 5.24619L5.48578 14.8685C5.42864 14.9258 5.36073 14.9713 5.28596 15.0022C5.2112 15.0332 5.13105 15.0491 5.05012 15.049Z" fill="#8E8A9A"/>
<path d="M0.614927 16.0005C0.463194 15.9999 0.317035 15.9432 0.204462 15.8415C0.0918892 15.7398 0.0208207 15.6001 0.00487683 15.4492C-0.0110671 15.2983 0.0292352 15.1468 0.11806 15.0238C0.206884 14.9008 0.337983 14.8148 0.486231 14.7825L4.92071 13.8311C5.08016 13.7975 5.24647 13.8284 5.38319 13.9171C5.5199 14.0058 5.61586 14.1451 5.65005 14.3045C5.68423 14.4638 5.65385 14.6302 5.56556 14.7672C5.47726 14.9042 5.33827 15.0006 5.17902 15.0353L0.744547 15.9866C0.701968 15.9959 0.658507 16.0006 0.614927 16.0005ZM12.931 7.16819C12.8501 7.16834 12.77 7.15248 12.6952 7.12151C12.6205 7.09054 12.5527 7.04509 12.4956 6.98777L9.0125 3.50466C8.95369 3.44786 8.90678 3.37991 8.87451 3.30478C8.84224 3.22966 8.82525 3.14886 8.82454 3.06709C8.82383 2.98533 8.83941 2.90425 8.87037 2.82857C8.90133 2.7529 8.94706 2.68414 9.00487 2.62633C9.06269 2.56851 9.13144 2.52279 9.20712 2.49183C9.28279 2.46087 9.36388 2.44529 9.44564 2.446C9.5274 2.44671 9.6082 2.46369 9.68333 2.49597C9.75846 2.52824 9.8264 2.57515 9.88321 2.63396L13.3663 6.11707C13.4524 6.20319 13.511 6.31289 13.5348 6.43233C13.5585 6.55176 13.5463 6.67555 13.4997 6.78805C13.4531 6.90055 13.3742 6.99671 13.273 7.06437C13.1718 7.13204 13.0527 7.16816 12.931 7.16819ZM14.6727 5.42679C14.5508 5.42689 14.4317 5.39082 14.3303 5.32317C14.229 5.25551 14.15 5.15931 14.1033 5.04673C14.0567 4.93415 14.0445 4.81027 14.0683 4.69075C14.0921 4.57124 14.1508 4.46148 14.237 4.37536C14.5797 4.03268 14.7684 3.5687 14.7684 3.06931C14.7684 2.56992 14.5797 2.10594 14.237 1.76326C13.894 1.42028 13.43 1.23154 12.9307 1.23154C12.4313 1.23154 11.9673 1.42028 11.6246 1.76326C11.5674 1.82045 11.4995 1.86582 11.4248 1.89677C11.3501 1.92772 11.27 1.94365 11.1891 1.94365C11.1082 1.94365 11.0281 1.92772 10.9534 1.89677C10.8787 1.86582 10.8108 1.82045 10.7536 1.76326C10.6964 1.70607 10.651 1.63817 10.6201 1.56345C10.5891 1.48873 10.5732 1.40864 10.5732 1.32776C10.5732 1.24688 10.5891 1.16679 10.6201 1.09206C10.651 1.01734 10.6964 0.949443 10.7536 0.892252C11.3287 0.316814 12.1018 0 12.9307 0C13.7592 0 14.5326 0.316814 15.1077 0.892252C15.6832 1.46738 16 2.24048 16 3.06931C16 3.89814 15.6832 4.67124 15.1077 5.24637C15.0507 5.30365 14.9829 5.34909 14.9082 5.38005C14.8336 5.41102 14.7535 5.4269 14.6727 5.42679Z" fill="#8E8A9A"/>
</svg>
