<svg width="20" height="20" viewBox="0 0 20 20" fill="none" xmlns="http://www.w3.org/2000/svg">
<path d="M5.27267 12.3972C5.17373 12.3971 5.07702 12.3678 4.99476 12.3128C4.91251 12.2578 4.8484 12.1797 4.81054 12.0883C4.77268 11.9969 4.76277 11.8963 4.78207 11.7993C4.80136 11.7023 4.849 11.6131 4.91895 11.5432L12.7373 3.725C12.7835 3.67722 12.8387 3.6391 12.8997 3.61288C12.9607 3.58666 13.0264 3.57286 13.0928 3.57228C13.1593 3.57171 13.2251 3.58437 13.2866 3.60952C13.3481 3.63468 13.404 3.67183 13.4509 3.7188C13.4979 3.76577 13.5351 3.82163 13.5602 3.88312C13.5854 3.9446 13.598 4.01048 13.5975 4.07691C13.5969 4.14334 13.5831 4.20899 13.5569 4.27003C13.5306 4.33107 13.4925 4.38627 13.4447 4.43242L5.62639 12.2506C5.52882 12.3481 5.40074 12.3972 5.27267 12.3972Z" fill="#5F5E61"/>
<path d="M4.50071 16C4.42606 16 4.35234 15.9834 4.28495 15.9512C4.21757 15.9191 4.15823 15.8723 4.11129 15.8143C4.06434 15.7562 4.03099 15.6884 4.01366 15.6158C3.99633 15.5432 3.99548 15.4676 4.01116 15.3946L4.78414 11.7917C4.79774 11.7273 4.82393 11.6662 4.86119 11.6119C4.89845 11.5577 4.94606 11.5113 5.00129 11.4754C5.05651 11.4396 5.11827 11.415 5.18301 11.4031C5.24776 11.3912 5.31422 11.3921 5.37859 11.4059C5.44296 11.4197 5.50397 11.4461 5.55812 11.4836C5.61228 11.521 5.65852 11.5687 5.69418 11.6241C5.72985 11.6794 5.75424 11.7412 5.76596 11.806C5.77768 11.8708 5.77651 11.9373 5.7625 12.0016L4.98951 15.6045C4.96554 15.7163 4.90395 15.8166 4.815 15.8886C4.72606 15.9606 4.61513 15.9999 4.50071 16ZM8.1032 15.227C8.00426 15.227 7.90756 15.1976 7.8253 15.1427C7.74304 15.0877 7.67893 15.0095 7.64107 14.9181C7.60322 14.8267 7.59331 14.7262 7.6126 14.6291C7.6319 14.5321 7.67953 14.443 7.74948 14.373L15.5678 6.55508C15.614 6.5073 15.6692 6.46918 15.7302 6.44296C15.7913 6.41674 15.8569 6.40294 15.9234 6.40236C15.9898 6.40179 16.0557 6.41444 16.1172 6.4396C16.1786 6.46475 16.2345 6.5019 16.2815 6.54888C16.3285 6.59585 16.3656 6.65171 16.3908 6.7132C16.4159 6.77468 16.4286 6.84056 16.428 6.90699C16.4274 6.97342 16.4136 7.03907 16.3874 7.10011C16.3612 7.16114 16.3231 7.21635 16.2753 7.2625L8.45717 15.0804C8.41074 15.127 8.35557 15.1639 8.29482 15.189C8.23407 15.2142 8.16895 15.2271 8.1032 15.227Z" fill="#5F5E61"/>
<path d="M4.4999 16C4.37662 15.9995 4.25786 15.9535 4.1664 15.8708C4.07493 15.7882 4.01719 15.6747 4.00424 15.5521C3.99128 15.4295 4.02403 15.3064 4.0962 15.2064C4.16837 15.1065 4.27488 15.0367 4.39533 15.0104L7.99833 14.2374C8.12788 14.2101 8.26301 14.2352 8.37409 14.3073C8.48517 14.3794 8.56314 14.4925 8.59091 14.622C8.61869 14.7515 8.594 14.8867 8.52226 14.998C8.45053 15.1093 8.33759 15.1876 8.20821 15.2158L4.60522 15.9887C4.57062 15.9963 4.53531 16.0001 4.4999 16ZM14.5066 8.82397C14.4409 8.82409 14.3758 8.8112 14.3151 8.78605C14.2544 8.76089 14.1993 8.72396 14.1529 8.67738L11.3229 5.84745C11.2751 5.8013 11.237 5.74609 11.2108 5.68505C11.1846 5.62401 11.1708 5.55837 11.1702 5.49194C11.1696 5.42551 11.1823 5.35963 11.2074 5.29814C11.2326 5.23666 11.2697 5.1808 11.3167 5.13382C11.3637 5.08685 11.4195 5.0497 11.481 5.02455C11.5425 4.99939 11.6084 4.98673 11.6748 4.98731C11.7412 4.98789 11.8069 5.00169 11.8679 5.02791C11.929 5.05413 11.9842 5.09224 12.0303 5.14003L14.8603 7.96996C14.9303 8.03993 14.9779 8.12907 14.9972 8.2261C15.0165 8.32313 15.0066 8.42371 14.9687 8.51512C14.9309 8.60652 14.8668 8.68465 14.7845 8.73962C14.7023 8.7946 14.6056 8.82395 14.5066 8.82397ZM15.9218 7.40913C15.8227 7.40921 15.7259 7.37991 15.6436 7.32494C15.5612 7.26997 15.4971 7.19181 15.4592 7.10034C15.4213 7.00887 15.4113 6.90822 15.4307 6.81112C15.45 6.71402 15.4977 6.62484 15.5678 6.55487C15.8462 6.27645 15.9996 5.89948 15.9996 5.49374C15.9996 5.08799 15.8462 4.71102 15.5678 4.4326C15.2891 4.15394 14.9121 4.0006 14.5064 4.0006C14.1006 4.0006 13.7236 4.15394 13.4452 4.4326C13.3987 4.47907 13.3436 4.51593 13.2829 4.54108C13.2222 4.56622 13.1571 4.57917 13.0914 4.57917C13.0257 4.57917 12.9606 4.56622 12.8999 4.54108C12.8392 4.51593 12.784 4.47907 12.7375 4.4326C12.6911 4.38614 12.6542 4.33097 12.629 4.27026C12.6039 4.20955 12.591 4.14448 12.591 4.07877C12.591 4.01305 12.6039 3.94798 12.629 3.88727C12.6542 3.82656 12.6911 3.7714 12.7375 3.72493C13.2048 3.2574 13.833 3 14.5064 3C15.1795 3 15.8079 3.2574 16.2752 3.72493C16.7428 4.19221 17.0002 4.82034 17.0002 5.49374C17.0002 6.16714 16.7428 6.79526 16.2752 7.26254C16.2289 7.30908 16.1738 7.346 16.1131 7.37115C16.0525 7.39631 15.9874 7.40922 15.9218 7.40913Z" fill="#5F5E61"/>
</svg>
