<svg width="22" height="22" viewBox="0 0 22 22" fill="none" xmlns="http://www.w3.org/2000/svg">
<path d="M1.37482 21.9918H3.09334C3.85155 21.9918 4.46815 21.3745 4.46815 20.6169V18.2385C4.46815 17.4803 3.85155 16.8637 3.09334 16.8637H1.37482C0.616605 16.8637 0 17.4803 0 18.2385V20.6169C0 21.3745 0.616605 21.9918 1.37482 21.9918ZM1.37482 18.2385H3.09334L3.09471 20.6169H1.37482V18.2385ZM7.21778 21.9918H8.9363C9.69451 21.9918 10.3111 21.3745 10.3111 20.6169V12.0931C10.3111 11.3356 9.69451 10.7183 8.9363 10.7183H7.21778C6.45957 10.7183 5.84297 11.3356 5.84297 12.0931V20.6169C5.84297 21.3745 6.45957 21.9918 7.21778 21.9918ZM7.21778 12.0931H8.9363L8.93768 20.6169H7.21778V12.0931ZM13.0608 13.1104C12.3025 13.1104 11.6859 13.727 11.6859 14.4853V20.6169C11.6859 21.3745 12.3025 21.9918 13.0608 21.9918H14.7793C15.5375 21.9918 16.1541 21.3745 16.1541 20.6169V14.4853C16.1541 13.727 15.5375 13.1104 14.7793 13.1104H13.0608ZM13.0608 20.6169V14.4853H14.7793L14.7806 20.6169H13.0608ZM21.9971 20.6169V7.26747C21.9971 6.50926 21.3804 5.89266 20.6222 5.89266H18.9037C18.1455 5.89266 17.5289 6.50926 17.5289 7.26747V20.6169C17.5289 21.3745 18.1455 21.9918 18.9037 21.9918H20.6222C21.3804 21.9918 21.9971 21.3745 21.9971 20.6169ZM18.9037 7.26747H20.6222L20.6236 20.6169H18.9037V7.26747ZM2.7132 10.1319L7.90038 4.94472C8.0007 4.84486 8.12932 4.7783 8.26878 4.75407C8.40824 4.72985 8.55178 4.74913 8.6799 4.8093L12.7741 6.73473C13.158 6.91545 13.5883 6.97334 14.0063 6.90051C14.4244 6.82768 14.8097 6.62768 15.1099 6.32779L20.2565 1.18185C20.3222 1.11844 20.3746 1.04259 20.4106 0.958723C20.4466 0.874856 20.4656 0.784655 20.4664 0.693381C20.4672 0.602108 20.4498 0.51159 20.4152 0.42711C20.3806 0.34263 20.3296 0.26588 20.2651 0.201337C20.2005 0.136795 20.1238 0.0857524 20.0393 0.0511889C19.9548 0.0166254 19.8643 -0.000767188 19.773 2.59543e-05C19.6817 0.000819097 19.5915 0.0197821 19.5077 0.0558085C19.4238 0.0918349 19.348 0.144203 19.2845 0.209858L14.1379 5.35648C14.0379 5.45631 13.9095 5.52288 13.7702 5.54711C13.631 5.57134 13.4877 5.55206 13.3598 5.4919L9.26557 3.5651C8.88111 3.38544 8.45073 3.32825 8.03269 3.40129C7.61466 3.47432 7.22916 3.67404 6.92839 3.97342L1.7412 9.1606C1.67555 9.22401 1.62318 9.29986 1.58716 9.38373C1.55113 9.46759 1.53217 9.55779 1.53137 9.64907C1.53058 9.74034 1.54797 9.83086 1.58254 9.91534C1.6171 9.99982 1.66814 10.0766 1.73268 10.1411C1.79723 10.2057 1.87398 10.2567 1.95846 10.2913C2.04294 10.3258 2.13345 10.3432 2.22473 10.3424C2.316 10.3416 2.4062 10.3227 2.49007 10.2866C2.57394 10.2506 2.64979 10.1982 2.7132 10.1326V10.1319Z" fill="white"/>
</svg>
