<svg width="20" height="20" viewBox="0 0 20 20" fill="none" xmlns="http://www.w3.org/2000/svg">
<g clip-path="url(#clip0_1312_810)">
<path d="M4 4.85714C4 4.3646 4.19566 3.89223 4.54394 3.54394C4.89223 3.19566 5.3646 3 5.85714 3H13.6376C14.1301 3.00011 14.6024 3.19584 14.9506 3.54414L16.4559 5.04936C16.8042 5.39756 16.9999 5.86985 17 6.36236V14.1429C17 14.6354 16.8043 15.1078 16.4561 15.4561C16.1078 15.8043 15.6354 16 15.1429 16H5.85714C5.3646 16 4.89223 15.8043 4.54394 15.4561C4.19566 15.1078 4 14.6354 4 14.1429V4.85714ZM5.85714 3.92857C5.61087 3.92857 5.37468 4.0264 5.20054 4.20054C5.0264 4.37468 4.92857 4.61087 4.92857 4.85714V14.1429C4.92857 14.3891 5.0264 14.6253 5.20054 14.7995C5.37468 14.9736 5.61087 15.0714 5.85714 15.0714V10.8929C5.85714 10.5234 6.00389 10.1692 6.2651 9.90796C6.52631 9.64675 6.88059 9.5 7.25 9.5H13.75C14.1194 9.5 14.4737 9.64675 14.7349 9.90796C14.9961 10.1692 15.1429 10.5234 15.1429 10.8929V15.0714C15.3891 15.0714 15.6253 14.9736 15.7995 14.7995C15.9736 14.6253 16.0714 14.3891 16.0714 14.1429V6.36236C16.0714 6.1161 15.9735 5.87996 15.7994 5.70586L14.2941 4.20064C14.12 4.02649 13.8839 3.92862 13.6376 3.92857H13.2857V6.25C13.2857 6.61941 13.139 6.97369 12.8778 7.2349C12.6165 7.49611 12.2623 7.64286 11.8929 7.64286H8.17857C7.80916 7.64286 7.45488 7.49611 7.19367 7.2349C6.93246 6.97369 6.78571 6.61941 6.78571 6.25V3.92857H5.85714ZM7.71429 3.92857V6.25C7.71429 6.37314 7.7632 6.49123 7.85027 6.5783C7.93734 6.66537 8.05544 6.71429 8.17857 6.71429H11.8929C12.016 6.71429 12.1341 6.66537 12.2212 6.5783C12.3082 6.49123 12.3571 6.37314 12.3571 6.25V3.92857H7.71429ZM14.2143 15.0714V10.8929C14.2143 10.7697 14.1654 10.6516 14.0783 10.5646C13.9912 10.4775 13.8731 10.4286 13.75 10.4286H7.25C7.12686 10.4286 7.00877 10.4775 6.9217 10.5646C6.83463 10.6516 6.78571 10.7697 6.78571 10.8929V15.0714H14.2143Z" fill="#5F5E61"/>
</g>
<defs>
<clipPath id="clip0_1312_810">
<rect width="20" height="20" fill="white"/>
</clipPath>
</defs>
</svg>
