<svg width="22" height="22" viewBox="0 0 22 22" fill="none" xmlns="http://www.w3.org/2000/svg">
<mask id="path-1-inside-1_977_625" fill="white">
<path d="M19.8499 8.06667H19.756C19.6184 8.06545 19.4844 8.02283 19.3714 7.94434C19.2584 7.86586 19.1716 7.75516 19.1224 7.62667C19.0706 7.50259 19.0569 7.36591 19.083 7.23401C19.1091 7.10212 19.1739 6.98098 19.2691 6.886L19.3358 6.81927C19.7381 6.41545 19.9639 5.86869 19.9639 5.2987C19.9639 4.72871 19.7381 4.18195 19.3358 3.77813L18.2277 2.6708C17.8242 2.26822 17.2775 2.04212 16.7075 2.04212C16.1375 2.04212 15.5908 2.26822 15.1873 2.6708L15.1206 2.73753C15.0223 2.83222 14.8985 2.89614 14.7643 2.92146C14.6302 2.94678 14.4916 2.93239 14.3655 2.88006C14.2395 2.82773 14.1314 2.73974 14.0546 2.62688C13.9779 2.51403 13.9357 2.38121 13.9333 2.24473V2.15013C13.9328 1.58006 13.706 1.0335 13.3029 0.630403C12.8998 0.227301 12.3533 0.0005824 11.7832 0H10.2168C9.64673 0.0005824 9.10017 0.227301 8.69707 0.630403C8.29397 1.0335 8.06725 1.58006 8.06667 2.15013V2.24473C8.06309 2.38023 8.02032 2.51179 7.94352 2.62347C7.86672 2.73516 7.75919 2.82219 7.63395 2.87403C7.5087 2.92586 7.37112 2.94028 7.23785 2.91553C7.10459 2.89079 6.98135 2.82794 6.88307 2.7346L6.82 2.66787C6.4165 2.26528 5.86979 2.03919 5.2998 2.03919C4.72981 2.03919 4.1831 2.26528 3.7796 2.66787L2.66787 3.7752C2.2656 4.17901 2.03973 4.72578 2.03973 5.29577C2.03973 5.86576 2.2656 6.41252 2.66787 6.81633L2.7346 6.88307C2.83071 6.98139 2.89503 7.10634 2.91922 7.24169C2.94342 7.37704 2.92636 7.51654 2.87027 7.64207C2.81994 7.7671 2.73348 7.87429 2.62192 7.94992C2.51036 8.02556 2.37878 8.0662 2.244 8.06667H2.15013C1.58006 8.06725 1.0335 8.29397 0.630403 8.69707C0.227301 9.10017 0.0005824 9.64673 0 10.2168V11.7832C0.0005824 12.3533 0.227301 12.8998 0.630403 13.3029C1.0335 13.706 1.58006 13.9328 2.15013 13.9333H2.244C2.38159 13.9345 2.51562 13.9772 2.62863 14.0557C2.74165 14.1341 2.8284 14.2448 2.8776 14.3733C2.9294 14.4974 2.94311 14.6341 2.91699 14.766C2.89087 14.8979 2.82611 15.019 2.73093 15.114L2.6642 15.1807C2.26193 15.5845 2.03606 16.1313 2.03606 16.7013C2.03606 17.2713 2.26193 17.8181 2.6642 18.2219L3.77153 19.3285C4.17497 19.7315 4.72187 19.9578 5.2921 19.9578C5.86233 19.9578 6.40923 19.7315 6.81267 19.3285L6.8794 19.2617C6.97778 19.1657 7.10273 19.1014 7.23805 19.0773C7.37338 19.0531 7.51285 19.0701 7.6384 19.1261C7.76343 19.1762 7.87065 19.2625 7.9463 19.3739C8.02195 19.4854 8.06259 19.6169 8.063 19.7516V19.8462C8.06281 20.1291 8.11839 20.4093 8.22656 20.6707C8.33473 20.9321 8.49337 21.1696 8.6934 21.3696C8.89344 21.5696 9.13095 21.7283 9.39235 21.8364C9.65375 21.9446 9.9339 22.0002 10.2168 22H11.7832C12.3533 21.9994 12.8998 21.7727 13.3029 21.3696C13.706 20.9665 13.9328 20.4199 13.9333 19.8499V19.7553C13.9369 19.6198 13.9797 19.4882 14.0565 19.3765C14.1333 19.2648 14.2408 19.1778 14.3661 19.126C14.4913 19.0741 14.6289 19.0597 14.7621 19.0845C14.8954 19.1092 15.0186 19.1721 15.1169 19.2654L15.1837 19.3321C15.5872 19.7347 16.1339 19.9608 16.7039 19.9608C17.2739 19.9608 17.8206 19.7347 18.2241 19.3321L19.3321 18.2255C19.7344 17.8217 19.9603 17.275 19.9603 16.705C19.9603 16.135 19.7344 15.5882 19.3321 15.1844L19.2654 15.1177C19.1693 15.0193 19.105 14.8944 19.0808 14.759C19.0566 14.6237 19.0736 14.4842 19.1297 14.3587C19.1799 14.2335 19.2664 14.1262 19.3779 14.0504C19.4895 13.9746 19.6211 13.9339 19.756 13.9333H19.8499C20.4199 13.9328 20.9665 13.706 21.3696 13.3029C21.7727 12.8998 21.9994 12.3533 22 11.7832V10.2168C21.9994 9.64673 21.7727 9.10017 21.3696 8.69707C20.9665 8.29397 20.4199 8.06725 19.8499 8.06667ZM20.5333 11.7832C20.5331 11.9644 20.4611 12.1381 20.3329 12.2663C20.2048 12.3944 20.0311 12.4665 19.8499 12.4667H19.756C19.3304 12.4703 18.9154 12.5991 18.5625 12.837C18.2097 13.075 17.9347 13.4115 17.7718 13.8047C17.6089 14.1978 17.5653 14.6302 17.6465 15.048C17.7278 15.4657 17.9301 15.8504 18.2285 16.1539L18.2945 16.2206C18.4225 16.349 18.4944 16.5229 18.4944 16.7042C18.4944 16.8856 18.4225 17.0595 18.2945 17.1879L17.1864 18.2945C17.0582 18.4226 16.8844 18.4946 16.7031 18.4946C16.5219 18.4946 16.348 18.4226 16.2199 18.2945L16.1539 18.2277C15.8502 17.9298 15.4656 17.7277 15.048 17.6467C14.6304 17.5656 14.1981 17.6093 13.8051 17.7721C13.4121 17.9349 13.0756 18.2098 12.8376 18.5624C12.5996 18.915 12.4706 19.3299 12.4667 19.7553V19.8499C12.4665 20.0311 12.3944 20.2048 12.2663 20.3329C12.1381 20.4611 11.9644 20.5331 11.7832 20.5333H10.2168C10.0356 20.5331 9.86186 20.4611 9.73373 20.3329C9.6056 20.2048 9.53353 20.0311 9.53333 19.8499V19.7553C9.53127 19.329 9.40337 18.9128 9.16567 18.559C8.92797 18.2051 8.59106 17.9294 8.19722 17.7663C7.80338 17.6032 7.37014 17.5601 6.95188 17.6423C6.53361 17.7245 6.14894 17.9284 5.84613 18.2285L5.7794 18.2952C5.65104 18.423 5.47727 18.4948 5.29613 18.4948C5.11499 18.4948 4.94123 18.423 4.81287 18.2952L3.70553 17.1886C3.5775 17.0602 3.50561 16.8863 3.50561 16.705C3.50561 16.5236 3.5775 16.3497 3.70553 16.2213L3.77227 16.1546C4.07088 15.8511 4.27349 15.4663 4.35482 15.0484C4.43615 14.6305 4.39259 14.1978 4.22959 13.8045C4.06659 13.4111 3.79136 13.0745 3.43824 12.8366C3.08513 12.5987 2.66977 12.47 2.244 12.4667H2.15013C1.96893 12.4665 1.7952 12.3944 1.66706 12.2663C1.53893 12.1381 1.46686 11.9644 1.46667 11.7832V10.2168C1.46686 10.0356 1.53893 9.86186 1.66706 9.73373C1.7952 9.6056 1.96893 9.53353 2.15013 9.53333H2.244C2.66956 9.52971 3.08464 9.40091 3.43749 9.16298C3.79034 8.92505 4.06535 8.58852 4.22823 8.19535C4.39111 7.80218 4.43466 7.36976 4.35345 6.95201C4.27224 6.53425 4.06985 6.14964 3.77153 5.84613L3.70553 5.7794C3.57755 5.65113 3.50567 5.47733 3.50567 5.29613C3.50567 5.11493 3.57755 4.94114 3.70553 4.81287L4.81287 3.7048C4.94104 3.57664 5.11488 3.50463 5.29613 3.50463C5.47739 3.50463 5.65123 3.57664 5.7794 3.7048L5.8454 3.77153C6.14896 4.06971 6.53354 4.27199 6.95124 4.35317C7.36893 4.43436 7.80128 4.39086 8.19443 4.2281C8.58758 4.06533 8.92416 3.7905 9.16224 3.43782C9.40031 3.08515 9.52937 2.67023 9.53333 2.24473V2.15013C9.53353 1.96893 9.6056 1.7952 9.73373 1.66706C9.86186 1.53893 10.0356 1.46686 10.2168 1.46667H11.7832C11.9644 1.46686 12.1381 1.53893 12.2663 1.66706C12.3944 1.7952 12.4665 1.96893 12.4667 2.15013V2.24473C12.4704 2.67023 12.5993 3.08521 12.8373 3.43795C13.0753 3.79069 13.4118 4.06559 13.805 4.22838C14.1981 4.39117 14.6305 4.43466 15.0482 4.35342C15.4659 4.27218 15.8504 4.06981 16.1539 3.77153L16.2206 3.7048C16.3488 3.57664 16.5226 3.50463 16.7039 3.50463C16.8851 3.50463 17.059 3.57664 17.1871 3.7048L18.2945 4.81287C18.4225 4.94114 18.4943 5.11493 18.4943 5.29613C18.4943 5.47733 18.4225 5.65113 18.2945 5.7794L18.2277 5.84613C17.9294 6.14969 17.727 6.53436 17.6458 6.95218C17.5646 7.37 17.6082 7.80248 17.7712 8.19568C17.9342 8.58888 18.2093 8.9254 18.5622 9.16328C18.9152 9.40115 19.3304 9.52985 19.756 9.53333H19.8499C20.0311 9.53353 20.2048 9.6056 20.3329 9.73373C20.4611 9.86186 20.5331 10.0356 20.5333 10.2168V11.7832Z"/>
</mask>
<path d="M19.8499 8.06667H19.756C19.6184 8.06545 19.4844 8.02283 19.3714 7.94434C19.2584 7.86586 19.1716 7.75516 19.1224 7.62667C19.0706 7.50259 19.0569 7.36591 19.083 7.23401C19.1091 7.10212 19.1739 6.98098 19.2691 6.886L19.3358 6.81927C19.7381 6.41545 19.9639 5.86869 19.9639 5.2987C19.9639 4.72871 19.7381 4.18195 19.3358 3.77813L18.2277 2.6708C17.8242 2.26822 17.2775 2.04212 16.7075 2.04212C16.1375 2.04212 15.5908 2.26822 15.1873 2.6708L15.1206 2.73753C15.0223 2.83222 14.8985 2.89614 14.7643 2.92146C14.6302 2.94678 14.4916 2.93239 14.3655 2.88006C14.2395 2.82773 14.1314 2.73974 14.0546 2.62688C13.9779 2.51403 13.9357 2.38121 13.9333 2.24473V2.15013C13.9328 1.58006 13.706 1.0335 13.3029 0.630403C12.8998 0.227301 12.3533 0.0005824 11.7832 0H10.2168C9.64673 0.0005824 9.10017 0.227301 8.69707 0.630403C8.29397 1.0335 8.06725 1.58006 8.06667 2.15013V2.24473C8.06309 2.38023 8.02032 2.51179 7.94352 2.62347C7.86672 2.73516 7.75919 2.82219 7.63395 2.87403C7.5087 2.92586 7.37112 2.94028 7.23785 2.91553C7.10459 2.89079 6.98135 2.82794 6.88307 2.7346L6.82 2.66787C6.4165 2.26528 5.86979 2.03919 5.2998 2.03919C4.72981 2.03919 4.1831 2.26528 3.7796 2.66787L2.66787 3.7752C2.2656 4.17901 2.03973 4.72578 2.03973 5.29577C2.03973 5.86576 2.2656 6.41252 2.66787 6.81633L2.7346 6.88307C2.83071 6.98139 2.89503 7.10634 2.91922 7.24169C2.94342 7.37704 2.92636 7.51654 2.87027 7.64207C2.81994 7.7671 2.73348 7.87429 2.62192 7.94992C2.51036 8.02556 2.37878 8.0662 2.244 8.06667H2.15013C1.58006 8.06725 1.0335 8.29397 0.630403 8.69707C0.227301 9.10017 0.0005824 9.64673 0 10.2168V11.7832C0.0005824 12.3533 0.227301 12.8998 0.630403 13.3029C1.0335 13.706 1.58006 13.9328 2.15013 13.9333H2.244C2.38159 13.9345 2.51562 13.9772 2.62863 14.0557C2.74165 14.1341 2.8284 14.2448 2.8776 14.3733C2.9294 14.4974 2.94311 14.6341 2.91699 14.766C2.89087 14.8979 2.82611 15.019 2.73093 15.114L2.6642 15.1807C2.26193 15.5845 2.03606 16.1313 2.03606 16.7013C2.03606 17.2713 2.26193 17.8181 2.6642 18.2219L3.77153 19.3285C4.17497 19.7315 4.72187 19.9578 5.2921 19.9578C5.86233 19.9578 6.40923 19.7315 6.81267 19.3285L6.8794 19.2617C6.97778 19.1657 7.10273 19.1014 7.23805 19.0773C7.37338 19.0531 7.51285 19.0701 7.6384 19.1261C7.76343 19.1762 7.87065 19.2625 7.9463 19.3739C8.02195 19.4854 8.06259 19.6169 8.063 19.7516V19.8462C8.06281 20.1291 8.11839 20.4093 8.22656 20.6707C8.33473 20.9321 8.49337 21.1696 8.6934 21.3696C8.89344 21.5696 9.13095 21.7283 9.39235 21.8364C9.65375 21.9446 9.9339 22.0002 10.2168 22H11.7832C12.3533 21.9994 12.8998 21.7727 13.3029 21.3696C13.706 20.9665 13.9328 20.4199 13.9333 19.8499V19.7553C13.9369 19.6198 13.9797 19.4882 14.0565 19.3765C14.1333 19.2648 14.2408 19.1778 14.3661 19.126C14.4913 19.0741 14.6289 19.0597 14.7621 19.0845C14.8954 19.1092 15.0186 19.1721 15.1169 19.2654L15.1837 19.3321C15.5872 19.7347 16.1339 19.9608 16.7039 19.9608C17.2739 19.9608 17.8206 19.7347 18.2241 19.3321L19.3321 18.2255C19.7344 17.8217 19.9603 17.275 19.9603 16.705C19.9603 16.135 19.7344 15.5882 19.3321 15.1844L19.2654 15.1177C19.1693 15.0193 19.105 14.8944 19.0808 14.759C19.0566 14.6237 19.0736 14.4842 19.1297 14.3587C19.1799 14.2335 19.2664 14.1262 19.3779 14.0504C19.4895 13.9746 19.6211 13.9339 19.756 13.9333H19.8499C20.4199 13.9328 20.9665 13.706 21.3696 13.3029C21.7727 12.8998 21.9994 12.3533 22 11.7832V10.2168C21.9994 9.64673 21.7727 9.10017 21.3696 8.69707C20.9665 8.29397 20.4199 8.06725 19.8499 8.06667ZM20.5333 11.7832C20.5331 11.9644 20.4611 12.1381 20.3329 12.2663C20.2048 12.3944 20.0311 12.4665 19.8499 12.4667H19.756C19.3304 12.4703 18.9154 12.5991 18.5625 12.837C18.2097 13.075 17.9347 13.4115 17.7718 13.8047C17.6089 14.1978 17.5653 14.6302 17.6465 15.048C17.7278 15.4657 17.9301 15.8504 18.2285 16.1539L18.2945 16.2206C18.4225 16.349 18.4944 16.5229 18.4944 16.7042C18.4944 16.8856 18.4225 17.0595 18.2945 17.1879L17.1864 18.2945C17.0582 18.4226 16.8844 18.4946 16.7031 18.4946C16.5219 18.4946 16.348 18.4226 16.2199 18.2945L16.1539 18.2277C15.8502 17.9298 15.4656 17.7277 15.048 17.6467C14.6304 17.5656 14.1981 17.6093 13.8051 17.7721C13.4121 17.9349 13.0756 18.2098 12.8376 18.5624C12.5996 18.915 12.4706 19.3299 12.4667 19.7553V19.8499C12.4665 20.0311 12.3944 20.2048 12.2663 20.3329C12.1381 20.4611 11.9644 20.5331 11.7832 20.5333H10.2168C10.0356 20.5331 9.86186 20.4611 9.73373 20.3329C9.6056 20.2048 9.53353 20.0311 9.53333 19.8499V19.7553C9.53127 19.329 9.40337 18.9128 9.16567 18.559C8.92797 18.2051 8.59106 17.9294 8.19722 17.7663C7.80338 17.6032 7.37014 17.5601 6.95188 17.6423C6.53361 17.7245 6.14894 17.9284 5.84613 18.2285L5.7794 18.2952C5.65104 18.423 5.47727 18.4948 5.29613 18.4948C5.11499 18.4948 4.94123 18.423 4.81287 18.2952L3.70553 17.1886C3.5775 17.0602 3.50561 16.8863 3.50561 16.705C3.50561 16.5236 3.5775 16.3497 3.70553 16.2213L3.77227 16.1546C4.07088 15.8511 4.27349 15.4663 4.35482 15.0484C4.43615 14.6305 4.39259 14.1978 4.22959 13.8045C4.06659 13.4111 3.79136 13.0745 3.43824 12.8366C3.08513 12.5987 2.66977 12.47 2.244 12.4667H2.15013C1.96893 12.4665 1.7952 12.3944 1.66706 12.2663C1.53893 12.1381 1.46686 11.9644 1.46667 11.7832V10.2168C1.46686 10.0356 1.53893 9.86186 1.66706 9.73373C1.7952 9.6056 1.96893 9.53353 2.15013 9.53333H2.244C2.66956 9.52971 3.08464 9.40091 3.43749 9.16298C3.79034 8.92505 4.06535 8.58852 4.22823 8.19535C4.39111 7.80218 4.43466 7.36976 4.35345 6.95201C4.27224 6.53425 4.06985 6.14964 3.77153 5.84613L3.70553 5.7794C3.57755 5.65113 3.50567 5.47733 3.50567 5.29613C3.50567 5.11493 3.57755 4.94114 3.70553 4.81287L4.81287 3.7048C4.94104 3.57664 5.11488 3.50463 5.29613 3.50463C5.47739 3.50463 5.65123 3.57664 5.7794 3.7048L5.8454 3.77153C6.14896 4.06971 6.53354 4.27199 6.95124 4.35317C7.36893 4.43436 7.80128 4.39086 8.19443 4.2281C8.58758 4.06533 8.92416 3.7905 9.16224 3.43782C9.40031 3.08515 9.52937 2.67023 9.53333 2.24473V2.15013C9.53353 1.96893 9.6056 1.7952 9.73373 1.66706C9.86186 1.53893 10.0356 1.46686 10.2168 1.46667H11.7832C11.9644 1.46686 12.1381 1.53893 12.2663 1.66706C12.3944 1.7952 12.4665 1.96893 12.4667 2.15013V2.24473C12.4704 2.67023 12.5993 3.08521 12.8373 3.43795C13.0753 3.79069 13.4118 4.06559 13.805 4.22838C14.1981 4.39117 14.6305 4.43466 15.0482 4.35342C15.4659 4.27218 15.8504 4.06981 16.1539 3.77153L16.2206 3.7048C16.3488 3.57664 16.5226 3.50463 16.7039 3.50463C16.8851 3.50463 17.059 3.57664 17.1871 3.7048L18.2945 4.81287C18.4225 4.94114 18.4943 5.11493 18.4943 5.29613C18.4943 5.47733 18.4225 5.65113 18.2945 5.7794L18.2277 5.84613C17.9294 6.14969 17.727 6.53436 17.6458 6.95218C17.5646 7.37 17.6082 7.80248 17.7712 8.19568C17.9342 8.58888 18.2093 8.9254 18.5622 9.16328C18.9152 9.40115 19.3304 9.52985 19.756 9.53333H19.8499C20.0311 9.53353 20.2048 9.6056 20.3329 9.73373C20.4611 9.86186 20.5331 10.0356 20.5333 10.2168V11.7832Z" fill="white" stroke="white" stroke-width="32" mask="url(#path-1-inside-1_977_625)"/>
<mask id="path-2-inside-2_977_625" fill="white">
<path d="M11 5.8667C9.98476 5.8667 8.99228 6.16776 8.14811 6.73182C7.30394 7.29588 6.64598 8.0976 6.25745 9.03559C5.86892 9.97359 5.76727 11.0057 5.96534 12.0015C6.16341 12.9973 6.65231 13.9119 7.37022 14.6298C8.08813 15.3478 9.0028 15.8367 9.99857 16.0347C10.9943 16.2328 12.0265 16.1311 12.9645 15.7426C13.9025 15.3541 14.7042 14.6961 15.2682 13.852C15.8323 13.0078 16.1334 12.0153 16.1334 11C16.1318 9.63907 15.5905 8.33428 14.6281 7.37193C13.6658 6.40958 12.361 5.86825 11 5.8667ZM11 14.6667C10.2748 14.6667 9.56592 14.4517 8.96294 14.0488C8.35996 13.6459 7.89 13.0732 7.61248 12.4032C7.33495 11.7332 7.26234 10.996 7.40382 10.2847C7.5453 9.57344 7.89452 8.9201 8.40731 8.40731C8.9201 7.89452 9.57344 7.5453 10.2847 7.40382C10.996 7.26234 11.7332 7.33495 12.4032 7.61247C13.0732 7.89 13.6459 8.35996 14.0488 8.96294C14.4517 9.56592 14.6667 10.2748 14.6667 11C14.6655 11.9721 14.2789 12.9041 13.5915 13.5915C12.9041 14.2789 11.9721 14.6655 11 14.6667Z"/>
</mask>
<path d="M11 5.8667C9.98476 5.8667 8.99228 6.16776 8.14811 6.73182C7.30394 7.29588 6.64598 8.0976 6.25745 9.03559C5.86892 9.97359 5.76727 11.0057 5.96534 12.0015C6.16341 12.9973 6.65231 13.9119 7.37022 14.6298C8.08813 15.3478 9.0028 15.8367 9.99857 16.0347C10.9943 16.2328 12.0265 16.1311 12.9645 15.7426C13.9025 15.3541 14.7042 14.6961 15.2682 13.852C15.8323 13.0078 16.1334 12.0153 16.1334 11C16.1318 9.63907 15.5905 8.33428 14.6281 7.37193C13.6658 6.40958 12.361 5.86825 11 5.8667ZM11 14.6667C10.2748 14.6667 9.56592 14.4517 8.96294 14.0488C8.35996 13.6459 7.89 13.0732 7.61248 12.4032C7.33495 11.7332 7.26234 10.996 7.40382 10.2847C7.5453 9.57344 7.89452 8.9201 8.40731 8.40731C8.9201 7.89452 9.57344 7.5453 10.2847 7.40382C10.996 7.26234 11.7332 7.33495 12.4032 7.61247C13.0732 7.89 13.6459 8.35996 14.0488 8.96294C14.4517 9.56592 14.6667 10.2748 14.6667 11C14.6655 11.9721 14.2789 12.9041 13.5915 13.5915C12.9041 14.2789 11.9721 14.6655 11 14.6667Z" fill="white"/>
<path d="M11 5.8667L11.0183 -10.1333L11.0092 -10.1333H11V5.8667ZM16.1334 11H32.1334V10.9909L32.1334 10.9818L16.1334 11ZM11 14.6667V30.6667H11.0096L11.0192 30.6667L11 14.6667ZM14.6667 11L30.6667 11.0192L30.6667 11.0096V11H14.6667ZM11 5.8667V-10.1333C6.82026 -10.1333 2.73434 -8.89385 -0.741017 -6.57169L8.14811 6.73182L17.0372 20.0353C15.2502 21.2294 13.1493 21.8667 11 21.8667V5.8667ZM8.14811 6.73182L-0.741017 -6.57169C-4.21638 -4.24953 -6.92509 -0.948955 -8.52462 2.91266L6.25745 9.03559L21.0395 15.1585C20.2171 17.1441 18.8242 18.8413 17.0372 20.0353L8.14811 6.73182ZM6.25745 9.03559L-8.52462 2.91266C-10.1242 6.77427 -10.5427 11.0235 -9.72723 15.1229L5.96534 12.0015L21.6579 8.88005C22.0772 10.988 21.862 13.1729 21.0395 15.1585L6.25745 9.03559ZM5.96534 12.0015L-9.72723 15.1229C-8.91179 19.2224 -6.89904 22.988 -3.94349 25.9436L7.37022 14.6298L18.6839 3.31614C20.2037 4.83587 21.2386 6.77212 21.6579 8.88005L5.96534 12.0015ZM7.37022 14.6298L-3.94349 25.9436C-0.987946 28.8991 2.77765 30.9119 6.87713 31.7273L9.99857 16.0347L13.12 0.342167C15.228 0.761462 17.1642 1.79642 18.6839 3.31614L7.37022 14.6298ZM9.99857 16.0347L6.87713 31.7273C10.9766 32.5427 15.2258 32.1242 19.0874 30.5247L12.9645 15.7426L6.84154 0.960543C8.82716 0.138071 11.0121 -0.0771255 13.12 0.342167L9.99857 16.0347ZM12.9645 15.7426L19.0874 30.5247C22.949 28.9252 26.2496 26.2164 28.5718 22.7411L15.2682 13.852L1.96473 4.96284C3.15878 3.17582 4.85592 1.78301 6.84154 0.960543L12.9645 15.7426ZM15.2682 13.852L28.5718 22.7411C30.8939 19.2657 32.1334 15.1798 32.1334 11H16.1334H0.133368C0.133368 8.85082 0.770683 6.74986 1.96473 4.96284L15.2682 13.852ZM16.1334 11L32.1334 10.9818C32.127 5.38367 29.9003 0.0166845 25.9418 -3.94177L14.6281 7.37193L3.31442 18.6856C1.28067 16.6519 0.136659 13.8945 0.133378 11.0183L16.1334 11ZM14.6281 7.37193L25.9418 -3.94177C21.9834 -7.90023 16.6164 -10.1269 11.0183 -10.1333L11 5.8667L10.9818 21.8667C8.10561 21.8634 5.34818 20.7194 3.31442 18.6856L14.6281 7.37193ZM11 14.6667V-1.3333C13.4393 -1.3333 15.8239 -0.609965 17.8521 0.745243L8.96294 14.0488L0.0738187 27.3523C3.30799 29.5133 7.11034 30.6667 11 30.6667V14.6667ZM8.96294 14.0488L17.8521 0.745243C19.8803 2.10044 21.4611 4.02665 22.3945 6.28027L7.61248 12.4032L-7.1696 18.5261C-5.68107 22.1198 -3.16034 25.1913 0.0738187 27.3523L8.96294 14.0488ZM7.61248 12.4032L22.3945 6.28027C23.328 8.53389 23.5723 11.0137 23.0964 13.4061L7.40382 10.2847L-8.28874 7.16326C-9.04759 10.9782 -8.65812 14.9325 -7.1696 18.5261L7.61248 12.4032ZM7.40382 10.2847L23.0964 13.4061C22.6205 15.7986 21.4459 17.9962 19.721 19.721L8.40731 8.40731L-2.9064 -2.9064C-5.65683 -0.155969 -7.5299 3.34829 -8.28874 7.16326L7.40382 10.2847ZM8.40731 8.40731L19.721 19.721C17.9962 21.4459 15.7986 22.6205 13.4061 23.0964L10.2847 7.40382L7.16326 -8.28874C3.34829 -7.5299 -0.15597 -5.65683 -2.9064 -2.9064L8.40731 8.40731ZM10.2847 7.40382L13.4061 23.0964C11.0137 23.5723 8.53389 23.328 6.28027 22.3945L12.4032 7.61247L18.5261 -7.1696C14.9325 -8.65812 10.9782 -9.04759 7.16326 -8.28874L10.2847 7.40382ZM12.4032 7.61247L6.28027 22.3945C4.02664 21.4611 2.10044 19.8803 0.745242 17.8521L14.0488 8.96294L27.3523 0.0738192C25.1913 -3.16034 22.1198 -5.68107 18.5261 -7.1696L12.4032 7.61247ZM14.0488 8.96294L0.745242 17.8521C-0.609965 15.8239 -1.3333 13.4393 -1.3333 11H14.6667H30.6667C30.6667 7.11034 29.5133 3.30799 27.3523 0.0738192L14.0488 8.96294ZM14.6667 11L-1.33329 10.9809C-1.32938 7.71616 -0.0307484 4.58628 2.27776 2.27777L13.5915 13.5915L24.9052 24.9052C28.5885 21.2219 30.6604 16.2281 30.6667 11.0192L14.6667 11ZM13.5915 13.5915L2.27776 2.27777C4.58628 -0.0307479 7.71616 -1.32938 10.9809 -1.33329L11 14.6667L11.0192 30.6667C16.2281 30.6604 21.2219 28.5885 24.9052 24.9052L13.5915 13.5915Z" fill="white" mask="url(#path-2-inside-2_977_625)"/>
</svg>
