<svg width="68" height="68" viewBox="0 0 68 68" fill="none" xmlns="http://www.w3.org/2000/svg">
<rect width="67.027" height="67.027" rx="4" fill="#54BFC6" fill-opacity="0.4"/>
<path d="M10.3581 51.3795H18.9486V15.4194H10.3581C9.25476 15.4194 8.36035 16.3138 8.36035 17.4172V49.3818C8.36035 50.4851 9.25476 51.3795 10.3581 51.3795Z" fill="#C8EFFE"/>
<path d="M15.9521 15.4194H18.9488V51.3796H15.9521V15.4194Z" fill="#99E6FC"/>
<path d="M18.9484 46.3851V43.3884H13.7542C13.5422 43.3884 13.339 43.4726 13.1891 43.6224C13.0393 43.7723 12.9551 43.9756 12.9551 44.1875V45.5859C12.9551 45.6908 12.9757 45.7948 13.0159 45.8917C13.0561 45.9886 13.1149 46.0767 13.1891 46.1509C13.2633 46.2251 13.3514 46.284 13.4484 46.3242C13.5453 46.3643 13.6492 46.385 13.7542 46.385H18.9484V46.3851Z" fill="#8BC727"/>
<path d="M18.9491 28.405V25.4084H13.1555C13.0506 25.4084 12.9467 25.429 12.8497 25.4692C12.7528 25.5093 12.6647 25.5682 12.5905 25.6424C12.5163 25.7166 12.4574 25.8047 12.4173 25.9016C12.3771 25.9986 12.3564 26.1025 12.3564 26.2074V27.6059C12.3564 27.7108 12.3771 27.8147 12.4173 27.9117C12.4574 28.0086 12.5163 28.0967 12.5905 28.1709C12.6647 28.2451 12.7528 28.304 12.8497 28.3441C12.9467 28.3843 13.0506 28.4049 13.1555 28.4049H18.9491V28.405Z" fill="#3C87D0"/>
<path d="M44.9194 55.3751H20.946C19.8427 55.3751 18.9482 54.4807 18.9482 53.3774V13.4216C18.9482 12.3182 19.8427 11.4238 20.946 11.4238H44.9194C46.0228 11.4238 46.9172 12.3182 46.9172 13.4216V53.3773C46.9172 54.4806 46.0227 55.3751 44.9194 55.3751Z" fill="#DFF6FD"/>
<path d="M55.5084 51.3795H46.918V15.4194H55.5084C56.6118 15.4194 57.5062 16.3138 57.5062 17.4172V49.3818C57.5062 50.4851 56.6118 51.3795 55.5084 51.3795Z" fill="#C8EFFE"/>
<path d="M46.918 15.4194H49.9147V51.3796H46.918V15.4194Z" fill="#99E6FC"/>
<path d="M26.9395 50.5804V49.182C26.9395 48.9701 27.0236 48.7668 27.1735 48.617C27.3234 48.4671 27.5266 48.3829 27.7385 48.3829H38.127C38.339 48.3829 38.5422 48.4671 38.6921 48.617C38.8419 48.7668 38.9261 48.9701 38.9261 49.182V50.5804C38.9261 50.6854 38.9054 50.7893 38.8653 50.8862C38.8251 50.9832 38.7663 51.0713 38.6921 51.1455C38.6179 51.2197 38.5298 51.2785 38.4328 51.3187C38.3359 51.3589 38.232 51.3795 38.127 51.3795H27.7386C27.6337 51.3795 27.5298 51.3589 27.4328 51.3187C27.3358 51.2786 27.2477 51.2197 27.1735 51.1455C27.0993 51.0713 27.0405 50.9832 27.0003 50.8863C26.9601 50.7893 26.9395 50.6854 26.9395 50.5804Z" fill="#A2E62E"/>
<path d="M46.918 46.3851V43.3884H52.1122C52.3241 43.3884 52.5273 43.4726 52.6772 43.6224C52.8271 43.7723 52.9113 43.9756 52.9113 44.1875V45.5859C52.9113 45.7978 52.8271 46.0011 52.6772 46.1509C52.5273 46.3008 52.3241 46.385 52.1122 46.385H46.918V46.3851Z" fill="#8BC727"/>
<path d="M38.1276 48.3828H35.1309C35.3428 48.3828 35.546 48.467 35.6959 48.6169C35.8458 48.7667 35.9299 48.97 35.9299 49.1819V50.5804C35.9299 50.7923 35.8458 50.9955 35.6959 51.1454C35.546 51.2952 35.3428 51.3794 35.1309 51.3794H38.1276C38.3395 51.3794 38.5427 51.2952 38.6926 51.1454C38.8424 50.9955 38.9266 50.7923 38.9266 50.5804V49.1819C38.9266 49.077 38.906 48.9731 38.8658 48.8761C38.8257 48.7792 38.7668 48.6911 38.6926 48.6169C38.6184 48.5427 38.5303 48.4838 38.4334 48.4436C38.3364 48.4035 38.2325 48.3828 38.1276 48.3828Z" fill="#97D729"/>
<path d="M44.9201 11.4238H41.7236C42.827 11.4238 43.7214 12.3182 43.7214 13.4216V53.3773C43.7214 54.4806 42.827 55.375 41.7236 55.375H44.9201C46.0234 55.375 46.9178 54.4806 46.9178 53.3773V13.4216C46.9178 12.3183 46.0233 11.4238 44.9201 11.4238Z" fill="#C8EFFE"/>
<path d="M34.6643 17.8168L32.9329 15.4194L31.2016 17.8168L27.9385 16.4183L28.9374 22.4116H36.9284L37.9274 16.4183L34.6643 17.8168Z" fill="#FFD15B"/>
<path d="M21.9453 27.606V26.2075C21.9453 25.9956 22.0295 25.7924 22.1794 25.6425C22.3292 25.4926 22.5325 25.4084 22.7444 25.4084H43.1218C43.3337 25.4084 43.537 25.4926 43.6868 25.6425C43.8367 25.7924 43.9209 25.9956 43.9209 26.2075V27.606C43.9209 27.8179 43.8367 28.0211 43.6868 28.171C43.537 28.3208 43.3337 28.405 43.1218 28.405H22.7444C22.5325 28.405 22.3292 28.3208 22.1794 28.171C22.0295 28.0211 21.9453 27.8179 21.9453 27.606Z" fill="#5F99D7"/>
<path d="M46.9175 28.405V25.4084H52.711C52.9229 25.4084 53.1262 25.4925 53.276 25.6424C53.4259 25.7923 53.5101 25.9955 53.5101 26.2074V27.6059C53.5101 27.8178 53.4259 28.021 53.276 28.1709C53.1262 28.3208 52.9229 28.4049 52.711 28.4049H46.9175V28.405ZM43.1217 25.4084H40.125C40.3369 25.4084 40.5402 25.4925 40.69 25.6424C40.8399 25.7923 40.9241 25.9955 40.9241 26.2074V27.6059C40.9241 27.8178 40.8399 28.021 40.69 28.1709C40.5402 28.3208 40.3369 28.4049 40.125 28.4049H43.1217C43.3336 28.4049 43.5369 28.3208 43.6867 28.1709C43.8366 28.021 43.9208 27.8178 43.9208 27.6059V26.2074C43.9208 25.9955 43.8366 25.7923 43.6867 25.6424C43.5369 25.4925 43.3336 25.4084 43.1217 25.4084Z" fill="#3C87D0"/>
<path d="M18.949 43.3884H13.7548C13.5428 43.3884 13.3396 43.4726 13.1897 43.6224C13.0399 43.7723 12.9557 43.9755 12.9557 44.1875V45.5859C12.9557 45.6908 12.9764 45.7947 13.0165 45.8917C13.0567 45.9886 13.1155 46.0767 13.1897 46.1509C13.2639 46.2251 13.352 46.284 13.449 46.3242C13.5459 46.3643 13.6498 46.385 13.7548 46.385H18.949M18.949 25.4084H13.1554C13.0505 25.4084 12.9466 25.429 12.8496 25.4692C12.7527 25.5093 12.6646 25.5682 12.5904 25.6424C12.5162 25.7166 12.4573 25.8047 12.4172 25.9016C12.377 25.9986 12.3564 26.1025 12.3564 26.2074V27.6059C12.3564 27.7108 12.377 27.8147 12.4172 27.9117C12.4573 28.0086 12.5162 28.0967 12.5904 28.1709C12.6646 28.2451 12.7527 28.304 12.8496 28.3441C12.9466 28.3843 13.0505 28.4049 13.1554 28.4049H18.949M18.949 31.4017H11.3574M18.949 35.3973H11.3574M18.949 39.3929H11.3574" stroke="black" stroke-width="0.5" stroke-miterlimit="10" stroke-linecap="round" stroke-linejoin="round"/>
<path d="M8.36035 26.2363V49.3822C8.36035 50.4847 9.25525 51.3796 10.3578 51.3796H18.9489M8.36035 22.7753V17.4168C8.36035 16.3142 9.25525 15.4193 10.3578 15.4193H18.9489M46.9176 43.3884H52.1118C52.3238 43.3884 52.527 43.4726 52.6769 43.6224C52.8267 43.7723 52.9109 43.9755 52.9109 44.1875V45.5859C52.9109 45.7978 52.8267 46.0011 52.6769 46.1509C52.527 46.3008 52.3238 46.385 52.1118 46.385H46.9176M27.9387 22.4117H37.9276M46.9176 25.4083H52.7112C52.9231 25.4083 53.1263 25.4925 53.2762 25.6424C53.4261 25.7922 53.5102 25.9955 53.5102 26.2074V27.6058C53.5102 27.8178 53.4261 28.021 53.2762 28.1709C53.1263 28.3207 52.9231 28.4049 52.7112 28.4049H46.9176M41.9232 32.4005H29.9364M26.9397 32.4005H23.943M41.9232 36.3962H29.9364M26.9397 36.3962H23.943M41.9232 40.3917H29.9364M26.9397 40.3917H23.943M41.9232 44.3873H29.9364M54.5092 31.4017H46.9176M54.5092 35.3972H46.9176M54.5092 39.3929H46.9176M26.9397 44.3873H23.943M34.6645 17.8168L32.9331 15.4194L31.2017 17.8168L27.9387 16.4183L28.9376 22.4117H36.9286L37.9276 16.4183L34.6645 17.8168ZM21.9453 27.6059V26.2075C21.9453 25.9956 22.0295 25.7923 22.1793 25.6425C22.3292 25.4926 22.5324 25.4084 22.7444 25.4084H43.1218C43.3337 25.4084 43.5369 25.4926 43.6868 25.6425C43.8367 25.7923 43.9208 25.9956 43.9208 26.2075V27.6059C43.9208 27.8179 43.8367 28.0211 43.6868 28.171C43.5369 28.3208 43.3337 28.405 43.1218 28.405H22.7444C22.5324 28.405 22.3292 28.3208 22.1793 28.171C22.0295 28.0211 21.9453 27.8179 21.9453 27.6059ZM26.9397 50.5804V49.182C26.9397 48.9701 27.0239 48.7668 27.1738 48.617C27.3236 48.4671 27.5269 48.3829 27.7388 48.3829H38.1273C38.3392 48.3829 38.5425 48.4671 38.6923 48.617C38.8422 48.7668 38.9264 48.9701 38.9264 49.182V50.5804C38.9264 50.6854 38.9057 50.7893 38.8656 50.8862C38.8254 50.9832 38.7665 51.0713 38.6923 51.1455C38.6181 51.2197 38.5301 51.2785 38.4331 51.3187C38.3362 51.3589 38.2322 51.3795 38.1273 51.3795H27.7389C27.634 51.3795 27.53 51.3589 27.4331 51.3187C27.3361 51.2786 27.248 51.2197 27.1738 51.1455C27.0996 51.0713 27.0407 50.9832 27.0006 50.8863C26.9604 50.7893 26.9397 50.6854 26.9397 50.5804Z" stroke="black" stroke-width="0.5" stroke-miterlimit="10" stroke-linecap="round" stroke-linejoin="round"/>
<path d="M27.4879 11.4234H44.9202C46.0238 11.4234 46.9177 12.3183 46.9177 13.4219V53.3771C46.9177 54.4806 46.0238 55.3755 44.9202 55.3755H20.9467C19.8431 55.3755 18.9492 54.4806 18.9492 53.3771V13.4219C18.9492 12.3183 19.8431 11.4234 20.9467 11.4234H24.0269M57.5062 44.6436V49.3822C57.5062 50.4847 56.6113 51.3796 55.5087 51.3796H46.9177M46.9177 15.4193H55.5087C56.6113 15.4193 57.5062 16.3143 57.5062 17.4168V41.1827" stroke="black" stroke-width="0.5" stroke-miterlimit="10" stroke-linecap="round" stroke-linejoin="round"/>
</svg>
