<svg width="21" height="16" viewBox="0 0 21 16" fill="none" xmlns="http://www.w3.org/2000/svg">
<path d="M19.6522 2.49275C19.2464 2.06763 18.686 1.81643 18.0483 1.81643H14.8406V1.77778C14.8406 1.29469 14.6473 0.830918 14.3188 0.521739C13.9903 0.193237 13.5459 0 13.0628 0H7.2657C6.76328 0 6.31884 0.193237 5.99034 0.521739C5.66184 0.850241 5.4686 1.29469 5.4686 1.77778V1.81643H2.28019C1.64251 1.81643 1.08213 2.06763 0.676328 2.49275C0.270531 2.89855 0 3.47826 0 4.09662V13.7198C0 14.3575 0.251208 14.9179 0.676328 15.3237C1.08213 15.7295 1.66184 16 2.28019 16H18.0483C18.686 16 19.2464 15.7488 19.6522 15.3237C20.058 14.9179 20.3285 14.3382 20.3285 13.7198V4.09662C20.3285 3.45894 20.0773 2.89855 19.6522 2.49275ZM19.3237 13.7198H19.3043C19.3043 14.0676 19.1691 14.3768 18.9372 14.6087C18.7053 14.8406 18.3961 14.9758 18.0483 14.9758H2.28019C1.93237 14.9758 1.62319 14.8406 1.3913 14.6087C1.15942 14.3768 1.02415 14.0676 1.02415 13.7198V4.09662C1.02415 3.74879 1.15942 3.43961 1.3913 3.20773C1.62319 2.97585 1.93237 2.84058 2.28019 2.84058H6.00966C6.29952 2.84058 6.5314 2.6087 6.5314 2.31884V1.75845C6.5314 1.54589 6.6087 1.35266 6.74396 1.21739C6.87923 1.08213 7.07246 1.00483 7.28502 1.00483H13.0628C13.2754 1.00483 13.4686 1.08213 13.6039 1.21739C13.7391 1.35266 13.8164 1.54589 13.8164 1.75845V2.31884C13.8164 2.6087 14.0483 2.84058 14.3382 2.84058H18.0676C18.4155 2.84058 18.7246 2.97585 18.9565 3.20773C19.1884 3.43961 19.3237 3.74879 19.3237 4.09662V13.7198Z" fill="black"/>
<path d="M10.1643 4.15479C8.85026 4.15479 7.65219 4.69585 6.80195 5.54609C5.93238 6.41565 5.41064 7.5944 5.41064 8.90841C5.41064 10.2224 5.95171 11.4205 6.80195 12.2707C7.67151 13.1403 8.85026 13.662 10.1643 13.662C11.4783 13.662 12.6763 13.121 13.5266 12.2707C14.3962 11.4012 14.9179 10.2224 14.9179 8.90841C14.9179 7.5944 14.3768 6.39633 13.5266 5.54609C12.6763 4.69585 11.4783 4.15479 10.1643 4.15479ZM12.7923 11.5558C12.116 12.2128 11.1884 12.6379 10.1643 12.6379C9.14011 12.6379 8.21258 12.2128 7.53625 11.5558C6.85992 10.8794 6.45412 9.95189 6.45412 8.92773C6.45412 7.90358 6.87924 6.97604 7.53625 6.29971C8.21258 5.62338 9.14011 5.21759 10.1643 5.21759C11.1884 5.21759 12.116 5.64271 12.7923 6.29971C13.4686 6.97604 13.8744 7.90358 13.8744 8.92773C13.8937 9.95189 13.4686 10.8794 12.7923 11.5558Z" fill="black"/>
<path d="M17.0434 6.02897C17.5664 6.02897 17.9903 5.60505 17.9903 5.08211C17.9903 4.55918 17.5664 4.13525 17.0434 4.13525C16.5205 4.13525 16.0966 4.55918 16.0966 5.08211C16.0966 5.60505 16.5205 6.02897 17.0434 6.02897Z" fill="black"/>
</svg>
