<svg width="19" height="22" viewBox="0 0 19 22" fill="none" xmlns="http://www.w3.org/2000/svg">
<path d="M9.03856 10.5975C10.4944 10.5975 11.755 10.0753 12.7852 9.04505C13.8151 8.015 14.3375 6.75464 14.3375 5.29861C14.3375 3.843 13.8153 2.58251 12.785 1.55207C11.7548 0.522156 10.4943 0 9.03856 0C7.58248 0 6.32208 0.522156 5.29203 1.55225C4.26198 2.58234 3.73961 3.84287 3.73961 5.29861C3.73961 6.75464 4.26194 8.01518 5.29207 9.04527C6.32246 10.0752 7.583 10.5975 9.03852 10.5975H9.03856ZM6.20378 2.46383C6.99415 1.67342 7.92137 1.28923 9.03856 1.28923C10.1556 1.28923 11.0829 1.67342 11.8735 2.46383C12.6639 3.25437 13.0482 4.18172 13.0482 5.29856C13.0482 6.41575 12.6639 7.34297 11.8735 8.13351C11.0829 8.92409 10.1556 9.30828 9.03856 9.30828C7.92168 9.30828 6.99454 8.92392 6.20378 8.13351C5.4132 7.34314 5.02885 6.41579 5.02885 5.29861C5.02885 4.18172 5.4132 3.25437 6.20378 2.46383ZM18.3102 16.9169C18.2805 16.4883 18.2204 16.0206 18.132 15.5268C18.0427 15.0293 17.9277 14.559 17.7901 14.1292C17.6477 13.6849 17.4545 13.2461 17.2153 12.8257C16.9674 12.3893 16.6761 12.0092 16.3491 11.6966C16.0072 11.3694 15.5886 11.1064 15.1045 10.9145C14.6221 10.7238 14.0875 10.6271 13.5157 10.6271C13.2911 10.6271 13.0739 10.7192 12.6545 10.9923C12.3563 11.1865 12.0573 11.3793 11.7573 11.5707C11.4691 11.7543 11.0787 11.9264 10.5965 12.0821C10.126 12.2344 9.64833 12.3116 9.17666 12.3116C8.70538 12.3116 8.22766 12.2344 7.75685 12.0821C7.27517 11.9265 6.88458 11.7545 6.59686 11.5708C6.263 11.3575 5.96093 11.1628 5.6989 10.9921C5.27978 10.719 5.06258 10.6269 4.83802 10.6269C4.26598 10.6269 3.73158 10.7237 3.24934 10.9148C2.7656 11.1063 2.34682 11.3693 2.00458 11.6967C1.67763 12.0096 1.38626 12.3894 1.1385 12.8257C0.89968 13.2461 0.70632 13.6847 0.563965 14.1293C0.426465 14.5592 0.311523 15.0293 0.222234 15.5268C0.13359 16.02 0.0736914 16.4878 0.043957 16.9174C0.0147383 17.3375 0 17.7748 0 18.2166C0 19.365 0.365062 20.2947 1.08496 20.9803C1.79596 21.657 2.73659 22 3.88077 22H14.4739C15.6178 22 16.5584 21.6569 17.2696 20.9804C17.9896 20.2952 18.3547 19.3652 18.3547 18.2164C18.3545 17.7731 18.3396 17.3359 18.3102 16.9169ZM16.3807 20.0463C15.9109 20.4934 15.2871 20.7108 14.4737 20.7108H3.88081C3.06728 20.7108 2.44355 20.4934 1.9739 20.0465C1.51319 19.6078 1.28928 19.0092 1.28928 18.2166C1.28928 17.8043 1.30286 17.3973 1.3301 17.0066C1.35657 16.6232 1.41079 16.2021 1.49123 15.7546C1.57059 15.3126 1.67161 14.8979 1.7918 14.5224C1.90712 14.1624 2.06439 13.8059 2.25943 13.4625C2.44557 13.1352 2.65972 12.8544 2.89605 12.6281C3.11712 12.4165 3.39578 12.2433 3.72406 12.1134C4.02768 11.9931 4.36893 11.9274 4.73937 11.9174C4.78448 11.9415 4.86492 11.9873 4.99516 12.0722C5.26019 12.2449 5.56566 12.442 5.90339 12.6576C6.28409 12.9004 6.7745 13.1196 7.36046 13.3087C7.95949 13.5024 8.57046 13.6008 9.17688 13.6008C9.78334 13.6008 10.3944 13.5024 10.9932 13.3089C11.5796 13.1194 12.0699 12.9004 12.4511 12.6573C12.7967 12.4364 13.0936 12.2451 13.3586 12.0722C13.4889 11.9874 13.5693 11.9414 13.6144 11.9175C13.985 11.9274 14.3263 11.9931 14.63 12.1133C14.9582 12.2433 15.2368 12.4166 15.4579 12.6281C15.6942 12.8542 15.9084 13.135 16.0945 13.4627C16.2897 13.8059 16.4472 14.1626 16.5623 14.5223C16.6827 14.8983 16.7838 15.3128 16.8631 15.7544C16.9433 16.2027 16.9977 16.6241 17.0242 17.0067V17.0071C17.0516 17.3963 17.0653 17.8032 17.0655 18.2166C17.0653 19.0093 16.8414 19.6079 16.3807 20.0463H16.3807Z" fill="white"/>
</svg>
