<svg width="68" height="68" viewBox="0 0 68 68" fill="none" xmlns="http://www.w3.org/2000/svg">
<rect width="67.027" height="67.027" rx="4" fill="#54BFC6" fill-opacity="0.4"/>
<path d="M62.0054 22.8288L58.3751 22.4996C58.0726 21.3963 57.6455 20.3552 57.085 19.3765L59.4162 16.5915C59.8344 16.0932 59.7988 15.3369 59.3361 14.8743L56.6668 12.2405C56.1952 11.7779 55.4567 11.7423 54.9495 12.1605L52.1468 14.4828C51.1653 13.9207 50.1157 13.4871 49.0237 13.1926L48.6856 9.58013C48.6322 8.9217 48.0805 8.42343 47.4221 8.42343H43.6673C43.0088 8.42343 42.4572 8.9217 42.3949 9.58013L42.0657 13.1926C40.9535 13.4951 39.9035 13.9222 38.9337 14.4828L36.1398 12.1605C35.6326 11.7423 34.8852 11.7779 34.4137 12.2405L31.7622 14.8743C31.5346 15.0976 31.3999 15.3987 31.385 15.7172C31.3702 16.0357 31.4763 16.348 31.6821 16.5915L34.0133 19.3765C33.4527 20.3552 33.0256 21.3963 32.7231 22.4996L29.0928 22.8288C28.4344 22.8911 27.9272 23.4427 27.9272 24.1012V27.8471C27.9272 28.5055 28.4344 29.0483 29.0928 29.1106L32.7231 29.4487C33.0256 30.552 33.4527 31.593 34.0133 32.5629L31.6821 35.3567C31.2639 35.855 31.2995 36.5935 31.7622 37.0651L34.4137 39.7077C34.8852 40.1704 35.6326 40.206 36.1398 39.7878L38.9337 37.4655C39.9035 38.026 40.9624 38.4531 42.0657 38.7557L42.3949 42.3681C42.4572 43.0177 43.0088 43.5159 43.6673 43.5159H47.4221C48.0805 43.5159 48.6322 43.0177 48.6856 42.3681L49.0237 38.7557C50.1359 38.4531 51.1769 38.026 52.1468 37.4655L54.9495 39.7878C55.4567 40.206 56.1952 40.1704 56.6668 39.7077L59.3272 37.0651C59.7988 36.6024 59.8344 35.8639 59.4073 35.3567L57.0761 32.5629C57.6366 31.593 58.0637 30.552 58.3662 29.4487L61.9965 29.1106C62.646 29.0572 63.1532 28.5055 63.1532 27.8471V24.0923C63.1621 23.4427 62.6549 22.8911 62.0054 22.8288ZM45.5447 33.6039C41.3005 33.6039 37.866 30.1783 37.866 25.9608C37.866 21.7344 41.3005 18.3088 45.5447 18.3088C49.78 18.3088 53.2145 21.7344 53.2145 25.9608C53.2145 30.1872 49.78 33.6039 45.5447 33.6039Z" fill="#9BCC64"/>
<path d="M25.3994 33.8708H35V42.0389H25.3994V33.8708Z" fill="#E7B95E"/>
<path d="M38.0695 27.4823C37.4111 27.4289 36.806 28.4076 36.7081 29.6533C36.6103 30.9079 37.064 31.9578 37.7225 32.0112C38.3809 32.0646 38.9859 31.0858 39.0838 29.8402C39.1728 28.5856 38.7279 27.5268 38.0695 27.4823ZM22.3206 27.4823C22.979 27.4289 23.584 28.4076 23.6819 29.6533C23.7798 30.9079 23.326 31.9578 22.6676 32.0112C22.0092 32.0646 21.4041 31.0858 21.3062 29.8402C21.2173 28.5856 21.6621 27.5268 22.3206 27.4823Z" fill="#FFCC67"/>
<path d="M30.1955 19.3053C25.9424 19.3053 22.499 23.5406 22.499 28.7724C22.499 34.0043 25.9424 38.2396 30.1955 38.2396C34.4486 38.2396 37.892 34.0043 37.892 28.7724C37.892 23.5406 34.4486 19.3053 30.1955 19.3053Z" fill="#FFCC67"/>
<path d="M36.78 19.6345C36.78 19.6345 34.8937 15.7106 30.1957 16.3424C25.4977 15.7017 23.6114 19.6345 23.6114 19.6345C21.8319 20.6933 21.4849 26.8328 22.517 27.4556C22.9263 27.6958 22.9441 28.4966 22.8996 29.0216C22.8818 29.2974 23.1042 29.5288 23.3801 29.5288C23.6203 29.5288 23.8249 29.3508 23.8516 29.1195L24.0207 27.9361C24.8037 26.0053 25.1151 21.9301 25.1151 21.9301C25.4532 21.3073 26.7612 21.5208 26.7612 21.5208L30.1512 22.117C30.1512 22.117 30.169 22.1081 30.1957 22.0903C30.2224 22.1081 30.2402 22.117 30.2402 22.117L33.6302 21.5208C33.6302 21.5208 34.9293 21.3073 35.2763 21.9301C35.2763 21.9301 35.5877 26.0053 36.3707 27.9361L36.5397 29.1195C36.5557 29.2432 36.6194 29.3559 36.7172 29.4334C36.8151 29.5109 36.9393 29.5471 37.0635 29.5344C37.1876 29.5216 37.3019 29.4609 37.3819 29.3651C37.4619 29.2693 37.5013 29.146 37.4918 29.0216C37.4562 28.4877 37.474 27.6958 37.8744 27.4556C38.9065 26.8328 38.5595 20.6933 36.78 19.6345Z" fill="#676767"/>
<path d="M36.3176 39.4319L30.196 42.0389L24.0744 39.4319L19.3408 41.3627L29.2351 58.2772H30.9968L40.3305 41.0691L36.3176 39.4319Z" fill="#D66556"/>
<path d="M23.9051 39.4941C23.9051 39.4941 26.2096 51.0255 30.2046 58.2683H17.2585C15.0074 58.2683 13.1656 56.4531 13.1567 54.202C13.1478 52.2801 13.1567 49.9934 13.1833 48.1071C13.2367 43.9786 16.1641 42.6439 16.1641 42.6439L21.5828 40.4373L23.9051 39.4941ZM47.2259 54.2109C47.2196 55.2936 46.7842 56.3295 46.0153 57.0917C45.2465 57.854 44.2067 58.2802 43.1241 58.2772H30.2046C34.1374 51.1501 36.4241 39.8945 36.5042 39.5119L38.3104 40.2415L38.8087 40.4462L44.2274 42.6528C44.2274 42.6528 47.1458 43.9875 47.2081 48.116C47.2259 50.0023 47.2348 52.289 47.2259 54.2109Z" fill="#525252"/>
<path d="M31.4856 42.0389H28.9053L27.624 44.2633L28.9053 46.4789H31.4856L32.7669 44.2633L31.4856 42.0389Z" fill="white"/>
<path d="M34.9919 37.3765L30.196 42.0389C30.196 42.0389 33.2924 45.2776 33.3369 45.331C33.6839 45.7047 34.3335 45.6691 34.6182 45.1887L36.4956 39.4941L34.9919 37.3765ZM25.4002 37.3765L23.8965 39.4941L25.7739 45.1887C25.838 45.2977 25.927 45.3899 26.0336 45.4579C26.1402 45.5259 26.2614 45.5677 26.3872 45.5798C26.5131 45.592 26.64 45.5742 26.7577 45.5278C26.8753 45.4815 26.9803 45.408 27.0641 45.3132C27.1086 45.2599 30.1872 42.0389 30.1872 42.0389L25.4002 37.3765Z" fill="#EC7B72"/>
<path d="M32.6247 55.3676L30.1957 58.2772L27.7666 55.3676L28.9055 46.4789H31.4858L32.6247 55.3676Z" fill="white"/>
<path d="M39.1729 44.4324C39.1996 44.7616 39.0572 45.0819 38.7903 45.2865L37.945 45.945C37.5891 46.2119 37.4734 46.6746 37.6336 47.0839L38.0607 48.1427C38.203 48.4808 38.1407 48.8634 37.9094 49.1392L30.204 58.2861C34.1368 51.159 36.4235 39.9034 36.5036 39.5208V39.5119L38.3098 40.2504L38.8081 40.4551L39.1729 44.4324ZM30.204 58.2772L22.4986 49.1303C22.2584 48.8545 22.205 48.4808 22.3384 48.1338L22.7655 47.075C22.9346 46.6657 22.8011 46.203 22.463 45.9361L21.6088 45.2776C21.3508 45.0819 21.2084 44.7527 21.2351 44.4235L21.5999 40.4373L23.9133 39.4941C23.9044 39.4941 26.2 51.0255 30.204 58.2772Z" fill="#676767"/>
</svg>
