<svg width="25" height="23" viewBox="0 0 25 23" fill="none" xmlns="http://www.w3.org/2000/svg">
<path d="M19.3005 10.8995C20.2305 10.0965 23 7.4965 23 5C23 3.93913 22.5786 2.92172 21.8284 2.17157C21.0783 1.42143 20.0609 1 19 1C17.9391 1 16.9217 1.42143 16.1716 2.17157C15.4214 2.92172 15 3.93913 15 5C15 7.4965 17.7695 10.0965 18.6995 10.8995C18.7861 10.9646 18.8916 10.9999 19 10.9999C19.1084 10.9999 19.2139 10.9646 19.3005 10.8995Z" stroke="white" stroke-linecap="round" stroke-linejoin="round"/>
<path d="M19 6.5C19.8284 6.5 20.5 5.82843 20.5 5C20.5 4.17157 19.8284 3.5 19 3.5C18.1716 3.5 17.5 4.17157 17.5 5C17.5 5.82843 18.1716 6.5 19 6.5Z" stroke="white" stroke-width="1.5" stroke-linecap="round" stroke-linejoin="round"/>
<mask id="path-3-inside-1_1304_664" fill="white">
<path d="M5.63695 3.205H5.76049C5.9586 3.205 6.11943 3.04524 6.11943 2.84843V2.76498C6.11943 2.18528 6.59472 1.71358 7.17873 1.71358H9.5233C11.3863 1.71358 12.9016 3.21928 12.9016 5.0695V6.12893C12.7623 6.08832 12.615 6.06735 12.4622 6.06913V5.89687C12.4622 5.48408 12.3068 5.11323 12.013 4.82494C11.7169 4.53398 11.3427 4.38225 10.9294 4.38805C9.30722 4.40188 7.95052 4.25685 6.78205 3.94357C6.76049 3.93777 6.73848 3.9342 6.71602 3.93241C6.34764 3.90385 5.83731 4.03282 5.49588 4.8062C5.32428 5.19445 5.22724 5.6666 5.15177 6.07716C4.95897 6.05709 4.76409 6.07468 4.57809 6.12893V4.2564C4.57854 3.6767 5.05339 3.205 5.63695 3.205ZM5.32338 8.68112C5.31844 8.49191 5.16525 8.33928 4.97477 8.33348C4.54979 8.32143 4.2169 7.98049 4.2169 7.55787C4.2169 7.13035 4.56686 6.78226 4.99768 6.78226C5.101 6.78226 5.20343 6.80279 5.30181 6.84251C5.40199 6.88357 5.5152 6.87732 5.61044 6.826C5.70568 6.77468 5.77217 6.68319 5.79148 6.57743C5.80361 6.51272 5.81574 6.44533 5.82787 6.37572C5.98511 5.49746 6.17693 4.64197 6.63246 4.64197C7.85618 4.96552 9.26544 5.11591 10.9375 5.10073C11.1603 5.09806 11.3477 5.17348 11.5085 5.33145C11.6671 5.4872 11.7443 5.67195 11.7443 5.89643V6.48951C11.7443 6.60554 11.8009 6.71398 11.8962 6.78092C11.9914 6.84786 12.1136 6.86438 12.2232 6.82555C12.3059 6.79654 12.3935 6.78137 12.4824 6.78137C12.9128 6.78137 13.2632 7.12901 13.2632 7.55698C13.2632 7.97959 12.9303 8.3201 12.5053 8.33259C12.3149 8.33795 12.1617 8.49057 12.1567 8.68023C12.1096 10.5037 10.5768 11.9871 8.73983 11.9871C6.9029 11.9871 5.37055 10.5046 5.32338 8.68112ZM8.74028 12.7015C9.26769 12.7015 9.78117 12.602 10.2596 12.4132V12.8229C10.2596 13.6552 9.57811 14.3322 8.74028 14.3322C7.90245 14.3322 7.22096 13.6552 7.22096 12.8229V12.4132C7.70446 12.604 8.22004 12.7018 8.74028 12.7015ZM4.36246 22.2864L3.6302 16.2226C3.62661 16.1945 3.63289 16.182 3.64727 16.1663C3.66479 16.1467 3.67737 16.1413 3.70298 16.1413H13.7776C13.8032 16.1413 13.8158 16.1471 13.8333 16.1663C13.8477 16.182 13.8535 16.1945 13.8504 16.2226L13.1181 22.2864H4.36246ZM16.5224 21.9044C16.3216 22.1472 16.0224 22.2864 15.7021 22.2864H13.8414L14.5638 16.3074C14.5912 16.0798 14.522 15.8606 14.3692 15.6906C14.2142 15.5184 14.0098 15.4273 13.778 15.4273H3.70253C3.47072 15.4273 3.26632 15.5184 3.11133 15.6906C2.95859 15.8606 2.88941 16.0798 2.91681 16.3074L3.63873 22.2864H1.77844C1.45813 22.2864 1.15894 22.1472 0.95813 21.9044C0.756871 21.6617 0.677356 21.343 0.738902 21.0306L1.77799 15.7964C1.85975 15.3858 2.14008 15.0891 2.54753 14.9828L5.49723 14.2112C5.82338 14.1265 6.09562 13.9676 6.32787 13.7257L6.59427 13.4495C6.86741 14.3706 7.7259 15.0449 8.74028 15.0449C9.75466 15.0449 10.6132 14.3706 10.8863 13.4495L11.1522 13.7248C11.3854 13.9671 11.6572 14.126 11.9829 14.2104L14.9335 14.9819C15.3405 15.0882 15.6208 15.3849 15.7026 15.795L15.7448 16.0079L15.7475 16.0222L16.4829 19.7271L16.4843 19.7338L16.7417 21.0297C16.8032 21.343 16.7232 21.6617 16.5224 21.9044ZM8.74028 18.0639C8.10281 18.0639 7.58394 18.5797 7.58394 19.2139C7.58394 19.8471 8.10281 20.3626 8.74028 20.3626C9.37775 20.3626 9.89662 19.8471 9.89662 19.2139C9.89617 18.5797 9.37775 18.0639 8.74028 18.0639ZM8.74028 19.649C8.49859 19.649 8.30228 19.454 8.30228 19.2139C8.30228 18.9733 8.49859 18.7774 8.74028 18.7774C8.98197 18.7774 9.17829 18.9733 9.17829 19.2139C9.17829 19.4535 8.98152 19.649 8.74028 19.649Z"/>
</mask>
<path d="M22.4672 13.0023L22.3907 13.2403L22.3908 13.2404L22.4672 13.0023ZM21.686 12.7511L21.7625 12.5131L21.7611 12.5126L21.686 12.7511ZM21.6514 12.7171L21.4173 12.805L21.4185 12.8081L21.6514 12.7171ZM21.5112 12.3811L21.2835 12.4843L21.2838 12.485L21.5112 12.3811ZM21.513 12.3356L21.7353 12.4501L21.7355 12.4496L21.513 12.3356ZM21.8859 11.6077L21.6636 11.4933L21.6634 11.4938L21.8859 11.6077ZM21.7448 10.7188L21.9219 10.5422L21.921 10.5414L21.7448 10.7188ZM20.898 9.87756L21.0742 9.7002L21.0734 9.69936L20.898 9.87756ZM20.0045 9.73877L20.1175 9.96177L20.1178 9.9616L20.0045 9.73877ZM19.2736 10.1092L19.1606 9.88617L19.1605 9.88622L19.2736 10.1092ZM19.2242 10.1101L19.329 9.88311L19.3272 9.88228L19.2242 10.1101ZM18.8877 9.97128L18.7994 10.2052L18.8005 10.2056L18.8877 9.97128ZM18.8535 9.9387L18.6158 10.0161L18.6165 10.0182L18.8535 9.9387ZM18.6002 9.16086L18.3624 9.23816L18.3625 9.23829L18.6002 9.16086ZM15.9393 9.16041L16.1769 9.23821L16.1771 9.23765L15.9393 9.16041ZM15.6851 9.93692L15.4475 9.85912L15.4474 9.85918L15.6851 9.93692ZM15.6536 9.97083L15.74 10.2055L15.745 10.2035L15.6536 9.97083ZM15.3126 10.1105L15.2093 9.88284L15.2084 9.88326L15.3126 10.1105ZM15.2677 10.1101L15.3811 9.88725L15.3808 9.88709L15.2677 10.1101ZM14.5346 9.73833L14.4213 9.96122L14.4215 9.9613L14.5346 9.73833ZM13.6397 9.87845L13.4643 9.70026L13.4635 9.70109L13.6397 9.87845ZM12.7929 10.7197L12.6167 10.5423L12.6158 10.5431L12.7929 10.7197ZM12.6531 11.6073L12.8755 11.493L12.8754 11.4927L12.6531 11.6073ZM13.0269 12.3347L12.8045 12.449L12.8047 12.4493L13.0269 12.3347ZM13.0269 12.3825L12.8006 12.2761L12.7996 12.2783L13.0269 12.3825ZM12.8863 12.7198L12.6522 12.6321L12.6513 12.6344L12.8863 12.7198ZM12.8549 12.7506L12.9314 12.9887L12.9367 12.9868L12.8549 12.7506ZM12.0709 13.0028L11.9944 12.7648L11.9936 12.765L12.0709 13.0028ZM11.7003 13.262L11.5283 13.4434L11.7278 13.6326L11.8972 13.4161L11.7003 13.262ZM11.6707 13.233L11.8507 13.0596L11.8506 13.0595L11.6707 13.233ZM10.977 12.5141H10.727V12.615L10.7971 12.6877L10.977 12.5141ZM10.977 12.0446L10.8418 11.8343L10.727 11.9081V12.0446H10.977ZM11.6257 11.5296L11.4517 11.3502L11.4516 11.3503L11.6257 11.5296ZM12.8553 9.0011L12.7944 8.75862L12.624 8.80141L12.6065 8.97623L12.8553 9.0011ZM13.6195 6.58992H13.3695V6.68305L13.4304 6.75348L13.6195 6.58992ZM5.41996 2.50436L5.44999 2.75255L5.63905 2.72968L5.66721 2.54134L5.41996 2.50436ZM3.85976 6.58948L4.04897 6.75288L4.10976 6.68248V6.58948H3.85976ZM4.62391 9.00154L4.87267 8.97666L4.85519 8.80185L4.68479 8.75907L4.62391 9.00154ZM5.85348 11.5301L6.02765 11.3507L6.02754 11.3506L5.85348 11.5301ZM6.50218 12.0451H6.75218V11.9086L6.63737 11.8348L6.50218 12.0451ZM6.50218 12.5141L6.68209 12.6877L6.75218 12.615V12.5141H6.50218ZM5.80811 13.2335L5.62819 13.0599L5.62785 13.0602L5.80811 13.2335ZM5.31439 13.5218L5.25159 13.2798L5.25114 13.2799L5.31439 13.5218ZM2.3638 14.2934L2.42699 14.5352L2.42705 14.5352L2.3638 14.2934ZM1.07269 15.6585L0.827497 15.6097L0.827466 15.6098L1.07269 15.6585ZM0.0340473 20.8932L-0.211172 20.8445L-0.211205 20.8447L0.0340473 20.8932ZM0.403321 22.3578L0.595858 22.1984L0.59584 22.1983L0.403321 22.3578ZM17.4465 20.8927L17.6918 20.8443L17.6917 20.8441L17.4465 20.8927ZM18.6011 19.4879L18.8386 19.5658L18.8388 19.5654L18.6011 19.4879ZM18.854 18.7118L18.617 18.6323L18.6163 18.6344L18.854 18.7118ZM18.8881 18.6775L18.9717 18.9131L18.975 18.9119L18.8881 18.6775ZM19.2264 18.5382L19.3291 18.7662L19.3309 18.7653L19.2264 18.5382ZM19.2713 18.5387L19.1555 18.7602L19.1583 18.7617L19.2713 18.5387ZM20.0045 18.9104L20.1177 18.6875L20.1175 18.6874L20.0045 18.9104ZM20.8994 18.7703L21.0747 18.9485L21.0756 18.9477L20.8994 18.7703ZM21.7462 17.9291L21.9224 18.1064L21.9232 18.1056L21.7462 17.9291ZM21.8859 17.0415L21.6635 17.1557L21.6637 17.156L21.8859 17.0415ZM21.513 16.3154L21.7354 16.2012L21.7354 16.2011L21.513 16.3154ZM21.5121 16.2663L21.7385 16.3723L21.7391 16.371L21.5121 16.2663ZM21.6514 15.932L21.4179 15.8427L21.4173 15.8442L21.6514 15.932ZM21.6851 15.8981L21.6082 15.6602L21.6065 15.6608L21.6851 15.8981ZM22.4677 15.6451L22.3911 15.4071L22.3907 15.4072L22.4677 15.6451ZM22.4672 13.0023L22.5437 12.7643L21.7625 12.5131L21.686 12.7511L21.6094 12.9891L22.3907 13.2403L22.4672 13.0023ZM21.686 12.7511L21.7611 12.5126C21.7646 12.5137 21.8013 12.5248 21.8373 12.559C21.8714 12.5915 21.8837 12.6247 21.8843 12.6262L21.6514 12.7171L21.4185 12.8081C21.4276 12.8315 21.448 12.8788 21.4927 12.9213C21.5392 12.9655 21.5889 12.9826 21.6109 12.9895L21.686 12.7511ZM21.6514 12.7171L21.8854 12.6293C21.841 12.5109 21.7915 12.393 21.7386 12.2772L21.5112 12.3811L21.2838 12.485C21.3324 12.5914 21.3774 12.6985 21.4173 12.805L21.6514 12.7171ZM21.5112 12.3811L21.7389 12.278C21.7394 12.2789 21.757 12.3152 21.7552 12.3672C21.7544 12.3925 21.7493 12.4133 21.7445 12.4277C21.7401 12.4407 21.7357 12.4492 21.7353 12.4501L21.513 12.3356L21.2908 12.2211C21.2813 12.2396 21.2576 12.2869 21.2555 12.3505C21.2533 12.416 21.275 12.4655 21.2835 12.4843L21.5112 12.3811ZM21.513 12.3356L21.7355 12.4496L22.1084 11.7217L21.8859 11.6077L21.6634 11.4938L21.2905 12.2216L21.513 12.3356ZM21.8859 11.6077L22.1082 11.7222C22.3102 11.3297 22.2345 10.8557 21.9219 10.5422L21.7448 10.7188L21.5678 10.8953C21.7287 11.0566 21.7653 11.2959 21.6636 11.4933L21.8859 11.6077ZM21.7448 10.7188L21.921 10.5414L21.0742 9.7002L20.898 9.87756L20.7218 10.0549L21.5686 10.8961L21.7448 10.7188ZM20.898 9.87756L21.0734 9.69936C20.7593 9.39032 20.2837 9.31624 19.8911 9.51595L20.0045 9.73877L20.1178 9.9616C20.3183 9.85964 20.5614 9.89712 20.7227 10.0558L20.898 9.87756ZM20.0045 9.73877L19.8915 9.51577L19.1606 9.88617L19.2736 10.1092L19.3866 10.3322L20.1175 9.96177L20.0045 9.73877ZM19.2736 10.1092L19.1605 9.88622C19.1614 9.88575 19.1963 9.86698 19.2482 9.86698C19.2738 9.86698 19.2948 9.8715 19.3092 9.87582C19.3159 9.87786 19.3211 9.87981 19.3241 9.88104C19.3271 9.88225 19.329 9.8831 19.329 9.88312L19.2242 10.1101L19.1193 10.337C19.1342 10.3439 19.1832 10.367 19.2482 10.367C19.3147 10.367 19.3646 10.3433 19.3867 10.3321L19.2736 10.1092ZM19.2242 10.1101L19.3272 9.88228C19.2118 9.83009 19.0933 9.78103 18.9748 9.73697L18.8877 9.97128L18.8005 10.2056C18.9076 10.2454 19.0155 10.2901 19.1211 10.3379L19.2242 10.1101ZM18.8877 9.97128L18.976 9.73739C18.9788 9.73846 19.0099 9.74984 19.0414 9.78145C19.0758 9.81598 19.0881 9.85198 19.0905 9.85917L18.8535 9.9387L18.6165 10.0182C18.6243 10.0415 18.6425 10.0895 18.687 10.1342C18.7286 10.176 18.7741 10.1956 18.7994 10.2052L18.8877 9.97128ZM18.8535 9.9387L19.0912 9.86127L18.8379 9.08343L18.6002 9.16086L18.3625 9.23829L18.6158 10.0161L18.8535 9.9387ZM18.6002 9.16086L18.8379 9.08356C18.7011 8.66291 18.3095 8.38203 17.8675 8.38203V8.63203V8.88203C18.0956 8.88203 18.2934 9.026 18.3624 9.23816L18.6002 9.16086ZM17.8675 8.63203V8.38203H16.6716V8.63203V8.88203H17.8675V8.63203ZM16.6716 8.63203V8.38203C16.2241 8.38203 15.8397 8.65802 15.7016 9.08318L15.9393 9.16041L16.1771 9.23765C16.2474 9.02108 16.438 8.88203 16.6716 8.88203V8.63203ZM15.9393 9.16041L15.7017 9.08261L15.4475 9.85912L15.6851 9.93692L15.9226 10.0147L16.1769 9.23821L15.9393 9.16041ZM15.6851 9.93692L15.4474 9.85918C15.4482 9.85675 15.4582 9.82456 15.4877 9.7915C15.5186 9.75669 15.5516 9.74229 15.5622 9.73813L15.6536 9.97083L15.745 10.2035C15.7749 10.1918 15.8207 10.1693 15.8611 10.1239C15.9 10.0803 15.916 10.0349 15.9227 10.0147L15.6851 9.93692ZM15.6536 9.97083L15.5673 9.73622C15.4491 9.7797 15.3293 9.82841 15.2094 9.88285L15.3126 10.1105L15.4159 10.3382C15.5241 10.2891 15.6326 10.245 15.74 10.2054L15.6536 9.97083ZM15.3126 10.1105L15.2084 9.88326C15.2088 9.8831 15.217 9.87923 15.2297 9.87549C15.2437 9.87132 15.2639 9.86703 15.2884 9.86683C15.3397 9.8664 15.3749 9.88413 15.3811 9.88725L15.2677 10.1101L15.1543 10.3329C15.1789 10.3454 15.2278 10.3673 15.2926 10.3668C15.3544 10.3663 15.401 10.345 15.4168 10.3378L15.3126 10.1105ZM15.2677 10.1101L15.3808 9.88709L14.6476 9.51535L14.5346 9.73833L14.4215 9.9613L15.1547 10.333L15.2677 10.1101ZM14.5346 9.73833L14.6478 9.51543C14.2545 9.31569 13.7795 9.39009 13.4643 9.70026L13.6397 9.87845L13.815 10.0566C13.9778 9.89645 14.2207 9.85929 14.4213 9.96122L14.5346 9.73833ZM13.6397 9.87845L13.4635 9.70109L12.6167 10.5423L12.7929 10.7197L12.969 10.897L13.8159 10.0558L13.6397 9.87845ZM12.7929 10.7197L12.6158 10.5431C12.3044 10.8555 12.2289 11.33 12.4309 11.7218L12.6531 11.6073L12.8754 11.4927C12.7737 11.2955 12.8106 11.056 12.9699 10.8962L12.7929 10.7197ZM12.6531 11.6073L12.4308 11.7215L12.8045 12.449L13.0269 12.3347L13.2493 12.2204L12.8755 11.493L12.6531 11.6073ZM13.0269 12.3347L12.8047 12.4493C12.8028 12.4456 12.784 12.41 12.784 12.3579C12.784 12.3329 12.7883 12.3124 12.7925 12.2982C12.7963 12.2853 12.8003 12.277 12.8006 12.2762L13.0269 12.3825L13.2532 12.4887C13.2622 12.4696 13.284 12.4214 13.284 12.3579C13.284 12.2915 13.2604 12.2421 13.2491 12.2201L13.0269 12.3347ZM13.0269 12.3825L12.7996 12.2783C12.747 12.3931 12.6976 12.511 12.6522 12.6321L12.8863 12.7198L13.1204 12.8075C13.1613 12.6984 13.2061 12.5914 13.2542 12.4866L13.0269 12.3825ZM12.8863 12.7198L12.6513 12.6344C12.6529 12.6301 12.6646 12.5971 12.6964 12.5645C12.7288 12.5311 12.7623 12.5181 12.773 12.5144L12.8549 12.7506L12.9367 12.9868C12.9667 12.9764 13.013 12.9561 13.0549 12.913C13.0961 12.8706 13.1139 12.8256 13.1213 12.8052L12.8863 12.7198ZM12.8549 12.7506L12.7783 12.5126L11.9944 12.7648L12.0709 13.0028L12.1475 13.2408L12.9314 12.9886L12.8549 12.7506ZM12.0709 13.0028L11.9936 12.765C11.7941 12.8299 11.6258 12.9516 11.5034 13.108L11.7003 13.262L11.8972 13.4161C11.9599 13.3359 12.0459 13.2738 12.1483 13.2405L12.0709 13.0028ZM11.7003 13.262L11.8723 13.0806C11.8619 13.0707 11.8561 13.0652 11.8507 13.0596L11.6707 13.233L11.4906 13.4064C11.505 13.4214 11.519 13.4346 11.5283 13.4434L11.7003 13.262ZM11.6707 13.233L11.8506 13.0595L11.157 12.3405L10.977 12.5141L10.7971 12.6877L11.4907 13.4066L11.6707 13.233ZM10.977 12.5141H11.227V12.0446H10.977H10.727V12.5141H10.977ZM10.977 12.0446L11.1122 12.2549C11.3565 12.0979 11.587 11.9157 11.7999 11.709L11.6257 11.5296L11.4516 11.3503C11.2628 11.5336 11.0585 11.6951 10.8418 11.8343L10.977 12.0446ZM11.6257 11.5296L11.7998 11.7091C12.5456 10.9857 13.0024 10.0426 13.1041 9.02596L12.8553 9.0011L12.6065 8.97623C12.5168 9.87405 12.1138 10.708 11.4517 11.3502L11.6257 11.5296ZM12.8553 9.0011L12.9162 9.24357C13.6772 9.0525 14.2311 8.373 14.2311 7.55743H13.9811H13.7311C13.7311 8.13867 13.338 8.62213 12.7944 8.75862L12.8553 9.0011ZM13.9811 7.55743H14.2311C14.2311 7.12503 14.071 6.72978 13.8085 6.42636L13.6195 6.58992L13.4304 6.75348C13.618 6.97041 13.7311 7.25081 13.7311 7.55743H13.9811ZM13.6195 6.58992H13.8695V5.0695H13.6195H13.3695V6.58992H13.6195ZM13.6195 5.0695H13.8695C13.8695 2.68604 11.9181 0.75 9.52286 0.75V1V1.25C11.6451 1.25 13.3695 2.96531 13.3695 5.0695H13.6195ZM9.52286 1V0.75H7.17828V1V1.25H9.52286V1ZM7.17828 1V0.75C6.16258 0.75 5.31806 1.49544 5.17271 2.46739L5.41996 2.50436L5.66721 2.54134C5.77613 1.81301 6.41141 1.25 7.17828 1.25V1ZM5.41996 2.50436L5.38993 2.25617C4.38951 2.37722 3.60976 3.22645 3.60976 4.25595H3.85976H4.10976C4.10976 3.48523 4.69479 2.84393 5.44999 2.75255L5.41996 2.50436ZM3.85976 4.25595H3.60976V6.58948H3.85976H4.10976V4.25595H3.85976ZM3.85976 6.58948L3.67055 6.42608C3.40817 6.7299 3.24812 7.12552 3.24812 7.55787H3.49812H3.74812C3.74812 7.25121 3.86121 6.97029 4.04897 6.75288L3.85976 6.58948ZM3.49812 7.55787H3.24812C3.24812 8.37344 3.80205 9.05295 4.56303 9.24402L4.62391 9.00154L4.68479 8.75907C4.14119 8.62258 3.74812 8.13912 3.74812 7.55787H3.49812ZM4.62391 9.00154L4.37515 9.02642C4.47678 10.0426 4.93358 10.9861 5.67942 11.7095L5.85348 11.5301L6.02754 11.3506C5.36547 10.7085 4.96242 9.87407 4.87267 8.97666L4.62391 9.00154ZM5.85348 11.5301L5.67931 11.7094C5.8922 11.9162 6.12271 12.0983 6.36698 12.2554L6.50218 12.0451L6.63737 11.8348C6.42072 11.6955 6.21638 11.534 6.02765 11.3507L5.85348 11.5301ZM6.50218 12.0451H6.25218V12.5141H6.50218H6.75218V12.0451H6.50218ZM6.50218 12.5141L6.32227 12.3405L5.62819 13.0599L5.80811 13.2335L5.98802 13.4071L6.68209 12.6877L6.50218 12.5141ZM5.80811 13.2335L5.62785 13.0602C5.51823 13.1743 5.40671 13.2395 5.25159 13.2798L5.31439 13.5218L5.37719 13.7638C5.621 13.7005 5.81407 13.5881 5.98836 13.4067L5.80811 13.2335ZM5.31439 13.5218L5.25114 13.2799L2.30055 14.0515L2.3638 14.2934L2.42705 14.5352L5.37764 13.7636L5.31439 13.5218ZM2.3638 14.2934L2.3006 14.0515C1.5357 14.2513 0.98155 14.8359 0.827498 15.6097L1.07269 15.6585L1.31787 15.7073C1.43426 15.1227 1.84597 14.687 2.42699 14.5352L2.3638 14.2934ZM1.07269 15.6585L0.827466 15.6098L-0.211172 20.8445L0.0340473 20.8932L0.279267 20.9418L1.31791 15.7071L1.07269 15.6585ZM0.0340473 20.8932L-0.211205 20.8447C-0.329003 21.4405 -0.175762 22.0507 0.210803 22.5173L0.403321 22.3578L0.59584 22.1983C0.305852 21.8483 0.190448 21.391 0.279299 20.9417L0.0340473 20.8932ZM0.403321 22.3578L0.210784 22.5173C0.596708 22.9832 1.16899 23.25 1.77844 23.25V23V22.75C1.31601 22.75 0.885589 22.5482 0.595858 22.1984L0.403321 22.3578ZM1.77844 23V23.25H15.7021V23V22.75H1.77844V23ZM15.7021 23V23.25C16.3115 23.25 16.8838 22.9838 17.2699 22.5172L17.0772 22.3578L16.8846 22.1985C16.595 22.5485 16.1647 22.75 15.7021 22.75V23ZM17.0772 22.3578L17.2699 22.5172C17.6558 22.0507 17.8096 21.4406 17.6918 20.8443L17.4465 20.8927L17.2013 20.9412C17.2901 21.3909 17.1743 21.8483 16.8846 22.1985L17.0772 22.3578ZM17.2727 20.0167V20.2667H17.8684V20.0167V19.7667H17.2727V20.0167ZM17.8684 20.0167V20.2667C18.3098 20.2667 18.7009 19.9856 18.8386 19.5658L18.6011 19.4879L18.3635 19.41C18.2937 19.623 18.0953 19.7667 17.8684 19.7667V20.0167ZM18.6011 19.4879L18.8388 19.5654L19.0917 18.7893L18.854 18.7118L18.6163 18.6344L18.3634 19.4104L18.6011 19.4879ZM18.854 18.7118L19.091 18.7914C19.0886 18.7986 19.076 18.8347 19.04 18.8693C19.0227 18.8859 19.0056 18.8968 18.9926 18.9037C18.9809 18.9099 18.9722 18.9129 18.9717 18.9131L18.8881 18.6775L18.8045 18.4419C18.7866 18.4482 18.7382 18.4658 18.6934 18.5089C18.6468 18.5537 18.6266 18.6036 18.617 18.6323L18.854 18.7118ZM18.8881 18.6775L18.975 18.9119C19.0941 18.8678 19.2126 18.8187 19.3291 18.7661L19.2264 18.5382L19.1237 18.3103C19.0165 18.3587 18.9086 18.4033 18.8013 18.443L18.8881 18.6775ZM19.2264 18.5382L19.3309 18.7653C19.3289 18.7663 19.2957 18.7823 19.2473 18.7819C19.1966 18.7815 19.1618 18.7635 19.1555 18.7602L19.2713 18.5387L19.3872 18.3171C19.3638 18.3049 19.3157 18.2825 19.2514 18.2819C19.1894 18.2814 19.1423 18.3017 19.1219 18.3111L19.2264 18.5382ZM19.2713 18.5387L19.1583 18.7617L19.8914 19.1334L20.0045 18.9104L20.1175 18.6874L19.3844 18.3157L19.2713 18.5387ZM20.0045 18.9104L19.8913 19.1333C20.2845 19.3331 20.7595 19.2587 21.0747 18.9485L20.8994 18.7703L20.724 18.5921C20.5612 18.7523 20.3184 18.7895 20.1177 18.6875L20.0045 18.9104ZM20.8994 18.7703L21.0756 18.9477L21.9224 18.1064L21.7462 17.9291L21.57 17.7517L20.7232 18.5929L20.8994 18.7703ZM21.7462 17.9291L21.9232 18.1056C22.2347 17.7932 22.3101 17.3188 22.1081 16.9269L21.8859 17.0415L21.6637 17.156C21.7654 17.3532 21.7285 17.5928 21.5691 17.7526L21.7462 17.9291ZM21.8859 17.0415L22.1083 16.9273L21.7354 16.2012L21.513 16.3154L21.2906 16.4296L21.6635 17.1557L21.8859 17.0415ZM21.513 16.3154L21.7354 16.2011C21.7358 16.202 21.7552 16.2375 21.7552 16.2902C21.7552 16.3162 21.7505 16.3375 21.7461 16.3521C21.744 16.359 21.742 16.3642 21.7407 16.3673C21.7395 16.3704 21.7386 16.3722 21.7385 16.3723L21.5121 16.2663L21.2857 16.1603C21.2788 16.175 21.2552 16.2245 21.2552 16.2902C21.2552 16.3574 21.2794 16.4078 21.2907 16.4297L21.513 16.3154ZM21.5121 16.2663L21.7391 16.371C21.7936 16.2529 21.8426 16.1339 21.8854 16.0199L21.6514 15.932L21.4173 15.8442C21.3784 15.948 21.334 16.0556 21.2851 16.1616L21.5121 16.2663ZM21.6514 15.932L21.8849 16.0214C21.8822 16.0285 21.8695 16.0599 21.8367 16.0908C21.8029 16.1226 21.7687 16.1338 21.7637 16.1355L21.6851 15.8981L21.6065 15.6608C21.5853 15.6678 21.5385 15.6848 21.494 15.7267C21.4506 15.7676 21.4291 15.8133 21.4179 15.8427L21.6514 15.932ZM21.6851 15.8981L21.762 16.136L22.5446 15.883L22.4677 15.6451L22.3907 15.4072L21.6082 15.6603L21.6851 15.8981ZM22.4677 15.6451L22.5442 15.8831C22.9704 15.7461 23.25 15.3648 23.25 14.9172H23H22.75C22.75 15.1463 22.6118 15.3361 22.3911 15.4071L22.4677 15.6451ZM23 14.9172H23.25V13.7293H23H22.75V14.9172H23ZM23 13.7293H23.25C23.25 13.2872 22.9646 12.8994 22.5436 12.7643L22.4672 13.0023L22.3908 13.2404C22.6068 13.3097 22.75 13.5064 22.75 13.7293H23ZM17.4465 20.8927L17.6917 20.8441L17.5179 19.9681L17.2727 20.0167L17.0274 20.0654L17.2013 20.9414L17.4465 20.8927ZM12.9016 6.12893L12.7616 6.60894L13.4016 6.79556V6.12893H12.9016ZM12.4622 6.06913H11.9622V6.57501L12.4681 6.5691L12.4622 6.06913ZM12.013 4.82494L11.6625 5.18154L11.6628 5.18183L12.013 4.82494ZM10.9294 4.38805L10.9337 4.88804L10.9364 4.888L10.9294 4.38805ZM6.78205 3.94357L6.65215 4.4264L6.65257 4.42651L6.78205 3.94357ZM6.71602 3.93241L6.75563 3.43398L6.75467 3.43391L6.71602 3.93241ZM5.49588 4.8062L5.9532 5.00834L5.95329 5.00813L5.49588 4.8062ZM5.15177 6.07716L5.09999 6.57448L5.55993 6.62236L5.64353 6.16756L5.15177 6.07716ZM4.57809 6.12893H4.07809V6.79561L4.7181 6.60893L4.57809 6.12893ZM4.57809 4.2564L4.07809 4.25601V4.2564H4.57809ZM5.32338 8.68112L5.82321 8.66819L5.82321 8.66807L5.32338 8.68112ZM4.97477 8.33348L4.98999 7.83371L4.98894 7.83368L4.97477 8.33348ZM5.30181 6.84251L5.49142 6.37985L5.48899 6.37887L5.30181 6.84251ZM5.79148 6.57743L5.30004 6.48531L5.29962 6.48759L5.79148 6.57743ZM5.82787 6.37572L5.33569 6.2876L5.33529 6.28989L5.82787 6.37572ZM6.63246 4.64197L6.76026 4.15858L6.69744 4.14197H6.63246V4.64197ZM10.9375 5.10073L10.942 5.60072L10.9435 5.6007L10.9375 5.10073ZM11.5085 5.33145L11.1581 5.68815L11.1581 5.68818L11.5085 5.33145ZM12.2232 6.82555L12.0577 6.35376L12.0563 6.35424L12.2232 6.82555ZM12.5053 8.33259L12.5194 8.83239L12.52 8.83237L12.5053 8.33259ZM12.1567 8.68023L11.6569 8.66721L11.6569 8.6673L12.1567 8.68023ZM8.74028 12.7015V12.2015H8.73998L8.74028 12.7015ZM10.2596 12.4132H10.7596V11.6785L10.0761 11.9481L10.2596 12.4132ZM7.22096 12.4132L7.40448 11.9481L6.72096 11.6784V12.4132H7.22096ZM4.36246 22.2864L3.86606 22.3464L3.9192 22.7864H4.36246V22.2864ZM3.6302 16.2226L4.1266 16.1626L4.12616 16.1592L3.6302 16.2226ZM3.64727 16.1663L4.01521 16.505L4.02035 16.4992L3.64727 16.1663ZM13.8333 16.1663L13.464 16.5035L13.4654 16.5049L13.8333 16.1663ZM13.8504 16.2226L14.3468 16.2825L14.3473 16.2781L13.8504 16.2226ZM13.1181 22.2864V22.7864H13.5614L13.6145 22.3464L13.1181 22.2864ZM13.8414 22.2864L13.345 22.2264L13.2773 22.7864H13.8414V22.2864ZM14.5638 16.3074L15.0601 16.3673L15.0602 16.3671L14.5638 16.3074ZM14.3692 15.6906L14.7412 15.3565L14.7409 15.3562L14.3692 15.6906ZM3.11133 15.6906L2.73963 15.3562L2.73937 15.3565L3.11133 15.6906ZM2.91681 16.3074L2.42039 16.3671L2.42041 16.3673L2.91681 16.3074ZM3.63873 22.2864V22.7864H4.20274L4.13513 22.2265L3.63873 22.2864ZM0.95813 21.9044L1.34341 21.5857L1.34306 21.5853L0.95813 21.9044ZM0.738902 21.0306L0.248472 20.9333L0.248332 20.934L0.738902 21.0306ZM1.77799 15.7964L1.28762 15.6987L1.28756 15.699L1.77799 15.7964ZM2.54753 14.9828L2.67365 15.4667L2.67407 15.4666L2.54753 14.9828ZM5.49723 14.2112L5.37143 13.7273L5.3707 13.7275L5.49723 14.2112ZM6.32787 13.7257L5.96797 13.3786L5.96722 13.3794L6.32787 13.7257ZM6.59427 13.4495L7.07364 13.3073L6.82978 12.485L6.23437 13.1024L6.59427 13.4495ZM10.8863 13.4495L11.2459 13.1021L10.6506 12.4857L10.4069 13.3073L10.8863 13.4495ZM11.1522 13.7248L11.5125 13.3781L11.5119 13.3775L11.1522 13.7248ZM11.9829 14.2104L12.1094 13.7266L12.1082 13.7263L11.9829 14.2104ZM14.9335 14.9819L14.807 15.4657L14.8072 15.4657L14.9335 14.9819ZM15.7026 15.795L16.193 15.6977L16.1929 15.6973L15.7026 15.795ZM15.7448 16.0079L16.2362 15.9152L16.2352 15.9106L15.7448 16.0079ZM15.7475 16.0222L15.2562 16.1149L15.2571 16.1195L15.7475 16.0222ZM16.4829 19.7271L15.9925 19.8244L15.9928 19.8258L16.4829 19.7271ZM16.4843 19.7338L16.9747 19.6364L16.9744 19.635L16.4843 19.7338ZM16.7417 21.0297L17.2323 20.9334L17.2321 20.9323L16.7417 21.0297ZM9.89662 19.2139H10.3966V19.2135L9.89662 19.2139ZM5.63695 3.205V3.705H5.76049V3.205V2.705H5.63695V3.205ZM5.76049 3.205V3.705C6.23161 3.705 6.61943 3.3245 6.61943 2.84843H6.11943H5.61943C5.61943 2.76597 5.68559 2.705 5.76049 2.705V3.205ZM6.11943 2.84843H6.61943V2.76498H6.11943H5.61943V2.84843H6.11943ZM6.11943 2.76498H6.61943C6.61943 2.46496 6.86731 2.21358 7.17873 2.21358V1.71358V1.21358C6.32213 1.21358 5.61943 1.9056 5.61943 2.76498H6.11943ZM7.17873 1.71358V2.21358H9.5233V1.71358V1.21358H7.17873V1.71358ZM9.5233 1.71358V2.21358C11.1132 2.21358 12.4016 3.4985 12.4016 5.0695H12.9016H13.4016C13.4016 2.94005 11.6593 1.21358 9.5233 1.21358V1.71358ZM12.9016 5.0695H12.4016V6.12893H12.9016H13.4016V5.0695H12.9016ZM12.9016 6.12893L13.0415 5.64892C12.8554 5.59465 12.659 5.5668 12.4564 5.56917L12.4622 6.06913L12.4681 6.5691C12.571 6.56789 12.6692 6.58199 12.7616 6.60894L12.9016 6.12893ZM12.4622 6.06913H12.9622V5.89687H12.4622H11.9622V6.06913H12.4622ZM12.4622 5.89687H12.9622C12.9622 5.35024 12.7531 4.85066 12.3632 4.46806L12.013 4.82494L11.6628 5.18183C11.8605 5.3758 11.9622 5.61792 11.9622 5.89687H12.4622ZM12.013 4.82494L12.3635 4.46834C11.9734 4.08499 11.471 3.8804 10.9224 3.8881L10.9294 4.38805L10.9364 4.888C11.2145 4.8841 11.4605 4.98296 11.6625 5.18154L12.013 4.82494ZM10.9294 4.38805L10.9252 3.88807C9.33365 3.90164 8.02435 3.75898 6.91154 3.46062L6.78205 3.94357L6.65257 4.42651C7.8767 4.75471 9.28079 4.90213 10.9337 4.88803L10.9294 4.38805ZM6.78205 3.94357L6.91195 3.46074C6.85748 3.44608 6.80493 3.4379 6.75563 3.43398L6.71602 3.93241L6.6764 4.43084C6.67203 4.43049 6.6635 4.42945 6.65215 4.4264L6.78205 3.94357ZM6.71602 3.93241L6.75467 3.43391C6.49469 3.41375 6.16853 3.44857 5.84515 3.63596C5.52006 3.82435 5.24314 4.14066 5.03848 4.60427L5.49588 4.8062L5.95329 5.00813C6.09005 4.69836 6.23901 4.5635 6.34653 4.50119C6.45577 4.43789 6.56896 4.42251 6.67737 4.43092L6.71602 3.93241ZM5.49588 4.8062L5.03857 4.60406C4.84029 5.05264 4.735 5.57879 4.66001 5.98677L5.15177 6.07716L5.64353 6.16756C5.71948 5.75441 5.80826 5.33626 5.9532 5.00834L5.49588 4.8062ZM5.15177 6.07716L5.20354 5.57985C4.94633 5.55307 4.68631 5.57653 4.43808 5.64893L4.57809 6.12893L4.7181 6.60893C4.84187 6.57283 4.97162 6.56111 5.09999 6.57448L5.15177 6.07716ZM4.57809 6.12893H5.07809V4.2564H4.57809H4.07809V6.12893H4.57809ZM4.57809 4.2564L5.07809 4.25679C5.07832 3.95598 5.32647 3.705 5.63695 3.705V3.205V2.705C4.7803 2.705 4.07876 3.39743 4.07809 4.25601L4.57809 4.2564ZM5.32338 8.68112L5.82321 8.66807C5.81125 8.2104 5.44211 7.84749 4.98999 7.83371L4.97477 8.33348L4.95955 8.83325C4.88838 8.83108 4.82562 8.77342 4.82355 8.69418L5.32338 8.68112ZM4.97477 8.33348L4.98894 7.83368C4.83217 7.82924 4.7169 7.70756 4.7169 7.55787H4.2169H3.7169C3.7169 8.25342 4.26741 8.81363 4.9606 8.83328L4.97477 8.33348ZM4.2169 7.55787H4.7169C4.7169 7.40943 4.84006 7.28226 4.99768 7.28226V6.78226V6.28226C4.29366 6.28226 3.7169 6.85127 3.7169 7.55787H4.2169ZM4.99768 6.78226V7.28226C5.03399 7.28226 5.07302 7.28935 5.11464 7.30615L5.30181 6.84251L5.48899 6.37887C5.33384 6.31623 5.16802 6.28226 4.99768 6.28226V6.78226ZM5.30181 6.84251L5.11221 7.30516C5.3517 7.40331 5.62147 7.38803 5.84763 7.26616L5.61044 6.826L5.37325 6.38584C5.40893 6.36661 5.45229 6.36382 5.49142 6.37986L5.30181 6.84251ZM5.61044 6.826L5.84763 7.26616C6.07615 7.14301 6.23666 6.92287 6.28335 6.66726L5.79148 6.57743L5.29962 6.48759C5.30767 6.44352 5.3352 6.40634 5.37325 6.38584L5.61044 6.826ZM5.79148 6.57743L6.28292 6.66955C6.29551 6.60242 6.30802 6.53291 6.32045 6.46154L5.82787 6.37572L5.33529 6.28989C5.32347 6.35776 5.31172 6.42302 5.30004 6.48531L5.79148 6.57743ZM5.82787 6.37572L6.32005 6.46383C6.39955 6.01975 6.47999 5.6318 6.58494 5.35908C6.63757 5.22231 6.68262 5.15242 6.70839 5.12378C6.72558 5.10467 6.69685 5.14197 6.63246 5.14197V4.64197V4.14197C6.3403 4.14197 6.11677 4.28621 5.96496 4.45496C5.82173 4.61417 5.72359 4.81303 5.65166 4.99992C5.50751 5.37451 5.41343 5.85343 5.3357 6.2876L5.82787 6.37572ZM6.63246 4.64197L6.50465 5.12536C7.78276 5.46328 9.23862 5.61617 10.942 5.60071L10.9375 5.10073L10.933 4.60076C9.29226 4.61564 7.92961 4.46775 6.76026 4.15858L6.63246 4.64197ZM10.9375 5.10073L10.9435 5.6007C11.0321 5.59963 11.0915 5.62273 11.1581 5.68815L11.5085 5.33145L11.8589 4.97475C11.6038 4.72422 11.2885 4.59648 10.9315 4.60077L10.9375 5.10073ZM11.5085 5.33145L11.1581 5.68818C11.2202 5.74911 11.2443 5.80498 11.2443 5.89643H11.7443H12.2443C12.2443 5.53893 12.114 5.22529 11.8588 4.97473L11.5085 5.33145ZM11.7443 5.89643H11.2443V6.48951H11.7443H12.2443V5.89643H11.7443ZM11.7443 6.48951H11.2443C11.2443 6.76947 11.3811 7.03006 11.6087 7.18999L11.8962 6.78092L12.1837 6.37186C12.2208 6.39791 12.2443 6.44162 12.2443 6.48951H11.7443ZM11.8962 6.78092L11.6087 7.18999C11.8369 7.35041 12.1285 7.38953 12.3902 7.29686L12.2232 6.82555L12.0563 6.35424C12.0987 6.33922 12.1459 6.34532 12.1837 6.37186L11.8962 6.78092ZM12.2232 6.82555L12.3888 7.29734C12.4187 7.28684 12.4504 7.28137 12.4824 7.28137V6.78137V6.28137C12.3366 6.28137 12.193 6.30625 12.0577 6.35376L12.2232 6.82555ZM12.4824 6.78137V7.28137C12.64 7.28137 12.7632 7.40847 12.7632 7.55698H13.2632H13.7632C13.7632 6.84956 13.1856 6.28137 12.4824 6.28137V6.78137ZM13.2632 7.55698H12.7632C12.7632 7.7062 12.6483 7.82817 12.4907 7.83281L12.5053 8.33259L12.52 8.83237C13.2123 8.81202 13.7632 8.25299 13.7632 7.55698H13.2632ZM12.5053 8.33259L12.4913 7.83279C12.0377 7.84554 11.6688 8.20966 11.6569 8.66721L12.1567 8.68023L12.6566 8.69325C12.6545 8.77148 12.5921 8.83035 12.5194 8.83239L12.5053 8.33259ZM12.1567 8.68023L11.6569 8.6673C11.6168 10.2165 10.3089 11.4871 8.73983 11.4871V11.9871V12.4871C10.8447 12.4871 12.6023 10.7908 12.6566 8.69316L12.1567 8.68023ZM8.73983 11.9871V11.4871C7.1707 11.4871 5.86328 10.2173 5.82321 8.66819L5.32338 8.68112L4.82354 8.69405C4.87781 10.7918 6.63509 12.4871 8.73983 12.4871V11.9871ZM8.74028 12.7015V13.2015C9.33092 13.2015 9.90663 13.09 10.4431 12.8784L10.2596 12.4132L10.0761 11.9481C9.65571 12.114 9.20446 12.2015 8.74028 12.2015V12.7015ZM10.2596 12.4132H9.75961V12.8229H10.2596H10.7596V12.4132H10.2596ZM10.2596 12.8229H9.75961C9.75961 13.3759 9.3051 13.8322 8.74028 13.8322V14.3322V14.8322C9.85112 14.8322 10.7596 13.9345 10.7596 12.8229H10.2596ZM8.74028 14.3322V13.8322C8.17546 13.8322 7.72096 13.3759 7.72096 12.8229H7.22096H6.72096C6.72096 13.9345 7.62945 14.8322 8.74028 14.8322V14.3322ZM7.22096 12.8229H7.72096V12.4132H7.22096H6.72096V12.8229H7.22096ZM7.22096 12.4132L7.03744 12.8783C7.57953 13.0922 8.15748 13.2019 8.74059 13.2015L8.74028 12.7015L8.73998 12.2015C8.2826 12.2018 7.82939 12.1158 7.40448 11.9481L7.22096 12.4132ZM4.36246 22.2864L4.85885 22.2265L4.12659 16.1626L3.6302 16.2226L3.13381 16.2825L3.86606 22.3464L4.36246 22.2864ZM3.6302 16.2226L4.12616 16.1592C4.12996 16.1889 4.13553 16.262 4.1054 16.3507C4.07538 16.439 4.02632 16.4928 4.01517 16.5049L3.64727 16.1663L3.27937 15.8277C3.25384 15.8555 3.19445 15.9234 3.15859 16.0289C3.12263 16.1347 3.12684 16.2281 3.13423 16.286L3.6302 16.2226ZM3.64727 16.1663L4.02035 16.4992C4.00655 16.5147 3.95841 16.5664 3.87514 16.6034C3.7921 16.6403 3.72171 16.6413 3.70298 16.6413V16.1413V15.6413C3.65864 15.6413 3.56915 15.6451 3.46904 15.6896C3.3687 15.7341 3.30551 15.7983 3.27419 15.8334L3.64727 16.1663ZM3.70298 16.1413V16.6413H13.7776V16.1413V15.6413H3.70298V16.1413ZM13.7776 16.1413V16.6413C13.7546 16.6413 13.6847 16.6393 13.6029 16.6024C13.5228 16.5663 13.4762 16.5168 13.464 16.5035L13.8333 16.1663L14.2025 15.8292C14.1728 15.7967 14.1113 15.7347 14.014 15.6908C13.9151 15.6463 13.8262 15.6413 13.7776 15.6413V16.1413ZM13.8333 16.1663L13.4654 16.5049C13.4516 16.4899 13.4033 16.4357 13.3741 16.3479C13.3455 16.2622 13.3506 16.1923 13.3535 16.167L13.8504 16.2226L14.3473 16.2781C14.3532 16.2247 14.357 16.1345 14.3227 16.0316C14.2877 15.9266 14.2294 15.8584 14.2012 15.8277L13.8333 16.1663ZM13.8504 16.2226L13.354 16.1626L12.6217 22.2265L13.1181 22.2864L13.6145 22.3464L14.3468 16.2825L13.8504 16.2226ZM13.1181 22.2864V21.7864H4.36246V22.2864V22.7864H13.1181V22.2864ZM16.5224 21.9044L16.1372 21.5857C16.0333 21.7113 15.8764 21.7864 15.7021 21.7864V22.2864V22.7864C16.1684 22.7864 16.61 22.583 16.9077 22.2231L16.5224 21.9044ZM15.7021 22.2864V21.7864H13.8414V22.2864V22.7864H15.7021V22.2864ZM13.8414 22.2864L14.3378 22.3464L15.0601 16.3673L14.5638 16.3074L14.0674 16.2474L13.345 22.2264L13.8414 22.2864ZM14.5638 16.3074L15.0602 16.3671C15.1048 15.9967 14.9905 15.634 14.7412 15.3565L14.3692 15.6906L13.9973 16.0248C14.0535 16.0873 14.0776 16.1628 14.0673 16.2476L14.5638 16.3074ZM14.3692 15.6906L14.7409 15.3562C14.4911 15.0785 14.1516 14.9273 13.778 14.9273V15.4273V15.9273C13.8681 15.9273 13.9374 15.9582 13.9975 16.025L14.3692 15.6906ZM13.778 15.4273V14.9273H3.70253V15.4273V15.9273H13.778V15.4273ZM3.70253 15.4273V14.9273C3.329 14.9273 2.98948 15.0785 2.73963 15.3562L3.11133 15.6906L3.48302 16.025C3.54316 15.9582 3.61244 15.9273 3.70253 15.9273V15.4273ZM3.11133 15.6906L2.73937 15.3565C2.4901 15.634 2.3758 15.9967 2.42039 16.3671L2.91681 16.3074L3.41322 16.2476C3.40301 16.1628 3.42708 16.0873 3.48328 16.0248L3.11133 15.6906ZM2.91681 16.3074L2.42041 16.3673L3.14234 22.3464L3.63873 22.2864L4.13513 22.2265L3.4132 16.2474L2.91681 16.3074ZM3.63873 22.2864V21.7864H1.77844V22.2864V22.7864H3.63873V22.2864ZM1.77844 22.2864V21.7864C1.60412 21.7864 1.44731 21.7113 1.34341 21.5857L0.95813 21.9044L0.572853 22.2231C0.870569 22.583 1.31214 22.7864 1.77844 22.7864V22.2864ZM0.95813 21.9044L1.34306 21.5853C1.23926 21.4601 1.19649 21.2947 1.22947 21.1273L0.738902 21.0306L0.248332 20.934C0.158221 21.3914 0.274478 21.8632 0.573203 22.2235L0.95813 21.9044ZM0.738902 21.0306L1.22933 21.128L2.26842 15.8937L1.77799 15.7964L1.28756 15.699L0.248472 20.9333L0.738902 21.0306ZM1.77799 15.7964L2.26836 15.894C2.31252 15.6723 2.45062 15.5248 2.67365 15.4667L2.54753 14.9828L2.42142 14.499C1.82953 14.6533 1.40698 15.0993 1.28762 15.6987L1.77799 15.7964ZM2.54753 14.9828L2.67407 15.4666L5.62377 14.695L5.49723 14.2112L5.3707 13.7275L2.421 14.4991L2.54753 14.9828ZM5.49723 14.2112L5.62304 14.6952C6.03786 14.5873 6.39163 14.3812 6.68853 14.072L6.32787 13.7257L5.96722 13.3794C5.7996 13.554 5.6089 13.6656 5.37143 13.7273L5.49723 14.2112ZM6.32787 13.7257L6.68778 14.0728L6.95418 13.7966L6.59427 13.4495L6.23437 13.1024L5.96797 13.3786L6.32787 13.7257ZM6.59427 13.4495L6.1149 13.5916C6.44963 14.7204 7.49978 15.5449 8.74028 15.5449V15.0449V14.5449C7.95203 14.5449 7.28519 14.0207 7.07364 13.3073L6.59427 13.4495ZM8.74028 15.0449V15.5449C9.98079 15.5449 11.0309 14.7204 11.3657 13.5916L10.8863 13.4495L10.4069 13.3073C10.1954 14.0207 9.52854 14.5449 8.74028 14.5449V15.0449ZM10.8863 13.4495L10.5267 13.7968L10.7926 14.0722L11.1522 13.7248L11.5119 13.3775L11.2459 13.1021L10.8863 13.4495ZM11.1522 13.7248L10.7919 14.0715C11.0892 14.3805 11.4424 14.5869 11.8575 14.6944L11.9829 14.2104L12.1082 13.7263C11.872 13.6651 11.6816 13.5538 11.5125 13.3781L11.1522 13.7248ZM11.9829 14.2104L11.8564 14.6941L14.807 15.4657L14.9335 14.9819L15.06 14.4982L12.1094 13.7266L11.9829 14.2104ZM14.9335 14.9819L14.8072 15.4657C15.0299 15.5239 15.1681 15.6714 15.2122 15.8928L15.7026 15.795L16.1929 15.6973C16.0735 15.0984 15.6511 14.6525 15.0597 14.4981L14.9335 14.9819ZM15.7026 15.795L15.2121 15.8923L15.2544 16.1052L15.7448 16.0079L16.2352 15.9106L16.193 15.6977L15.7026 15.795ZM15.7448 16.0079L15.2535 16.1006L15.2562 16.1149L15.7475 16.0222L16.2388 15.9295L16.2361 15.9152L15.7448 16.0079ZM15.7475 16.0222L15.2571 16.1195L15.9925 19.8244L16.4829 19.7271L16.9733 19.6297L16.2379 15.9248L15.7475 16.0222ZM16.4829 19.7271L15.9928 19.8258L15.9941 19.8325L16.4843 19.7338L16.9744 19.635L16.9731 19.6283L16.4829 19.7271ZM16.4843 19.7338L15.9938 19.8312L16.2512 21.1271L16.7417 21.0297L17.2321 20.9323L16.9747 19.6364L16.4843 19.7338ZM16.7417 21.0297L16.251 21.1261C16.2841 21.2943 16.241 21.4602 16.1372 21.5857L16.5224 21.9044L16.9077 22.2231C17.2055 21.8631 17.3223 21.3917 17.2323 20.9334L16.7417 21.0297ZM8.74028 18.0639V17.5639C7.8293 17.5639 7.08394 18.301 7.08394 19.2139H7.58394H8.08394C8.08394 18.8585 8.37633 18.5639 8.74028 18.5639V18.0639ZM7.58394 19.2139H7.08394C7.08394 20.1264 7.82981 20.8626 8.74028 20.8626V20.3626V19.8626C8.37582 19.8626 8.08394 19.5679 8.08394 19.2139H7.58394ZM8.74028 20.3626V20.8626C9.65076 20.8626 10.3966 20.1264 10.3966 19.2139H9.89662H9.39662C9.39662 19.5679 9.10474 19.8626 8.74028 19.8626V20.3626ZM9.89662 19.2139L10.3966 19.2135C10.396 18.3012 9.65159 17.5639 8.74028 17.5639V18.0639V18.5639C9.10391 18.5639 9.39637 18.8583 9.39662 19.2142L9.89662 19.2139ZM8.74028 19.649V19.149C8.7716 19.149 8.80228 19.1747 8.80228 19.2139H8.30228H7.80228C7.80228 19.7332 8.22559 20.149 8.74028 20.149V19.649ZM8.30228 19.2139H8.80228C8.80228 19.2509 8.77327 19.2774 8.74028 19.2774V18.7774V18.2774C8.22391 18.2774 7.80228 18.6957 7.80228 19.2139H8.30228ZM8.74028 18.7774V19.2774C8.70729 19.2774 8.67829 19.2509 8.67829 19.2139H9.17829H9.67829C9.67829 18.6957 9.25665 18.2774 8.74028 18.2774V18.7774ZM9.17829 19.2139H8.67829C8.67829 19.1743 8.70852 19.149 8.74028 19.149V19.649V20.149C9.25453 20.149 9.67829 19.7328 9.67829 19.2139H9.17829Z" fill="white" mask="url(#path-3-inside-1_1304_664)"/>
</svg>
